<svg xmlns="http://www.w3.org/2000/svg" xmlns:xlink="http://www.w3.org/1999/xlink" width="793" zoomAndPan="magnify" viewBox="0 0 595.5 842.249979" height="1122" preserveAspectRatio="xMidYMid meet" version="1.0"><defs><g/><clipPath id="e33dd9333b"><path d="M 59.539062 59.523438 L 535.734375 59.523438 L 535.734375 778.292969 L 59.539062 778.292969 Z M 59.539062 59.523438 " clip-rule="nonzero"/></clipPath></defs><g clip-path="url(#e33dd9333b)"><path fill="#f8f2c3" d="M 59.539062 59.523438 L 535.910156 59.523438 L 535.910156 778.367188 L 59.539062 778.367188 Z M 59.539062 59.523438 " fill-opacity="1" fill-rule="nonzero"/></g><path fill="#8e5045" d="M 308.144531 170.0625 C 308.144531 170.0625 305.9375 164.898438 298.085938 167.847656 C 293.15625 169.699219 288.382812 173.058594 285.390625 177.4375 C 281.339844 183.355469 281.894531 190.867188 283.675781 197.464844 C 284.613281 200.964844 285.914062 204.363281 287.332031 207.699219 C 287.6875 208.523438 290.546875 216.175781 291.296875 216.019531 C 291.296875 216.019531 309.382812 212.085938 309.382812 212.085938 C 309.382812 212.085938 310.183594 205.3125 310.183594 205.3125 C 310.683594 201.097656 309.6875 196.75 307.433594 193.164062 C 306.351562 191.4375 304.722656 189.726562 303.082031 188.410156 C 302.066406 187.585938 301.265625 187.003906 301.039062 185.640625 C 300.269531 181.128906 305.253906 175.902344 308.050781 172.902344 C 308.285156 172.652344 308.53125 172.394531 308.773438 172.148438 Z M 308.144531 170.0625 " fill-opacity="1" fill-rule="nonzero"/><path fill="#fdae87" d="M 370.261719 242.652344 C 370.261719 242.652344 370.191406 242.769531 370.054688 242.976562 C 369.351562 244.066406 366.828125 247.550781 363.105469 247.964844 C 358.6875 248.460938 355.496094 253.128906 355.496094 253.128906 C 355.496094 253.128906 337.828125 272.789062 333.410156 273.039062 C 328.988281 273.28125 334.882812 254.363281 334.882812 254.363281 C 334.882812 254.363281 337.335938 254.605469 341.511719 252.886719 C 345.6875 251.167969 350.835938 246.003906 350.835938 246.003906 C 350.835938 246.003906 352.800781 239.363281 353.53125 236.664062 C 354.265625 233.964844 356.226562 226.34375 357.699219 227.082031 C 359.148438 227.804688 357.746094 234.75 357.699219 234.976562 C 357.761719 234.875 358.726562 233.273438 359.910156 231.660156 C 361.273438 229.796875 362.925781 227.921875 363.835938 228.316406 C 365.355469 228.964844 367.070312 229.625 366.414062 230.960938 C 366.328125 231.132812 366.207031 231.3125 366.042969 231.507812 C 365.503906 232.144531 365.160156 232.546875 364.941406 232.796875 C 364.640625 233.140625 364.585938 233.210938 364.570312 233.226562 C 364.671875 233.179688 367.996094 231.5625 367.265625 234.953125 L 367.078125 235.214844 L 366.84375 235.527344 C 366.84375 235.527344 366.84375 235.527344 366.835938 235.535156 L 366.53125 235.941406 C 366.53125 235.941406 369.960938 234.710938 370.214844 235.941406 C 370.457031 237.175781 369.234375 238.15625 366.78125 239.632812 C 366.78125 239.632812 366.859375 239.648438 367.0625 239.679688 C 367.328125 239.71875 367.800781 239.78125 368.558594 239.875 C 369.015625 239.929688 369.570312 240 370.246094 240.070312 C 372.933594 240.347656 371.523438 242.503906 370.261719 242.652344 Z M 370.261719 242.652344 " fill-opacity="1" fill-rule="nonzero"/><path fill="#f89671" d="M 334.898438 254.363281 C 334.898438 254.363281 329.003906 273.28125 333.425781 273.039062 C 333.613281 273.03125 333.832031 272.976562 334.066406 272.898438 C 334.324219 266.4375 335.335938 260.074219 337.84375 254.054688 C 335.945312 254.464844 334.898438 254.363281 334.898438 254.363281 Z M 334.898438 254.363281 " fill-opacity="1" fill-rule="nonzero"/><path fill="#5d6b9c" d="M 287.53125 320.46875 L 283.117188 318.996094 L 288.878906 318.195312 Z M 287.53125 320.46875 " fill-opacity="1" fill-rule="nonzero"/><path fill="#fdae87" d="M 263.113281 385.472656 L 280.601562 383.871094 C 280.601562 383.871094 286.300781 385.839844 292.929688 375.027344 C 299.558594 364.214844 301.273438 363.96875 305.691406 356.105469 C 310.113281 348.242188 314.039062 337.921875 314.039062 337.921875 L 297.347656 315.558594 L 286.792969 316.789062 C 286.792969 316.789062 287.035156 320.964844 286.054688 322.933594 C 285.078125 324.90625 281.886719 333.253906 280.164062 345.796875 C 278.449219 358.328125 271.835938 364.746094 271.835938 364.746094 L 263.722656 364.839844 Z M 263.113281 385.472656 " fill-opacity="1" fill-rule="nonzero"/><path fill="#f89671" d="M 311.15625 344.898438 C 312.894531 340.914062 314.03125 337.914062 314.03125 337.914062 L 297.339844 315.550781 L 291.386719 316.242188 C 292.828125 318.988281 295.089844 319.152344 296.972656 321.8125 C 302.246094 328.804688 306.4375 338.082031 311.15625 344.898438 Z M 311.15625 344.898438 " fill-opacity="1" fill-rule="nonzero"/><path fill="#9ba3c2" d="M 257.550781 365.328125 C 251.109375 365.917969 241.839844 367.023438 234.519531 368.890625 C 222.007812 372.085938 204.832031 376.015625 202.621094 375.773438 C 200.410156 375.53125 196.242188 387.324219 201.148438 392.730469 C 201.148438 392.730469 212.925781 388.304688 220.289062 387.324219 C 227.65625 386.34375 243.117188 385.847656 249.738281 385.847656 C 252.097656 385.847656 254.746094 385.847656 257.183594 385.847656 C 256.867188 379.03125 257.023438 372.179688 257.550781 365.328125 Z M 257.550781 365.328125 " fill-opacity="1" fill-rule="nonzero"/><path fill="#b6bcd2" d="M 265.269531 364.738281 C 265.269531 364.738281 262.125 364.902344 257.550781 365.328125 C 257.015625 372.179688 256.867188 379.03125 257.183594 385.847656 C 261.578125 385.847656 265.261719 385.847656 265.261719 385.847656 L 265.261719 364.738281 Z M 265.269531 364.738281 " fill-opacity="1" fill-rule="nonzero"/><path fill="#bab9bf" d="M 190.71875 383.269531 C 191.886719 379.585938 193.851562 376.023438 195.144531 372.257812 C 193.5 371.199219 192.503906 368.152344 190.105469 368.152344 C 187.65625 368.152344 187.65625 370.609375 187.65625 370.609375 C 187.65625 370.609375 185.445312 374.296875 185.445312 385.113281 C 185.445312 385.113281 183.972656 389.042969 182.5 394.207031 C 181.042969 399.316406 178.621094 411.402344 182.390625 414.980469 C 183.28125 406.464844 185.609375 398.085938 188.75 389.90625 C 189.496094 387.6875 189.988281 385.472656 190.71875 383.269531 Z M 190.71875 383.269531 " fill-opacity="1" fill-rule="nonzero"/><path fill="#232f47" d="M 200.417969 397.148438 C 205.324219 392.976562 201.398438 388.304688 201.398438 388.304688 C 201.398438 388.304688 201.398438 388.28125 201.390625 388.242188 C 199.417969 392.066406 198.09375 396.144531 197.113281 400.34375 C 198.226562 399.167969 199.347656 398.058594 200.417969 397.148438 Z M 200.417969 397.148438 " fill-opacity="1" fill-rule="nonzero"/><path fill="#5d6b9c" d="M 201.640625 379.949219 C 202.621094 378.230469 206.304688 375.277344 203.851562 374.296875 C 201.398438 373.316406 196.980469 373.316406 195.261719 372.328125 C 195.222656 372.304688 195.183594 372.28125 195.144531 372.257812 C 193.851562 376.015625 191.894531 379.585938 190.71875 383.269531 C 189.980469 385.480469 189.488281 387.695312 188.75 389.90625 C 185.609375 398.085938 183.273438 406.464844 182.390625 414.980469 C 182.429688 415.011719 182.460938 415.050781 182.5 415.089844 C 186.425781 418.542969 189.371094 409.691406 189.371094 409.691406 C 189.371094 409.691406 193.125 404.574219 197.113281 400.34375 C 198.085938 396.136719 199.417969 392.058594 201.390625 388.242188 C 201.320312 387.558594 200.71875 381.566406 201.640625 379.949219 Z M 201.640625 379.949219 " fill-opacity="1" fill-rule="nonzero"/><path fill="#5d6b9c" d="M 303.734375 324.121094 C 303.734375 324.121094 296.117188 326.867188 295.382812 323.664062 C 294.644531 320.46875 299.558594 317 299.558594 317 Z M 303.734375 324.121094 " fill-opacity="1" fill-rule="nonzero"/><path fill="#fdae87" d="M 357.714844 380.191406 C 357.714844 380.191406 359.1875 369.621094 356 362.988281 C 352.808594 356.351562 336.371094 315.800781 332.6875 311.375 C 329.003906 306.949219 300.539062 313.832031 300.539062 313.832031 L 296.855469 317.269531 L 307.160156 332.015625 C 307.160156 332.015625 324.1875 355.265625 327.453125 359.246094 C 330.71875 363.226562 335.140625 364.457031 339.308594 381.660156 L 339.910156 384.011719 Z M 357.714844 380.191406 " fill-opacity="1" fill-rule="nonzero"/><path fill="#b6bcd2" d="M 361.976562 389.648438 C 359.917969 383.925781 358.429688 379.824219 358.207031 379.453125 C 357.472656 378.222656 339.316406 381.667969 339.316406 381.667969 C 339.316406 381.667969 339.167969 386.746094 340.03125 391.65625 C 347.410156 392.105469 354.988281 391.679688 361.976562 389.648438 Z M 361.976562 389.648438 " fill-opacity="1" fill-rule="nonzero"/><path fill="#9ba3c2" d="M 376.605469 429.347656 C 374.71875 425.386719 366.796875 403.066406 361.96875 389.65625 C 354.980469 391.6875 347.402344 392.105469 340.023438 391.664062 C 340.265625 393.054688 340.59375 394.433594 341.023438 395.683594 C 342.992188 401.332031 350.59375 411.660156 352.800781 414.855469 C 355.011719 418.046875 366.507812 434.113281 368.246094 441.566406 C 369.984375 449.015625 375.382812 451.480469 375.382812 451.480469 C 375.382812 451.480469 381.761719 448.78125 382.257812 448.042969 C 382.75 447.304688 385.6875 437.964844 385.6875 437.964844 C 385.6875 437.964844 379.308594 435 376.605469 429.347656 Z M 376.605469 429.347656 " fill-opacity="1" fill-rule="nonzero"/><path fill="#9ba3c2" d="M 288.265625 289.007812 C 288.265625 289.007812 286.550781 293.679688 286.550781 298.84375 C 286.550781 304.007812 288.023438 310.191406 286.550781 312.75 C 285.078125 315.308594 283.117188 318.996094 283.117188 318.996094 C 283.117188 318.996094 292.898438 317.023438 293.890625 318.996094 C 294.894531 320.964844 295.382812 323.664062 295.382812 323.664062 C 295.382812 323.664062 297.832031 318.015625 300.78125 317.761719 C 303.726562 317.519531 312.808594 317.761719 317.46875 317.027344 C 322.132812 316.289062 326.324219 316.53125 329.507812 315.550781 C 332.6875 314.570312 334.035156 313.5 334.035156 313.5 C 334.035156 313.5 331.214844 302.765625 328.519531 299.816406 C 325.824219 296.863281 324.351562 293.175781 324.351562 293.175781 Z M 288.265625 289.007812 " fill-opacity="1" fill-rule="nonzero"/><path fill="#5d6b9c" d="M 328.511719 299.824219 C 325.816406 296.871094 324.34375 293.183594 324.34375 293.183594 L 288.265625 289.007812 C 288.265625 289.007812 287.757812 290.390625 287.292969 292.46875 C 301.4375 293.890625 316.828125 293.648438 329.410156 301.078125 C 329.113281 300.585938 328.816406 300.152344 328.511719 299.824219 Z M 328.511719 299.824219 " fill-opacity="1" fill-rule="nonzero"/><path fill="#fec456" d="M 286.769531 291.835938 C 286.769531 291.835938 316.492188 292.445312 321.890625 295.398438 C 327.289062 298.347656 329.625 300.929688 329.625 300.929688 C 329.625 300.929688 334.042969 298.472656 332.320312 286.183594 C 330.792969 275.238281 334.402344 258.535156 336.121094 254.847656 C 337.835938 251.160156 353.546875 241.578125 336.855469 223.636719 C 336.855469 223.636719 339.066406 216.511719 333.171875 212.582031 L 329.742188 210.609375 C 329.742188 210.609375 329.742188 215.28125 329.246094 216.511719 C 328.753906 217.746094 317.40625 205.351562 313.417969 203.609375 C 303.851562 199.4375 297.222656 206.066406 295.75 210.988281 C 293.84375 217.34375 294.402344 232.003906 294.402344 232.003906 C 294.402344 232.003906 299.0625 258.058594 298.085938 263.953125 C 297.105469 269.84375 284.78125 285.816406 286.769531 291.835938 Z M 286.769531 291.835938 " fill-opacity="1" fill-rule="nonzero"/><path fill="#000000" d="M 325.816406 271.5625 C 325.335938 270.699219 321.890625 266.398438 320.417969 265.417969 C 318.945312 264.4375 314.28125 264.925781 312.320312 265.175781 C 310.363281 265.425781 307.167969 267.390625 305.945312 266.15625 C 305.308594 265.519531 301.878906 263.519531 298.226562 261.347656 C 298.101562 264.304688 297.699219 267.246094 297.089844 270.136719 C 297.621094 270.433594 298.046875 270.667969 298.34375 270.824219 C 301.53125 272.542969 303.003906 275.988281 304.480469 277.214844 C 305.953125 278.445312 313.066406 278.195312 317.242188 279.183594 C 321.410156 280.164062 320.675781 277.214844 320.675781 277.214844 C 324.84375 278.195312 324.105469 275 324.105469 275 C 325.335938 274.019531 324.351562 273.03125 324.351562 273.03125 C 326.550781 273.527344 326.425781 272.671875 325.816406 271.5625 Z M 325.816406 271.5625 " fill-opacity="0.5098" fill-rule="nonzero"/><path fill="#fdae87" d="M 302.503906 227.570312 L 278.457031 242.558594 C 278.457031 242.558594 279.433594 245.507812 282.625 248.945312 C 285.8125 252.382812 287.042969 254.980469 290.476562 257.742188 C 293.90625 260.507812 305.691406 266.894531 306.914062 268.117188 C 308.136719 269.34375 311.335938 267.382812 313.292969 267.136719 C 315.261719 266.894531 319.921875 266.398438 321.386719 267.382812 C 322.851562 268.363281 326.308594 272.664062 326.785156 273.527344 C 327.398438 274.632812 327.523438 275.496094 325.3125 275 C 325.3125 275 326.292969 275.980469 325.070312 276.972656 C 325.070312 276.972656 325.808594 280.164062 321.640625 279.183594 C 321.640625 279.183594 322.375 282.132812 318.207031 281.152344 C 314.039062 280.171875 306.914062 280.414062 305.441406 279.183594 C 303.96875 277.953125 302.496094 274.515625 299.308594 272.796875 C 296.117188 271.078125 277.21875 260.261719 277.21875 260.261719 L 260.785156 249.441406 C 260.785156 249.441406 254.652344 244.035156 262.503906 237.152344 C 270.355469 230.269531 289.253906 216.019531 289.253906 216.019531 Z M 302.503906 227.570312 " fill-opacity="1" fill-rule="nonzero"/><path fill="#f89671" d="M 298.359375 230.152344 L 302.496094 227.570312 L 289.246094 216.019531 C 289.246094 216.019531 288.21875 216.792969 286.542969 218.074219 C 290.640625 221.886719 294.800781 225.828125 298.359375 230.152344 Z M 298.359375 230.152344 " fill-opacity="1" fill-rule="nonzero"/><path fill="#fdae87" d="M 321.640625 268.855469 C 321.640625 268.855469 328.015625 267.875 328.015625 269.835938 C 328.015625 271.808594 324.828125 271.871094 324.828125 271.871094 Z M 321.640625 268.855469 " fill-opacity="1" fill-rule="nonzero"/><path fill="#fdae87" d="M 333.335938 199.734375 C 333.335938 199.734375 329.984375 206.191406 329.742188 210.609375 C 329.5 215.027344 329.742188 218.921875 329.742188 218.921875 L 313.339844 203.460938 C 313.339844 203.460938 314.945312 196.664062 314.734375 193.683594 C 314.523438 190.703125 317.964844 184.808594 317.964844 184.808594 C 317.964844 184.808594 322.625 194.390625 325.328125 196.601562 C 328.03125 198.816406 333.335938 199.734375 333.335938 199.734375 Z M 333.335938 199.734375 " fill-opacity="1" fill-rule="nonzero"/><path fill="#f89671" d="M 331.472656 203.910156 C 332.398438 201.546875 333.335938 199.734375 333.335938 199.734375 C 333.335938 199.734375 328.023438 198.816406 325.320312 196.601562 C 322.617188 194.390625 317.957031 184.808594 317.957031 184.808594 C 317.957031 184.808594 317.714844 185.222656 317.367188 185.882812 C 318.816406 194.019531 322.257812 200.902344 331.472656 203.910156 Z M 331.472656 203.910156 " fill-opacity="1" fill-rule="nonzero"/><path fill="#fdae87" d="M 317.714844 187.265625 C 317.714844 187.265625 324.082031 197.945312 326.914062 199.734375 C 329.742188 201.523438 332.929688 201.523438 336.613281 201.765625 C 340.296875 202.011719 343.132812 202.128906 343.0625 199.734375 C 343.039062 198.972656 342.882812 198.007812 343.039062 197.253906 C 343.164062 196.648438 343.054688 196.832031 343.664062 196.601562 C 344.324219 196.359375 345.515625 196.1875 345.65625 195.332031 C 345.8125 194.367188 344.597656 193.824219 344.089844 193.226562 C 344.503906 193.15625 344.964844 193.117188 345.375 192.960938 C 346.179688 192.648438 346.492188 191.886719 346.574219 191.085938 C 346.636719 190.457031 346.25 189.203125 346.683594 188.878906 C 347.042969 188.613281 347.714844 188.863281 348.117188 188.480469 C 348.65625 187.953125 348.304688 187.289062 347.90625 186.769531 C 346.1875 184.554688 344.472656 182.917969 344.472656 180.789062 C 344.472656 178.664062 345.453125 175.46875 343.484375 172.265625 C 341.519531 169.066406 339.558594 166.367188 339.558594 166.367188 L 333.0625 166.367188 L 322.871094 172.015625 L 316.734375 182.585938 Z M 317.714844 187.265625 " fill-opacity="1" fill-rule="nonzero"/><path fill="#8e5045" d="M 340.679688 166.28125 C 340.65625 166.867188 340.0625 167.238281 339.511719 167.039062 C 336.324219 165.894531 335.195312 171.867188 334.441406 173.765625 C 333.878906 175.1875 331.386719 181.191406 329.5 180.875 C 328.023438 180.632812 321.648438 176.699219 320.171875 179.402344 C 318.785156 181.941406 320.535156 185.476562 320.402344 188.191406 C 320.316406 190.058594 314.335938 199.4375 312.972656 197.773438 C 310.714844 195.023438 306.023438 188.96875 305.691406 185.789062 C 305.128906 180.273438 306.21875 176.605469 306.40625 176.035156 C 306.421875 175.980469 306.4375 175.917969 306.445312 175.863281 L 307.152344 169.050781 C 307.167969 168.902344 307.214844 168.765625 307.300781 168.648438 C 309.117188 166.027344 311.320312 163.390625 314 161.632812 C 319.335938 158.125 326.621094 158.179688 332.710938 159.105469 C 336.472656 159.671875 340.875 161.820312 340.679688 166.28125 Z M 340.679688 166.28125 " fill-opacity="1" fill-rule="nonzero"/><path fill="#5d6b9c" d="M 402.863281 445.074219 C 400.75 444.917969 398.359375 443.78125 396.085938 442.3125 C 393.289062 441.953125 390.460938 441.757812 387.53125 441.757812 C 385.8125 441.757812 384.183594 441.394531 382.625 440.808594 C 382.492188 441.277344 382.375 441.726562 382.257812 442.125 C 381.519531 444.582031 380.046875 447.289062 377.59375 448.269531 C 375.140625 449.25 373.175781 447.289062 371.457031 446.058594 C 369.742188 444.824219 368.253906 441.550781 368.253906 441.550781 C 368.253906 441.550781 368.496094 449.847656 368.292969 456.164062 C 374.289062 457.398438 380.492188 457.671875 386.550781 457.476562 C 390.71875 457.230469 394.894531 456.980469 398.578125 455.757812 C 403.976562 453.785156 408.640625 452.066406 414.039062 450.59375 C 414.125 450.546875 414.21875 450.507812 414.304688 450.460938 C 414.335938 450.382812 414.375 450.300781 414.40625 450.222656 C 416.367188 445.570312 409.492188 445.570312 402.863281 445.074219 Z M 402.863281 445.074219 " fill-opacity="1" fill-rule="nonzero"/><path fill="#232f47" d="M 396.085938 442.3125 C 391.238281 439.175781 386.917969 434.503906 386.917969 434.503906 C 384.246094 435.328125 383.296875 438.390625 382.625 440.808594 C 384.183594 441.394531 385.8125 441.757812 387.53125 441.757812 C 390.460938 441.757812 393.289062 441.953125 396.085938 442.3125 Z M 396.085938 442.3125 " fill-opacity="1" fill-rule="nonzero"/><path fill="#bab9bf" d="M 398.570312 455.765625 C 394.886719 456.996094 390.71875 457.238281 386.542969 457.484375 C 380.484375 457.679688 374.28125 457.40625 368.285156 456.171875 C 368.277344 456.40625 368.269531 456.644531 368.261719 456.871094 C 368.019531 463.257812 370.230469 463.511719 374.890625 463.753906 C 379.554688 463.996094 380.785156 461.785156 384.953125 460.558594 C 389.121094 459.328125 395.011719 460.316406 399.675781 459.820312 C 404.339844 459.328125 409.738281 456.628906 409.738281 456.628906 C 409.738281 456.628906 412.347656 454.964844 414.296875 450.476562 C 414.210938 450.523438 414.117188 450.5625 414.03125 450.609375 C 408.632812 452.074219 403.96875 453.800781 398.570312 455.765625 Z M 398.570312 455.765625 " fill-opacity="1" fill-rule="nonzero"/><path fill="#f2ae40" d="M 286.550781 216.730469 C 286.550781 216.730469 297.144531 202.035156 304.949219 203.726562 C 313.410156 205.574219 313.75 210.09375 313.75 210.09375 C 313.75 210.09375 318.566406 221.046875 312.3125 227.320312 C 307.769531 231.871094 304.949219 232.96875 304.949219 232.96875 C 304.949219 232.96875 292.441406 218.425781 286.550781 216.730469 Z M 286.550781 216.730469 " fill-opacity="1" fill-rule="nonzero"/><path fill="#fdae87" d="M 324.027344 179.070312 C 323.644531 178.097656 322.75 177.40625 321.710938 177.320312 C 320.246094 177.203125 318.347656 177.546875 317.980469 180.027344 C 317.367188 184.171875 319.15625 186.296875 321.011719 187.050781 C 321.578125 187.28125 322.359375 187.367188 323.183594 187.382812 C 325.148438 187.414062 326.519531 185.417969 325.800781 183.582031 Z M 324.027344 179.070312 " fill-opacity="1" fill-rule="nonzero"/><path fill="#f89671" d="M 319.515625 271.054688 C 320.582031 271.578125 321.609375 272.175781 322.59375 272.84375 C 323.550781 273.503906 324.484375 274.214844 325.257812 275.085938 C 325.359375 275.207031 325.535156 275.03125 325.429688 274.914062 C 324.65625 274.035156 323.722656 273.320312 322.765625 272.664062 C 321.773438 271.980469 320.730469 271.375 319.640625 270.84375 C 319.5 270.769531 319.375 270.984375 319.515625 271.054688 Z M 319.515625 271.054688 " fill-opacity="1" fill-rule="nonzero"/><path fill="#f89671" d="M 316.703125 273.15625 C 317.902344 273.519531 319.085938 273.910156 320.226562 274.414062 C 321.261719 274.867188 322.25 275.417969 323.207031 276.011719 C 323.847656 276.414062 324.476562 276.851562 325.023438 277.386719 C 325.140625 277.496094 325.3125 277.324219 325.195312 277.214844 C 324.257812 276.3125 323.105469 275.628906 321.96875 275 C 320.988281 274.460938 319.960938 274.011719 318.910156 273.628906 C 318.199219 273.367188 317.484375 273.140625 316.757812 272.921875 C 316.617188 272.875 316.554688 273.109375 316.703125 273.15625 Z M 316.703125 273.15625 " fill-opacity="1" fill-rule="nonzero"/><path fill="#f89671" d="M 315.082031 277.316406 C 316.8125 277.339844 318.433594 278 320.015625 278.625 C 320.582031 278.855469 321.105469 279.128906 321.609375 279.472656 C 321.742188 279.570312 321.859375 279.347656 321.734375 279.261719 C 321.246094 278.925781 320.730469 278.632812 320.179688 278.421875 C 319.960938 278.335938 319.742188 278.242188 319.515625 278.15625 C 318.652344 277.800781 317.769531 277.496094 316.859375 277.300781 C 316.269531 277.167969 315.675781 277.082031 315.074219 277.074219 C 314.921875 277.066406 314.921875 277.316406 315.082031 277.316406 Z M 315.082031 277.316406 " fill-opacity="1" fill-rule="nonzero"/><path fill="#f89671" d="M 359.816406 231.933594 C 359.714844 232.167969 359.578125 232.371094 359.453125 232.59375 C 359.320312 232.8125 359.226562 233.046875 359.132812 233.289062 C 358.9375 233.832031 358.757812 234.414062 358.8125 234.992188 C 358.84375 235.371094 358.953125 235.832031 359.367188 235.949219 C 359.59375 236.015625 359.855469 235.957031 360.074219 235.894531 C 360.800781 235.707031 361.492188 235.339844 362.132812 234.953125 C 362.472656 234.757812 362.792969 234.539062 363.105469 234.304688 C 363.410156 234.074219 363.671875 233.816406 363.9375 233.550781 C 364.320312 233.164062 364.734375 232.8125 365.152344 232.457031 C 365.621094 232.050781 365.996094 231.570312 366.398438 231.09375 C 366.5 230.976562 366.328125 230.796875 366.222656 230.921875 C 365.902344 231.304688 365.605469 231.707031 365.246094 232.042969 C 364.898438 232.371094 364.523438 232.664062 364.171875 232.984375 C 363.875 233.257812 363.605469 233.558594 363.300781 233.824219 C 363.050781 234.050781 362.777344 234.25 362.496094 234.4375 C 361.875 234.84375 361.21875 235.222656 360.519531 235.488281 C 360.261719 235.589844 359.996094 235.683594 359.722656 235.714844 C 359.445312 235.746094 359.234375 235.675781 359.140625 235.378906 C 358.945312 234.773438 359.109375 234.113281 359.3125 233.535156 C 359.40625 233.257812 359.507812 232.992188 359.648438 232.742188 C 359.785156 232.515625 359.925781 232.285156 360.035156 232.042969 C 360.097656 231.910156 359.886719 231.785156 359.816406 231.933594 Z M 359.816406 231.933594 " fill-opacity="1" fill-rule="nonzero"/><path fill="#f89671" d="M 366.945312 235.425781 C 366.921875 235.402344 366.90625 235.371094 366.882812 235.347656 C 366.835938 235.300781 366.757812 235.300781 366.710938 235.347656 C 365.808594 236.21875 364.988281 237.167969 364.085938 238.039062 C 363.230469 238.855469 362.308594 239.695312 361.125 239.953125 C 360.824219 240.015625 360.527344 240.039062 360.222656 240.015625 C 360.097656 240.007812 359.941406 239.992188 359.832031 239.921875 C 359.714844 239.835938 359.683594 239.671875 359.65625 239.539062 C 359.570312 238.957031 359.824219 238.382812 360.121094 237.898438 C 360.714844 236.933594 361.554688 236.117188 362.371094 235.339844 C 363.316406 234.4375 364.304688 233.574219 365.160156 232.578125 C 365.261719 232.457031 365.089844 232.285156 364.988281 232.402344 C 364.171875 233.351562 363.238281 234.183594 362.332031 235.039062 C 361.460938 235.855469 360.574219 236.710938 359.933594 237.734375 C 359.617188 238.234375 359.351562 238.816406 359.390625 239.417969 C 359.40625 239.664062 359.453125 239.953125 359.65625 240.117188 C 359.871094 240.28125 360.199219 240.28125 360.449219 240.28125 C 361.710938 240.28125 362.800781 239.546875 363.710938 238.730469 C 364.820312 237.722656 365.800781 236.578125 366.875 235.535156 C 366.820312 235.535156 366.757812 235.535156 366.703125 235.535156 C 366.726562 235.558594 366.742188 235.589844 366.765625 235.613281 C 366.882812 235.714844 367.054688 235.535156 366.945312 235.425781 Z M 366.945312 235.425781 " fill-opacity="1" fill-rule="nonzero"/><path fill="#f89671" d="M 367.007812 235.109375 C 365.511719 236.453125 364.078125 237.859375 362.699219 239.316406 C 362.25 239.789062 361.320312 240.707031 361.992188 241.375 C 362.242188 241.625 362.621094 241.632812 362.949219 241.585938 C 363.363281 241.523438 363.773438 241.351562 364.164062 241.183594 C 365.105469 240.785156 365.980469 240.242188 366.859375 239.726562 C 366.992188 239.648438 366.875 239.433594 366.734375 239.515625 C 366.011719 239.945312 365.292969 240.394531 364.53125 240.753906 C 364.140625 240.941406 363.734375 241.105469 363.324219 241.242188 C 363.027344 241.335938 362.667969 241.429688 362.363281 241.320312 C 361.945312 241.167969 361.976562 240.722656 362.148438 240.394531 C 362.355469 240.007812 362.683594 239.695312 362.980469 239.386719 C 363.597656 238.730469 364.234375 238.085938 364.875 237.449219 C 365.628906 236.710938 366.398438 235.992188 367.179688 235.292969 C 367.296875 235.183594 367.125 235.007812 367.007812 235.109375 Z M 367.007812 235.109375 " fill-opacity="1" fill-rule="nonzero"/><path fill="#f89671" d="M 367.746094 239.984375 C 367.0625 240.234375 366.445312 240.582031 365.832031 240.957031 C 365.488281 241.175781 365.128906 241.375 364.78125 241.585938 C 364.445312 241.796875 364.117188 242.0625 363.953125 242.441406 C 363.804688 242.769531 363.789062 243.15625 363.976562 243.46875 C 364.164062 243.773438 364.507812 243.972656 364.851562 244.042969 C 365.300781 244.128906 365.753906 244.035156 366.191406 243.941406 C 366.617188 243.847656 367.039062 243.71875 367.445312 243.578125 C 368.378906 243.265625 369.296875 242.886719 370.253906 242.683594 C 370.410156 242.652344 370.339844 242.417969 370.191406 242.449219 C 368.628906 242.785156 367.1875 243.578125 365.597656 243.804688 C 365.207031 243.863281 364.78125 243.847656 364.445312 243.617188 C 364.117188 243.398438 364 243.03125 364.125 242.660156 C 364.25 242.285156 364.570312 242.015625 364.898438 241.8125 C 365.214844 241.617188 365.542969 241.4375 365.855469 241.242188 C 366.484375 240.847656 367.109375 240.488281 367.800781 240.226562 C 367.957031 240.164062 367.894531 239.929688 367.746094 239.984375 Z M 367.746094 239.984375 " fill-opacity="1" fill-rule="nonzero"/><path fill="#f89671" d="M 353.851562 242.0625 C 353.648438 243 353.945312 244.011719 354.621094 244.691406 C 355.292969 245.382812 356.257812 245.546875 357.128906 245.855469 C 357.613281 246.027344 358.074219 246.253906 358.398438 246.671875 C 358.492188 246.796875 358.664062 246.625 358.570312 246.5 C 358.019531 245.800781 357.121094 245.597656 356.3125 245.335938 C 355.890625 245.203125 355.464844 245.046875 355.097656 244.789062 C 354.722656 244.511719 354.425781 244.121094 354.242188 243.695312 C 354.03125 243.203125 353.976562 242.652344 354.085938 242.128906 C 354.125 241.976562 353.890625 241.914062 353.851562 242.0625 Z M 353.851562 242.0625 " fill-opacity="1" fill-rule="nonzero"/><path fill="#fdae87" d="M 321.875 179.265625 C 321.246094 178.773438 320.441406 179.417969 320.0625 179.933594 C 319.648438 180.507812 319.460938 181.238281 319.367188 181.925781 C 319.210938 183.136719 319.398438 184.957031 320.910156 185.144531 C 321.765625 185.253906 322.585938 184.730469 323.152344 184.132812 C 323.199219 184.085938 323.199219 184.007812 323.152344 183.960938 C 323.066406 183.875 322.972656 183.789062 322.886719 183.703125 C 322.765625 183.589844 322.59375 183.765625 322.710938 183.875 C 322.796875 183.960938 322.894531 184.046875 322.980469 184.132812 C 322.980469 184.078125 322.980469 184.015625 322.980469 183.960938 C 322.523438 184.4375 321.898438 184.871094 321.214844 184.910156 C 320.589844 184.941406 320.070312 184.589844 319.804688 184.03125 C 319.554688 183.496094 319.523438 182.878906 319.5625 182.296875 C 319.609375 181.675781 319.734375 181.039062 320.007812 180.484375 C 320.15625 180.183594 320.347656 179.902344 320.605469 179.683594 C 320.878906 179.449219 321.347656 179.164062 321.6875 179.433594 C 321.828125 179.542969 322 179.371094 321.875 179.265625 Z M 321.875 179.265625 " fill-opacity="1" fill-rule="nonzero"/><path fill="#f89671" d="M 321.882812 179.1875 C 321.371094 178.8125 320.660156 179.03125 320.269531 179.472656 C 319.804688 179.996094 319.65625 180.757812 319.570312 181.433594 C 319.484375 182.171875 319.484375 182.980469 319.71875 183.683594 C 319.921875 184.289062 320.378906 184.863281 321.035156 184.980469 C 321.796875 185.105469 322.390625 184.53125 322.859375 184.023438 C 322.972656 183.90625 322.796875 183.734375 322.6875 183.851562 C 322.320312 184.25 321.875 184.738281 321.292969 184.761719 C 320.699219 184.777344 320.21875 184.296875 320.007812 183.78125 C 319.765625 183.183594 319.742188 182.484375 319.78125 181.847656 C 319.820312 181.230469 319.921875 180.539062 320.21875 179.980469 C 320.378906 179.699219 320.597656 179.441406 320.902344 179.320312 C 321.191406 179.210938 321.503906 179.21875 321.757812 179.410156 C 321.890625 179.496094 322.007812 179.28125 321.882812 179.1875 Z M 321.882812 179.1875 " fill-opacity="1" fill-rule="nonzero"/><path fill="#f89671" d="M 343.179688 185.898438 C 343.0625 186.699219 343.296875 187.53125 343.859375 188.128906 C 344.410156 188.707031 345.226562 189.007812 346.007812 188.9375 C 346.164062 188.917969 346.164062 188.675781 346.007812 188.691406 C 345.296875 188.753906 344.566406 188.503906 344.066406 187.992188 C 343.546875 187.46875 343.3125 186.699219 343.421875 185.976562 C 343.4375 185.804688 343.203125 185.742188 343.179688 185.898438 Z M 343.179688 185.898438 " fill-opacity="1" fill-rule="nonzero"/><path fill="#f89671" d="M 342.679688 192.609375 C 343.085938 192.835938 343.5 193.070312 343.910156 193.300781 C 344.050781 193.378906 344.167969 193.164062 344.035156 193.085938 C 343.625 192.859375 343.210938 192.625 342.804688 192.394531 C 342.664062 192.316406 342.535156 192.53125 342.679688 192.609375 Z M 342.679688 192.609375 " fill-opacity="1" fill-rule="nonzero"/><path fill="#8e5045" d="M 344.878906 177.28125 C 344.902344 177.195312 344.269531 176.8125 344.207031 176.773438 C 343.671875 176.433594 343.070312 176.183594 342.441406 176.113281 C 341.613281 176.027344 340.796875 176.339844 340.101562 176.773438 C 339.738281 177 339.402344 177.265625 339.089844 177.554688 C 338.847656 177.777344 338.429688 178.089844 338.335938 178.410156 C 339.371094 177.800781 340.34375 176.976562 341.605469 176.960938 C 342.992188 176.945312 343.726562 177.925781 344.222656 177.925781 C 344.707031 177.925781 344.878906 177.28125 344.878906 177.28125 Z M 344.878906 177.28125 " fill-opacity="1" fill-rule="nonzero"/><path fill="#000000" d="M 342.625 180.875 C 342.625 181.089844 342.601562 181.292969 342.558594 181.488281 C 342.515625 181.683594 342.453125 181.859375 342.371094 182.007812 C 342.289062 182.15625 342.195312 182.273438 342.089844 182.355469 C 341.984375 182.4375 341.875 182.476562 341.761719 182.476562 C 341.648438 182.476562 341.535156 182.4375 341.429688 182.355469 C 341.324219 182.273438 341.234375 182.15625 341.152344 182.007812 C 341.070312 181.859375 341.007812 181.683594 340.964844 181.488281 C 340.921875 181.292969 340.898438 181.089844 340.898438 180.875 C 340.898438 180.664062 340.921875 180.460938 340.964844 180.261719 C 341.007812 180.066406 341.070312 179.894531 341.152344 179.742188 C 341.234375 179.59375 341.324219 179.476562 341.429688 179.398438 C 341.535156 179.316406 341.648438 179.273438 341.761719 179.273438 C 341.875 179.273438 341.984375 179.316406 342.089844 179.398438 C 342.195312 179.476562 342.289062 179.59375 342.371094 179.742188 C 342.453125 179.894531 342.515625 180.066406 342.558594 180.261719 C 342.601562 180.460938 342.625 180.664062 342.625 180.875 Z M 342.625 180.875 " fill-opacity="1" fill-rule="nonzero"/><path fill="#000000" d="M 307.261719 168.226562 C 307.375 168.238281 307.476562 168.339844 307.5625 168.527344 C 307.652344 168.71875 307.71875 168.984375 307.765625 169.324219 C 307.8125 169.664062 307.839844 170.054688 307.839844 170.492188 C 307.839844 170.933594 307.820312 171.386719 307.773438 171.855469 C 307.726562 172.328125 307.660156 172.777344 307.574219 173.207031 C 307.488281 173.636719 307.390625 174.015625 307.277344 174.339844 C 307.164062 174.664062 307.046875 174.910156 306.921875 175.082031 C 306.800781 175.25 306.683594 175.328125 306.570312 175.316406 C 306.457031 175.308594 306.355469 175.207031 306.265625 175.015625 C 306.179688 174.824219 306.113281 174.5625 306.0625 174.21875 C 306.015625 173.878906 305.992188 173.492188 305.988281 173.050781 C 305.988281 172.613281 306.011719 172.160156 306.058594 171.6875 C 306.101562 171.21875 306.167969 170.769531 306.253906 170.335938 C 306.339844 169.90625 306.441406 169.53125 306.554688 169.207031 C 306.667969 168.882812 306.785156 168.632812 306.90625 168.464844 C 307.027344 168.292969 307.148438 168.214844 307.261719 168.226562 Z M 307.261719 168.226562 " fill-opacity="1" fill-rule="nonzero"/><path fill="#8e5045" d="M 288.085938 175.421875 C 285.828125 175.863281 283.957031 177.453125 282.765625 179.371094 C 281.519531 181.394531 280.996094 183.773438 280.972656 186.132812 C 280.957031 188.566406 281.433594 191 282.15625 193.316406 C 282.945312 195.839844 284.035156 198.257812 285.03125 200.707031 C 286.03125 203.171875 286.964844 205.683594 287.445312 208.304688 C 287.507812 208.640625 287.554688 208.980469 287.601562 209.316406 C 287.625 209.472656 287.867188 209.472656 287.84375 209.316406 C 287.507812 206.710938 286.675781 204.207031 285.71875 201.765625 C 284.746094 199.300781 283.652344 196.894531 282.773438 194.398438 C 281.972656 192.121094 281.386719 189.75 281.246094 187.335938 C 281.105469 184.980469 281.410156 182.570312 282.453125 180.4375 C 283.449219 178.386719 285.140625 176.574219 287.347656 175.851562 C 287.609375 175.765625 287.875 175.695312 288.148438 175.648438 C 288.304688 175.632812 288.234375 175.390625 288.085938 175.421875 Z M 288.085938 175.421875 " fill-opacity="1" fill-rule="nonzero"/><path fill="#8e5045" d="M 307.039062 168.265625 C 306.65625 166.515625 304.660156 165.925781 303.105469 165.761719 C 302.019531 165.644531 300.890625 165.667969 299.800781 165.753906 C 298.640625 165.855469 297.480469 166.074219 296.390625 166.5 C 294.199219 167.355469 292.535156 169.050781 290.882812 170.667969 C 289.199219 172.328125 287.515625 174.039062 286.261719 176.066406 C 285.0625 178.011719 284.261719 180.304688 284.410156 182.609375 C 284.425781 182.886719 284.464844 183.160156 284.503906 183.433594 C 284.527344 183.589844 284.765625 183.519531 284.738281 183.371094 C 284.371094 181.128906 285 178.828125 286.070312 176.859375 C 287.175781 174.839844 288.753906 173.128906 290.367188 171.515625 C 291.164062 170.714844 291.972656 169.90625 292.804688 169.144531 C 293.640625 168.382812 294.535156 167.667969 295.539062 167.140625 C 297.574219 166.074219 299.925781 165.871094 302.191406 165.941406 C 303.066406 165.972656 303.945312 166.066406 304.777344 166.367188 C 305.511719 166.625 306.234375 167.054688 306.601562 167.769531 C 306.6875 167.941406 306.75 168.132812 306.796875 168.320312 C 306.835938 168.484375 307.070312 168.421875 307.039062 168.265625 Z M 307.039062 168.265625 " fill-opacity="1" fill-rule="nonzero"/><path fill="#8e5045" d="M 305.597656 174.566406 C 305.285156 176.675781 304.496094 178.710938 303.296875 180.476562 C 302.636719 181.441406 301.847656 182.296875 301.09375 183.183594 C 300.363281 184.054688 299.660156 184.941406 298.992188 185.859375 C 298.226562 186.902344 297.503906 187.984375 296.832031 189.09375 C 296.746094 189.226562 296.964844 189.351562 297.042969 189.21875 C 298.257812 187.234375 299.613281 185.339844 301.109375 183.550781 C 301.855469 182.664062 302.644531 181.816406 303.320312 180.875 C 303.9375 180.011719 304.464844 179.078125 304.871094 178.097656 C 305.339844 176.984375 305.667969 175.820312 305.84375 174.628906 C 305.859375 174.480469 305.621094 174.417969 305.597656 174.566406 Z M 305.597656 174.566406 " fill-opacity="1" fill-rule="nonzero"/><path fill="#8e5045" d="M 285.71875 180.367188 C 285.476562 178.632812 285.671875 176.859375 286.230469 175.203125 C 286.785156 173.539062 287.703125 171.992188 288.886719 170.691406 C 290.101562 169.355469 291.582031 168.304688 293.234375 167.597656 C 294.988281 166.851562 296.894531 166.492188 298.796875 166.492188 C 300.710938 166.492188 302.613281 166.84375 304.390625 167.535156 C 304.613281 167.621094 304.832031 167.714844 305.050781 167.808594 C 305.191406 167.871094 305.316406 167.660156 305.175781 167.597656 C 303.398438 166.804688 301.46875 166.351562 299.519531 166.253906 C 297.574219 166.167969 295.609375 166.445312 293.78125 167.109375 C 292.042969 167.746094 290.453125 168.742188 289.136719 170.0625 C 287.867188 171.332031 286.863281 172.863281 286.214844 174.527344 C 285.5625 176.183594 285.257812 177.996094 285.414062 179.777344 C 285.429688 179.996094 285.460938 180.207031 285.484375 180.421875 C 285.5 180.585938 285.742188 180.515625 285.71875 180.367188 Z M 285.71875 180.367188 " fill-opacity="1" fill-rule="nonzero"/><path fill="#8e5045" d="M 287.5 174.863281 C 286.355469 175.421875 285.523438 176.425781 284.898438 177.515625 C 284.199219 178.742188 283.683594 180.074219 283.210938 181.402344 C 282.1875 184.304688 281.535156 187.34375 281.277344 190.410156 C 281.144531 191.957031 281.113281 193.519531 281.191406 195.074219 C 281.269531 196.695312 281.457031 198.3125 281.675781 199.929688 C 282.097656 203.078125 282.625 206.238281 282.53125 209.425781 C 282.453125 212.234375 281.902344 215.101562 280.453125 217.53125 C 280.273438 217.832031 280.085938 218.121094 279.890625 218.402344 C 279.796875 218.527344 280.007812 218.65625 280.101562 218.527344 C 281.707031 216.269531 282.460938 213.539062 282.695312 210.808594 C 282.960938 207.761719 282.578125 204.71875 282.164062 201.695312 C 281.722656 198.5 281.300781 195.324219 281.425781 192.089844 C 281.542969 189 282.058594 185.914062 282.96875 182.957031 C 283.40625 181.503906 283.933594 180.074219 284.574219 178.703125 C 285.117188 177.546875 285.789062 176.386719 286.808594 175.601562 C 287.058594 175.40625 287.332031 175.242188 287.625 175.101562 C 287.765625 175.007812 287.640625 174.792969 287.5 174.863281 Z M 287.5 174.863281 " fill-opacity="1" fill-rule="nonzero"/><path fill="#8e5045" d="M 286.550781 187.367188 C 285.6875 188.871094 285.351562 190.589844 285.273438 192.308594 C 285.1875 194.097656 285.367188 195.886719 285.492188 197.671875 C 285.632812 199.734375 285.703125 201.804688 285.710938 203.871094 C 285.710938 205.824219 285.6875 207.792969 285.507812 209.738281 C 285.34375 211.496094 285.007812 213.277344 284.160156 214.847656 C 284.058594 215.035156 283.949219 215.226562 283.832031 215.40625 C 283.746094 215.539062 283.957031 215.664062 284.042969 215.53125 C 284.984375 214.046875 285.429688 212.328125 285.65625 210.601562 C 285.898438 208.710938 285.929688 206.78125 285.953125 204.875 C 285.976562 202.800781 285.921875 200.738281 285.804688 198.675781 C 285.695312 196.839844 285.5 195.007812 285.507812 193.164062 C 285.515625 191.421875 285.71875 189.640625 286.480469 188.058594 C 286.574219 187.859375 286.675781 187.671875 286.777344 187.484375 C 286.839844 187.351562 286.628906 187.234375 286.550781 187.367188 Z M 286.550781 187.367188 " fill-opacity="1" fill-rule="nonzero"/><path fill="#8e5045" d="M 285.515625 188.113281 C 284.527344 188.902344 284.175781 190.261719 283.964844 191.453125 C 283.738281 192.726562 283.714844 194.011719 283.769531 195.300781 C 283.878906 197.90625 284.332031 200.503906 284.191406 203.125 C 284.113281 204.550781 283.839844 205.964844 283.21875 207.269531 C 283.148438 207.410156 283.359375 207.535156 283.429688 207.394531 C 284.527344 205.070312 284.550781 202.464844 284.371094 199.953125 C 284.183594 197.378906 283.785156 194.773438 284.097656 192.191406 C 284.183594 191.476562 284.324219 190.757812 284.550781 190.074219 C 284.78125 189.398438 285.117188 188.746094 285.679688 188.292969 C 285.8125 188.191406 285.640625 188.015625 285.515625 188.113281 Z M 285.515625 188.113281 " fill-opacity="1" fill-rule="nonzero"/><path fill="#4c2f2b" d="M 295.105469 172.644531 C 296.722656 170.460938 299.511719 169.699219 302.082031 169.449219 C 302.917969 169.371094 303.757812 169.332031 304.605469 169.292969 C 304.761719 169.285156 304.761719 169.042969 304.605469 169.050781 C 301.796875 169.183594 298.789062 169.347656 296.414062 171.035156 C 295.835938 171.449219 295.320312 171.945312 294.894531 172.519531 C 294.800781 172.644531 295.011719 172.769531 295.105469 172.644531 Z M 295.105469 172.644531 " fill-opacity="1" fill-rule="nonzero"/><path fill="#4c2f2b" d="M 288.6875 179.289062 C 286.941406 181.023438 286.191406 183.496094 286.054688 185.90625 C 285.976562 187.390625 286.121094 188.863281 286.316406 190.332031 C 286.511719 191.800781 286.761719 193.257812 286.988281 194.71875 C 287.246094 196.390625 287.507812 198.054688 287.773438 199.726562 C 287.796875 199.882812 288.03125 199.8125 288.007812 199.664062 C 287.554688 196.777344 287.082031 193.886719 286.660156 190.992188 C 286.261719 188.308594 286 185.515625 286.839844 182.894531 C 287.246094 181.613281 287.914062 180.414062 288.871094 179.464844 C 288.980469 179.355469 288.808594 179.179688 288.6875 179.289062 Z M 288.6875 179.289062 " fill-opacity="1" fill-rule="nonzero"/><path fill="#4c2f2b" d="M 297.675781 179.070312 C 296.644531 179.816406 296.699219 181.253906 296.792969 182.390625 C 296.917969 183.960938 297.160156 185.53125 297.519531 187.058594 C 297.886719 188.613281 298.375 190.136719 298.984375 191.613281 C 299.566406 193.03125 300.261719 194.421875 300.648438 195.914062 C 301.085938 197.621094 300.992188 199.40625 300.316406 201.042969 C 300.253906 201.195312 300.496094 201.257812 300.554688 201.105469 C 301.125 199.710938 301.296875 198.171875 301.054688 196.679688 C 300.8125 195.183594 300.183594 193.792969 299.589844 192.414062 C 298.96875 190.976562 298.429688 189.507812 298.015625 187.992188 C 297.597656 186.472656 297.300781 184.925781 297.128906 183.355469 C 297.042969 182.585938 296.949219 181.800781 297.011719 181.023438 C 297.058594 180.375 297.253906 179.675781 297.800781 179.273438 C 297.929688 179.1875 297.800781 178.976562 297.675781 179.070312 Z M 297.675781 179.070312 " fill-opacity="1" fill-rule="nonzero"/><path fill="#4c2f2b" d="M 308.804688 169.066406 C 310.214844 167.199219 311.992188 165.621094 314 164.417969 C 314.5625 164.082031 315.144531 163.777344 315.746094 163.507812 C 315.886719 163.445312 315.761719 163.234375 315.621094 163.296875 C 313.464844 164.277344 311.507812 165.691406 309.878906 167.410156 C 309.421875 167.894531 308.992188 168.40625 308.585938 168.941406 C 308.5 169.066406 308.710938 169.191406 308.804688 169.066406 Z M 308.804688 169.066406 " fill-opacity="1" fill-rule="nonzero"/><path fill="#4c2f2b" d="M 307.519531 175.988281 C 307.511719 178.554688 307.628906 181.128906 307.871094 183.675781 C 307.941406 184.398438 308.019531 185.128906 308.105469 185.851562 C 308.121094 186.007812 308.371094 186.007812 308.347656 185.851562 C 308.035156 183.300781 307.847656 180.734375 307.785156 178.167969 C 307.769531 177.4375 307.761719 176.707031 307.761719 175.988281 C 307.769531 175.828125 307.519531 175.828125 307.519531 175.988281 Z M 307.519531 175.988281 " fill-opacity="1" fill-rule="nonzero"/><path fill="#4c2f2b" d="M 337.914062 163 C 337.390625 162.222656 336.542969 161.734375 335.648438 161.5 C 334.535156 161.210938 333.367188 161.296875 332.242188 161.382812 C 332.085938 161.398438 332.085938 161.640625 332.242188 161.625 C 334.105469 161.476562 336.503906 161.359375 337.703125 163.117188 C 337.789062 163.25 338 163.125 337.914062 163 Z M 337.914062 163 " fill-opacity="1" fill-rule="nonzero"/><path fill="#4c2f2b" d="M 316.65625 181.480469 C 316.5 183.253906 316.890625 185.058594 317.753906 186.621094 C 317.832031 186.761719 318.042969 186.636719 317.964844 186.496094 C 317.125 184.972656 316.75 183.214844 316.90625 181.480469 C 316.914062 181.324219 316.671875 181.324219 316.65625 181.480469 Z M 316.65625 181.480469 " fill-opacity="1" fill-rule="nonzero"/><path fill="#4c2f2b" d="M 308.617188 172.132812 C 310.097656 171.472656 311.726562 171.199219 313.339844 171.316406 C 313.496094 171.324219 313.496094 171.082031 313.339844 171.074219 C 311.679688 170.949219 310.011719 171.246094 308.492188 171.921875 C 308.347656 171.984375 308.476562 172.195312 308.617188 172.132812 Z M 308.617188 172.132812 " fill-opacity="1" fill-rule="nonzero"/><path fill="#4c2f2b" d="M 308.554688 174.152344 C 309.871094 175.664062 311.796875 176.402344 313.695312 176.90625 C 314.25 177.054688 314.8125 177.179688 315.371094 177.304688 C 315.527344 177.335938 315.589844 177.101562 315.433594 177.070312 C 313.542969 176.644531 311.570312 176.191406 309.957031 175.070312 C 309.5 174.753906 309.085938 174.386719 308.726562 173.96875 C 308.625 173.859375 308.453125 174.03125 308.554688 174.152344 Z M 308.554688 174.152344 " fill-opacity="1" fill-rule="nonzero"/><path fill="#4c2f2b" d="M 310.464844 186.550781 C 310.449219 188.808594 311.078125 191.0625 312.25 192.984375 C 312.582031 193.527344 312.957031 194.042969 313.371094 194.523438 C 313.472656 194.640625 313.644531 194.46875 313.542969 194.351562 C 312.109375 192.671875 311.179688 190.589844 310.839844 188.410156 C 310.746094 187.796875 310.707031 187.167969 310.707031 186.550781 C 310.714844 186.394531 310.472656 186.394531 310.464844 186.550781 Z M 310.464844 186.550781 " fill-opacity="1" fill-rule="nonzero"/><path fill="#4c2f2b" d="M 321.632812 167.683594 C 322.964844 167.371094 324.390625 167.503906 325.644531 168.0625 C 325.785156 168.125 325.910156 167.910156 325.769531 167.847656 C 324.453125 167.261719 322.972656 167.117188 321.570312 167.449219 C 321.410156 167.488281 321.472656 167.722656 321.632812 167.683594 Z M 321.632812 167.683594 " fill-opacity="1" fill-rule="nonzero"/><path fill="#4c2f2b" d="M 292.191406 194.367188 C 292.757812 196.507812 292.90625 198.746094 292.621094 200.941406 C 292.597656 201.097656 292.851562 201.097656 292.867188 200.941406 C 293.148438 198.722656 293 196.460938 292.425781 194.296875 C 292.386719 194.152344 292.152344 194.21875 292.191406 194.367188 Z M 292.191406 194.367188 " fill-opacity="1" fill-rule="nonzero"/><path fill="#232f47" d="M 306.148438 293.136719 C 306.242188 296.285156 306.390625 299.421875 306.59375 302.5625 C 306.804688 305.703125 307.070312 308.832031 307.394531 311.964844 C 307.574219 313.722656 307.777344 315.472656 307.996094 317.222656 C 308.011719 317.378906 308.261719 317.378906 308.238281 317.222656 C 307.847656 314.097656 307.511719 310.976562 307.238281 307.84375 C 306.960938 304.710938 306.742188 301.574219 306.59375 298.433594 C 306.507812 296.667969 306.4375 294.910156 306.390625 293.144531 C 306.390625 292.980469 306.148438 292.980469 306.148438 293.136719 Z M 306.148438 293.136719 " fill-opacity="1" fill-rule="nonzero"/><path fill="#232f47" d="M 306.671875 298.089844 C 308.253906 297.703125 309.703125 296.871094 310.839844 295.703125 C 310.949219 295.59375 310.777344 295.414062 310.667969 295.53125 C 309.5625 296.667969 308.152344 297.476562 306.609375 297.855469 C 306.453125 297.886719 306.515625 298.121094 306.671875 298.089844 Z M 306.671875 298.089844 " fill-opacity="1" fill-rule="nonzero"/><path fill="#232f47" d="M 289.574219 314.726562 C 290.335938 315.394531 291.101562 316.050781 291.855469 316.726562 C 292.527344 317.332031 293.179688 317.984375 293.601562 318.800781 C 293.671875 318.941406 293.882812 318.816406 293.8125 318.671875 C 293.382812 317.863281 292.742188 317.199219 292.066406 316.59375 C 291.304688 315.902344 290.523438 315.234375 289.746094 314.554688 C 289.628906 314.445312 289.457031 314.625 289.574219 314.726562 Z M 289.574219 314.726562 " fill-opacity="1" fill-rule="nonzero"/><path fill="#232f47" d="M 288.335938 306.683594 C 289.699219 304.101562 291.707031 301.878906 294.136719 300.261719 C 294.816406 299.808594 295.539062 299.398438 296.273438 299.046875 C 296.414062 298.976562 296.289062 298.765625 296.148438 298.835938 C 293.492188 300.105469 291.179688 302.042969 289.449219 304.421875 C 288.957031 305.097656 288.507812 305.8125 288.125 306.554688 C 288.046875 306.699219 288.257812 306.824219 288.335938 306.683594 Z M 288.335938 306.683594 " fill-opacity="1" fill-rule="nonzero"/><path fill="#232f47" d="M 287.96875 303.621094 C 288.210938 303.167969 288.601562 302.8125 288.964844 302.460938 C 289.339844 302.097656 289.714844 301.738281 290.101562 301.386719 C 290.882812 300.671875 291.699219 299.988281 292.527344 299.328125 C 292.65625 299.234375 292.480469 299.0625 292.355469 299.15625 C 291.511719 299.824219 290.679688 300.523438 289.878906 301.25 C 289.480469 301.613281 289.089844 301.988281 288.707031 302.367188 C 288.351562 302.710938 287.984375 303.054688 287.757812 303.496094 C 287.6875 303.636719 287.898438 303.761719 287.96875 303.621094 Z M 287.96875 303.621094 " fill-opacity="1" fill-rule="nonzero"/><path fill="#232f47" d="M 288.039062 297.6875 C 288.304688 297.972656 288.769531 297.925781 289.121094 297.910156 C 289.558594 297.894531 289.988281 297.828125 290.414062 297.726562 C 291.257812 297.523438 292.066406 297.15625 292.773438 296.644531 C 292.898438 296.550781 292.78125 296.339844 292.648438 296.433594 C 291.996094 296.902344 291.265625 297.25 290.5 297.453125 C 290.117188 297.554688 289.722656 297.625 289.324219 297.648438 C 289.136719 297.664062 288.941406 297.671875 288.753906 297.664062 C 288.5625 297.664062 288.351562 297.65625 288.210938 297.507812 C 288.101562 297.40625 287.929688 297.578125 288.039062 297.6875 Z M 288.039062 297.6875 " fill-opacity="1" fill-rule="nonzero"/><path fill="#232f47" d="M 295.851562 305.511719 C 296.570312 303.984375 297.449219 302.53125 298.460938 301.171875 C 299.480469 299.816406 300.640625 298.566406 301.910156 297.445312 C 302.628906 296.808594 303.382812 296.222656 304.171875 295.671875 C 304.296875 295.585938 304.179688 295.367188 304.046875 295.460938 C 302.644531 296.433594 301.335938 297.546875 300.160156 298.789062 C 298.984375 300.027344 297.929688 301.386719 297.027344 302.835938 C 296.507812 303.660156 296.046875 304.515625 295.632812 305.394531 C 295.578125 305.527344 295.789062 305.652344 295.851562 305.511719 Z M 295.851562 305.511719 " fill-opacity="1" fill-rule="nonzero"/><path fill="#232f47" d="M 288.054688 311.554688 C 288.746094 312.269531 289.566406 312.84375 290.476562 313.234375 C 291.449219 313.660156 292.480469 313.839844 293.539062 313.871094 C 294.652344 313.894531 295.773438 313.839844 296.878906 313.738281 C 297.945312 313.636719 299.007812 313.46875 300.050781 313.203125 C 301.226562 312.90625 302.363281 312.472656 303.421875 311.886719 C 303.5625 311.808594 303.4375 311.59375 303.296875 311.671875 C 301.453125 312.695312 299.386719 313.210938 297.308594 313.445312 C 296.25 313.566406 295.175781 313.621094 294.113281 313.636719 C 293.039062 313.644531 291.980469 313.550781 290.96875 313.179688 C 289.933594 312.804688 288.996094 312.183594 288.234375 311.390625 C 288.117188 311.265625 287.945312 311.4375 288.054688 311.554688 Z M 288.054688 311.554688 " fill-opacity="1" fill-rule="nonzero"/><path fill="#232f47" d="M 311.414062 311.367188 C 313.207031 312.703125 315.152344 313.824219 317.210938 314.710938 C 317.351562 314.773438 317.476562 314.5625 317.335938 314.5 C 315.285156 313.613281 313.339844 312.488281 311.539062 311.15625 C 311.414062 311.0625 311.289062 311.273438 311.414062 311.367188 Z M 311.414062 311.367188 " fill-opacity="1" fill-rule="nonzero"/><path fill="#232f47" d="M 312.980469 309.765625 C 312.972656 309.8125 313.066406 309.828125 313.105469 309.84375 C 313.191406 309.875 313.269531 309.914062 313.355469 309.945312 C 313.488281 310 313.621094 310.066406 313.757812 310.128906 C 314.039062 310.261719 314.320312 310.402344 314.59375 310.550781 C 315.136719 310.847656 315.652344 311.1875 316.144531 311.554688 C 316.269531 311.648438 316.398438 311.4375 316.269531 311.34375 C 315.683594 310.902344 315.058594 310.511719 314.398438 310.175781 C 314.078125 310.007812 313.757812 309.851562 313.425781 309.71875 C 313.277344 309.65625 312.800781 309.382812 312.738281 309.703125 C 312.714844 309.851562 312.949219 309.921875 312.980469 309.765625 Z M 312.980469 309.765625 " fill-opacity="1" fill-rule="nonzero"/><path fill="#232f47" d="M 314.953125 306.273438 C 316.367188 307.9375 317.714844 309.648438 318.992188 311.414062 C 319.085938 311.539062 319.28125 311.429688 319.203125 311.289062 C 318.113281 309.226562 317.949219 306.824219 316.992188 304.703125 C 316.734375 304.125 316.40625 303.582031 316.003906 303.089844 C 315.902344 302.960938 315.730469 303.144531 315.832031 303.261719 C 317.296875 305.066406 317.5625 307.476562 318.253906 309.625 C 318.449219 310.238281 318.683594 310.839844 318.992188 311.414062 C 319.0625 311.375 319.132812 311.328125 319.203125 311.289062 C 317.910156 309.507812 316.554688 307.773438 315.128906 306.101562 C 315.027344 305.984375 314.851562 306.15625 314.953125 306.273438 Z M 314.953125 306.273438 " fill-opacity="1" fill-rule="nonzero"/><path fill="#232f47" d="M 322.414062 306.546875 C 323.402344 306.808594 324.398438 307.027344 325.398438 307.207031 C 326.355469 307.378906 327.304688 307.46875 328.269531 307.292969 C 328.792969 307.191406 329.300781 307.027344 329.796875 306.800781 C 329.9375 306.738281 329.8125 306.523438 329.671875 306.589844 C 328.566406 307.105469 327.351562 307.253906 326.152344 307.082031 C 324.914062 306.910156 323.691406 306.628906 322.484375 306.304688 C 322.328125 306.273438 322.265625 306.507812 322.414062 306.546875 Z M 322.414062 306.546875 " fill-opacity="1" fill-rule="nonzero"/><path fill="#f2ae40" d="M 315.394531 207.800781 C 317.585938 209.535156 319.6875 211.378906 321.695312 213.335938 C 322.703125 214.316406 323.683594 215.328125 324.640625 216.355469 C 325.597656 217.390625 326.503906 218.464844 327.445312 219.519531 C 328.503906 220.710938 329.664062 221.792969 330.941406 222.75 C 331.066406 222.84375 331.191406 222.632812 331.066406 222.539062 C 329.929688 221.691406 328.886719 220.734375 327.929688 219.691406 C 326.96875 218.640625 326.058594 217.539062 325.09375 216.488281 C 323.222656 214.441406 321.238281 212.488281 319.164062 210.640625 C 317.996094 209.597656 316.789062 208.59375 315.566406 207.621094 C 315.441406 207.527344 315.269531 207.699219 315.394531 207.800781 Z M 315.394531 207.800781 " fill-opacity="1" fill-rule="nonzero"/><path fill="#f2ae40" d="M 331.339844 222.4375 C 330.785156 220.167969 330.570312 217.824219 330.695312 215.492188 C 330.703125 215.335938 330.460938 215.335938 330.453125 215.492188 C 330.320312 217.847656 330.539062 220.214844 331.105469 222.507812 C 331.136719 222.65625 331.371094 222.59375 331.339844 222.4375 Z M 331.339844 222.4375 " fill-opacity="1" fill-rule="nonzero"/><path fill="#f2ae40" d="M 332.9375 219.457031 C 334.003906 220.765625 335.070312 222.085938 336.136719 223.394531 C 336.238281 223.519531 336.410156 223.339844 336.308594 223.222656 C 335.242188 221.910156 334.175781 220.59375 333.109375 219.28125 C 333.015625 219.15625 332.84375 219.328125 332.9375 219.457031 Z M 332.9375 219.457031 " fill-opacity="1" fill-rule="nonzero"/><path fill="#f2ae40" d="M 319.53125 251.097656 C 321.503906 252.085938 323.644531 252.691406 325.808594 253.113281 C 326.90625 253.324219 328.007812 253.5 329.121094 253.648438 C 330.257812 253.804688 331.402344 253.960938 332.546875 254.085938 C 333.886719 254.234375 335.265625 254.347656 336.605469 254.195312 C 336.761719 254.179688 336.761719 253.929688 336.605469 253.953125 C 335.429688 254.085938 334.230469 254.007812 333.054688 253.898438 C 331.886719 253.789062 330.726562 253.625 329.570312 253.46875 C 327.398438 253.167969 325.21875 252.832031 323.105469 252.21875 C 321.914062 251.875 320.753906 251.441406 319.648438 250.886719 C 319.515625 250.816406 319.390625 251.027344 319.53125 251.097656 Z M 319.53125 251.097656 " fill-opacity="1" fill-rule="nonzero"/><path fill="#f2ae40" d="M 297.113281 236.8125 C 297.824219 239.316406 298.507812 241.835938 299.148438 244.355469 C 299.792969 246.882812 300.402344 249.410156 300.976562 251.953125 C 301.296875 253.378906 301.609375 254.816406 301.910156 256.253906 C 301.941406 256.410156 302.175781 256.339844 302.144531 256.191406 C 301.609375 253.640625 301.039062 251.097656 300.433594 248.5625 C 299.832031 246.027344 299.1875 243.5 298.515625 240.988281 C 298.132812 239.570312 297.738281 238.15625 297.339844 236.742188 C 297.308594 236.59375 297.074219 236.65625 297.113281 236.8125 Z M 297.113281 236.8125 " fill-opacity="1" fill-rule="nonzero"/><path fill="#f2ae40" d="M 307.574219 260.625 C 307.574219 260.59375 307.574219 260.570312 307.574219 260.539062 C 307.574219 260.523438 307.574219 260.507812 307.566406 260.492188 C 307.558594 260.476562 307.550781 260.460938 307.542969 260.453125 C 307.535156 260.4375 307.519531 260.429688 307.503906 260.429688 C 307.488281 260.421875 307.472656 260.421875 307.457031 260.421875 C 307.449219 260.421875 307.433594 260.421875 307.425781 260.429688 C 307.402344 260.4375 307.386719 260.445312 307.371094 260.460938 C 307.363281 260.46875 307.355469 260.476562 307.355469 260.484375 C 307.347656 260.5 307.339844 260.523438 307.339844 260.546875 C 307.339844 260.578125 307.339844 260.601562 307.339844 260.632812 C 307.339844 260.648438 307.339844 260.664062 307.347656 260.679688 C 307.355469 260.695312 307.363281 260.710938 307.371094 260.71875 C 307.378906 260.734375 307.394531 260.742188 307.410156 260.742188 C 307.425781 260.75 307.441406 260.75 307.457031 260.75 C 307.464844 260.75 307.480469 260.75 307.488281 260.742188 C 307.511719 260.734375 307.527344 260.726562 307.542969 260.710938 C 307.550781 260.703125 307.558594 260.695312 307.558594 260.6875 C 307.566406 260.671875 307.574219 260.648438 307.574219 260.625 C 307.574219 260.59375 307.574219 260.570312 307.574219 260.539062 C 307.574219 260.523438 307.574219 260.507812 307.566406 260.492188 C 307.558594 260.476562 307.550781 260.460938 307.542969 260.453125 C 307.535156 260.4375 307.519531 260.429688 307.503906 260.429688 C 307.488281 260.421875 307.472656 260.421875 307.457031 260.421875 C 307.449219 260.421875 307.433594 260.421875 307.425781 260.429688 C 307.402344 260.4375 307.386719 260.445312 307.371094 260.460938 C 307.363281 260.46875 307.355469 260.476562 307.355469 260.484375 C 307.347656 260.5 307.339844 260.523438 307.339844 260.546875 C 307.339844 260.578125 307.339844 260.601562 307.339844 260.632812 C 307.339844 260.648438 307.339844 260.664062 307.347656 260.679688 C 307.355469 260.695312 307.363281 260.710938 307.371094 260.71875 C 307.378906 260.734375 307.394531 260.742188 307.410156 260.742188 C 307.425781 260.75 307.441406 260.75 307.457031 260.75 C 307.464844 260.75 307.480469 260.75 307.488281 260.742188 C 307.511719 260.734375 307.527344 260.726562 307.542969 260.710938 C 307.550781 260.703125 307.558594 260.695312 307.558594 260.6875 C 307.566406 260.671875 307.574219 260.648438 307.574219 260.625 Z M 307.574219 260.625 " fill-opacity="1" fill-rule="nonzero"/><path fill="#f2ae40" d="M 307.714844 260.625 C 307.722656 260.53125 307.730469 260.4375 307.730469 260.332031 C 307.691406 260.371094 307.652344 260.414062 307.605469 260.460938 C 308.515625 260.492188 309.351562 260.128906 310.136719 259.707031 C 310.957031 259.257812 311.742188 258.757812 312.613281 258.402344 C 314.335938 257.710938 316.214844 257.453125 318.066406 257.640625 C 319.109375 257.75 320.132812 258.003906 321.113281 258.394531 C 321.261719 258.457031 321.324219 258.214844 321.175781 258.160156 C 319.453125 257.460938 317.554688 257.210938 315.707031 257.390625 C 314.796875 257.484375 313.890625 257.679688 313.027344 257.980469 C 312.148438 258.285156 311.34375 258.726562 310.535156 259.195312 C 309.632812 259.714844 308.679688 260.238281 307.613281 260.207031 C 307.542969 260.207031 307.496094 260.261719 307.488281 260.332031 C 307.480469 260.429688 307.472656 260.523438 307.472656 260.625 C 307.457031 260.78125 307.699219 260.78125 307.714844 260.625 Z M 307.714844 260.625 " fill-opacity="1" fill-rule="nonzero"/><path fill="#f2ae40" d="M 327.3125 282.972656 C 328.085938 285.320312 328.253906 287.855469 327.796875 290.289062 C 327.671875 290.972656 327.492188 291.644531 327.265625 292.304688 C 327.210938 292.453125 327.453125 292.515625 327.5 292.367188 C 328.308594 290.003906 328.496094 287.441406 328.0625 284.984375 C 327.9375 284.277344 327.765625 283.585938 327.539062 282.910156 C 327.5 282.761719 327.265625 282.824219 327.3125 282.972656 Z M 327.3125 282.972656 " fill-opacity="1" fill-rule="nonzero"/><path fill="#f2ae40" d="M 318.238281 285.34375 C 320.179688 285.625 321.511719 287.289062 322.640625 288.757812 C 322.734375 288.882812 322.910156 288.710938 322.8125 288.585938 C 321.664062 287.09375 320.292969 285.40625 318.300781 285.109375 C 318.144531 285.085938 318.082031 285.320312 318.238281 285.34375 Z M 318.238281 285.34375 " fill-opacity="1" fill-rule="nonzero"/><path fill="#f2ae40" d="M 301.445312 287.367188 C 302.261719 287.109375 303.097656 287.296875 303.890625 287.527344 C 304.304688 287.644531 304.714844 287.777344 305.128906 287.886719 C 305.519531 287.980469 305.921875 288.050781 306.320312 288.105469 C 307.160156 288.214844 308.011719 288.261719 308.84375 288.414062 C 309.65625 288.5625 310.425781 288.835938 311.140625 289.261719 C 311.929688 289.722656 312.644531 290.304688 313.347656 290.886719 C 313.464844 290.988281 313.644531 290.8125 313.519531 290.710938 C 312.242188 289.667969 310.925781 288.632812 309.28125 288.253906 C 308.4375 288.058594 307.558594 288.003906 306.695312 287.910156 C 306.265625 287.863281 305.828125 287.800781 305.402344 287.707031 C 304.988281 287.613281 304.574219 287.488281 304.164062 287.359375 C 303.265625 287.09375 302.300781 286.84375 301.375 287.132812 C 301.226562 287.179688 301.289062 287.417969 301.445312 287.367188 Z M 301.445312 287.367188 " fill-opacity="1" fill-rule="nonzero"/><path fill="#f2ae40" d="M 296.515625 276.28125 C 295.199219 277.355469 294.066406 278.65625 293.164062 280.101562 C 292.261719 281.546875 291.589844 283.140625 291.1875 284.796875 C 290.960938 285.730469 290.820312 286.6875 290.773438 287.652344 C 290.765625 287.808594 291.007812 287.808594 291.015625 287.652344 C 291.101562 285.980469 291.472656 284.324219 292.089844 282.769531 C 292.710938 281.199219 293.585938 279.734375 294.675781 278.4375 C 295.289062 277.714844 295.960938 277.058594 296.691406 276.460938 C 296.816406 276.359375 296.644531 276.1875 296.515625 276.28125 Z M 296.515625 276.28125 " fill-opacity="1" fill-rule="nonzero"/><path fill="#f2ae40" d="M 331.753906 264.148438 C 330.878906 265.945312 330.328125 267.882812 330.132812 269.875 C 330.078125 270.449219 330.046875 271.03125 330.054688 271.601562 C 330.054688 271.761719 330.296875 271.761719 330.296875 271.601562 C 330.289062 269.640625 330.632812 267.679688 331.308594 265.835938 C 331.503906 265.300781 331.722656 264.785156 331.972656 264.273438 C 332.035156 264.125 331.824219 264.007812 331.753906 264.148438 Z M 331.753906 264.148438 " fill-opacity="1" fill-rule="nonzero"/><path fill="#f2ae40" d="M 310.894531 233.335938 C 312.242188 231.769531 313.347656 230.003906 314.171875 228.101562 C 314.398438 227.570312 314.609375 227.035156 314.789062 226.488281 C 314.835938 226.335938 314.601562 226.273438 314.554688 226.425781 C 313.914062 228.339844 312.980469 230.152344 311.804688 231.792969 C 311.46875 232.261719 311.109375 232.726562 310.722656 233.164062 C 310.621094 233.28125 310.792969 233.457031 310.894531 233.335938 Z M 310.894531 233.335938 " fill-opacity="1" fill-rule="nonzero"/><path fill="#f2ae40" d="M 313.253906 232.992188 C 312.699219 235.101562 312.472656 237.300781 312.597656 239.476562 C 312.628906 240.085938 312.691406 240.691406 312.777344 241.304688 C 312.800781 241.460938 313.035156 241.390625 313.011719 241.242188 C 312.707031 239.113281 312.738281 236.941406 313.105469 234.820312 C 313.207031 234.230469 313.332031 233.644531 313.488281 233.0625 C 313.527344 232.90625 313.292969 232.835938 313.253906 232.992188 Z M 313.253906 232.992188 " fill-opacity="1" fill-rule="nonzero"/><g fill="#000000" fill-opacity="1"><g transform="translate(204.586971, 624.52086)"><g><path d="M 13.164062 -35.175781 C 13.164062 -37.085938 13.164062 -38.945312 13.164062 -40.855469 C 13.109375 -42.113281 13.054688 -43.421875 12.890625 -44.679688 C 12.835938 -45.609375 12.5625 -45.714844 11.6875 -45.609375 C 10.761719 -45.445312 9.886719 -45.226562 8.957031 -45.117188 C 8.191406 -44.953125 7.8125 -44.515625 7.703125 -43.75 C 7.59375 -42.496094 7.375 -41.238281 7.265625 -39.925781 C 6.828125 -35.339844 6.9375 -30.75 6.882812 -26.21875 C 6.882812 -23.703125 6.9375 -21.246094 6.9375 -18.789062 C 6.9375 -17.207031 6.9375 -17.207031 5.351562 -17.585938 C 4.804688 -17.695312 4.261719 -17.859375 3.714844 -18.023438 C 3.386719 -18.078125 3.113281 -18.078125 2.949219 -17.75 C 2.457031 -16.988281 2.730469 -16.222656 3.550781 -15.949219 C 4.425781 -15.675781 5.242188 -15.402344 6.117188 -15.238281 C 6.882812 -15.074219 7.15625 -14.636719 7.15625 -13.929688 C 7.15625 -13.601562 7.210938 -13.21875 7.210938 -12.835938 C 7.484375 -9.175781 7.703125 -5.460938 7.972656 -1.746094 C 8.027344 -0.820312 8.191406 0.164062 8.300781 1.148438 C 8.410156 1.910156 8.847656 2.347656 9.667969 2.238281 C 10.542969 2.128906 11.414062 2.074219 12.289062 1.964844 C 13.4375 1.855469 13.601562 1.691406 13.601562 0.492188 C 13.601562 -0.710938 13.4375 -1.964844 13.4375 -3.167969 C 13.4375 -4.96875 13.4375 -6.71875 13.4375 -8.683594 C 13.765625 -8.191406 13.984375 -7.867188 14.148438 -7.484375 C 15.511719 -5.1875 16.824219 -2.894531 18.679688 -0.875 C 22.175781 2.839844 27.746094 2.457031 30.640625 -1.746094 C 30.96875 -2.183594 31.242188 -2.675781 31.515625 -3.167969 C 32.773438 -5.625 33.644531 -8.191406 34.246094 -10.871094 C 34.464844 -11.6875 34.628906 -12.507812 34.792969 -13.273438 C 34.847656 -13.710938 34.683594 -13.929688 34.246094 -14.039062 C 32.9375 -14.308594 32.609375 -14.09375 32.28125 -12.835938 C 31.734375 -10.542969 31.078125 -8.355469 30.148438 -6.226562 C 29.441406 -4.535156 28.675781 -2.894531 27.472656 -1.53125 C 26.109375 0 25.070312 0.0546875 23.597656 -1.421875 C 23.378906 -1.636719 23.160156 -1.910156 22.996094 -2.128906 C 22.011719 -3.332031 21.136719 -4.644531 20.375 -5.953125 C 18.789062 -8.792969 17.207031 -11.632812 15.238281 -14.199219 C 15.074219 -14.363281 14.855469 -14.582031 15.019531 -14.910156 C 15.402344 -15.183594 15.894531 -15.183594 16.332031 -15.292969 C 20.863281 -16.441406 24.523438 -18.84375 27.417969 -22.503906 C 30.75 -26.710938 31.898438 -31.460938 30.859375 -36.703125 C 29.824219 -41.675781 24.796875 -44.132812 20.210938 -42.058594 C 18.734375 -41.402344 17.53125 -40.363281 16.441406 -39.164062 C 15.347656 -37.90625 14.417969 -36.59375 13.601562 -35.121094 C 13.4375 -35.175781 13.273438 -35.175781 13.164062 -35.175781 Z M 18.40625 -18.242188 C 17.152344 -17.476562 15.675781 -17.042969 14.199219 -16.769531 C 13.601562 -16.660156 13.273438 -16.824219 13.273438 -17.585938 C 13 -23.597656 13.601562 -29.386719 16.878906 -34.628906 C 18.078125 -36.59375 19.390625 -38.398438 21.300781 -39.761719 C 22.503906 -40.636719 23.160156 -40.582031 24.195312 -39.433594 C 24.632812 -39.054688 24.851562 -38.507812 25.125 -38.015625 C 26 -36.210938 26.21875 -34.300781 26.382812 -32.0625 C 25.78125 -26.492188 23.703125 -21.464844 18.40625 -18.242188 Z M 18.40625 -18.242188 "/></g></g></g><g fill="#000000" fill-opacity="1"><g transform="translate(236.10171, 624.52086)"><g><path d="M 16.550781 -15.238281 C 16.550781 -15.183594 16.550781 -15.128906 16.550781 -15.128906 C 16.496094 -15.074219 16.496094 -15.074219 16.441406 -15.074219 C 16.496094 -13.601562 16.332031 -12.179688 16.222656 -10.761719 C 16.003906 -7.046875 15.949219 -3.332031 16.441406 0.382812 C 16.660156 1.746094 16.988281 3.113281 17.476562 4.425781 C 18.078125 6.007812 19.226562 6.882812 20.972656 6.9375 C 22.722656 6.992188 24.085938 6.5 24.90625 4.804688 C 25.234375 4.042969 25.5625 3.277344 25.835938 2.511719 C 27.472656 -1.964844 28.730469 -6.609375 30.09375 -11.195312 C 30.695312 -13 30.640625 -13 28.730469 -13.164062 C 28.128906 -13.21875 27.746094 -13 27.582031 -12.453125 C 27.363281 -11.796875 27.089844 -11.195312 26.871094 -10.542969 C 25.5625 -6.445312 24.195312 -2.347656 22.832031 1.746094 C 22.613281 2.402344 22.449219 3.113281 21.847656 3.769531 C 21.574219 3.003906 21.464844 2.292969 21.464844 1.582031 C 21.410156 -0.0546875 21.355469 -1.691406 21.355469 -3.386719 C 21.410156 -10.050781 22.230469 -16.714844 22.503906 -23.378906 C 22.558594 -24.304688 22.558594 -25.234375 22.449219 -26.164062 C 22.339844 -26.871094 21.957031 -27.144531 21.300781 -27.089844 C 20.589844 -27.035156 19.882812 -26.925781 19.171875 -26.980469 C 18.1875 -27.035156 17.75 -26.601562 17.421875 -25.78125 C 16.277344 -22.886719 15.074219 -19.992188 13.929688 -17.042969 C 12.453125 -13.492188 11.085938 -9.886719 9.121094 -6.554688 C 8.792969 -6.0625 8.574219 -5.515625 8.136719 -5.132812 C 7.539062 -4.535156 7.046875 -4.589844 6.71875 -5.351562 C 6.28125 -6.335938 6.117188 -7.429688 6.007812 -8.519531 C 5.515625 -12.453125 5.789062 -16.386719 6.171875 -20.375 C 6.390625 -22.996094 6.5 -25.617188 6.609375 -28.238281 C 6.664062 -29.222656 6.554688 -29.332031 5.625 -29.277344 C 4.371094 -29.222656 3.167969 -29.113281 1.910156 -29.003906 C 1.53125 -28.949219 1.257812 -28.730469 1.203125 -28.347656 C 1.148438 -27.910156 1.039062 -27.527344 0.984375 -27.089844 C 0.273438 -21.738281 0.164062 -16.332031 0.382812 -10.925781 C 0.4375 -8.902344 0.765625 -6.828125 1.636719 -4.914062 C 2.128906 -3.988281 2.675781 -3.167969 3.660156 -2.675781 C 6.117188 -1.476562 9.339844 -2.238281 11.085938 -4.316406 C 11.90625 -5.351562 12.5625 -6.445312 13.054688 -7.648438 C 13.984375 -9.667969 14.855469 -11.6875 15.730469 -13.710938 C 15.949219 -14.148438 16.003906 -14.746094 16.441406 -15.019531 C 16.496094 -15.074219 16.496094 -15.183594 16.550781 -15.238281 Z M 16.550781 -15.238281 "/></g></g></g><g fill="#000000" fill-opacity="1"><g transform="translate(263.847791, 624.52086)"><g><path d="M 30.695312 -15.949219 C 29.769531 -16.167969 29.660156 -15.511719 29.441406 -14.910156 C 28.292969 -11.523438 27.035156 -8.136719 25.34375 -4.914062 C 24.796875 -3.878906 24.25 -2.839844 23.488281 -1.910156 C 23.050781 -1.367188 22.613281 -0.65625 21.792969 -0.820312 C 20.863281 -0.929688 20.917969 -1.855469 20.644531 -2.511719 C 20.589844 -2.675781 20.589844 -2.894531 20.535156 -3.113281 C 19.664062 -7.046875 20.046875 -10.980469 20.429688 -14.910156 C 20.644531 -17.042969 20.699219 -19.117188 20.480469 -21.246094 C 20.375 -22.722656 20.101562 -24.195312 19.335938 -25.5625 C 18.296875 -27.417969 16.496094 -28.238281 14.363281 -27.746094 C 12.398438 -27.308594 10.980469 -26.109375 9.777344 -24.578125 C 8.191406 -22.613281 7.046875 -20.429688 6.007812 -18.1875 C 5.789062 -17.75 5.679688 -17.261719 5.078125 -16.769531 C 5.078125 -17.421875 5.078125 -17.914062 5.078125 -18.40625 C 5.078125 -21.136719 5.078125 -23.867188 5.078125 -26.601562 C 5.078125 -26.980469 5.078125 -27.417969 5.023438 -27.855469 C 4.96875 -28.511719 4.644531 -28.839844 3.933594 -28.839844 C 3.003906 -28.785156 2.074219 -28.785156 1.148438 -28.785156 C 0.4375 -28.785156 0 -28.457031 -0.0546875 -27.746094 C -0.109375 -27.417969 -0.21875 -27.144531 -0.273438 -26.816406 C -1.421875 -19.992188 -1.746094 -13.109375 -1.421875 -6.171875 C -1.367188 -4.316406 -1.039062 -2.402344 -0.765625 -0.546875 C -0.546875 1.039062 -0.328125 1.148438 1.257812 1.039062 C 1.800781 0.984375 2.292969 0.984375 2.839844 0.929688 C 4.207031 0.929688 4.207031 0.875 4.480469 -0.492188 C 5.460938 -5.734375 6.71875 -10.871094 8.464844 -15.894531 C 9.558594 -19.007812 11.195312 -21.902344 13.273438 -24.46875 C 13.65625 -24.90625 14.039062 -25.5625 14.746094 -25.398438 C 15.566406 -25.234375 15.621094 -24.414062 15.730469 -23.8125 C 16.167969 -21.847656 16.332031 -19.882812 16.222656 -17.859375 C 16.058594 -14.148438 15.621094 -10.433594 15.839844 -6.71875 C 15.949219 -4.914062 16.222656 -3.113281 16.878906 -1.421875 C 17.261719 -0.492188 17.804688 0.382812 18.789062 0.875 C 20.644531 1.691406 23.433594 1.257812 24.90625 -0.0546875 C 25.507812 -0.65625 26.054688 -1.257812 26.492188 -1.964844 C 29.003906 -5.789062 30.53125 -10.050781 31.679688 -14.472656 C 31.953125 -15.511719 31.679688 -15.675781 30.695312 -15.949219 Z M 30.695312 -15.949219 "/></g></g></g><g fill="#000000" fill-opacity="1"><g transform="translate(292.904704, 624.52086)"><g><path d="M 30.695312 -15.949219 C 29.769531 -16.167969 29.660156 -15.511719 29.441406 -14.910156 C 28.292969 -11.523438 27.035156 -8.136719 25.34375 -4.914062 C 24.796875 -3.878906 24.25 -2.839844 23.488281 -1.910156 C 23.050781 -1.367188 22.613281 -0.65625 21.792969 -0.820312 C 20.863281 -0.929688 20.917969 -1.855469 20.644531 -2.511719 C 20.589844 -2.675781 20.589844 -2.894531 20.535156 -3.113281 C 19.664062 -7.046875 20.046875 -10.980469 20.429688 -14.910156 C 20.644531 -17.042969 20.699219 -19.117188 20.480469 -21.246094 C 20.375 -22.722656 20.101562 -24.195312 19.335938 -25.5625 C 18.296875 -27.417969 16.496094 -28.238281 14.363281 -27.746094 C 12.398438 -27.308594 10.980469 -26.109375 9.777344 -24.578125 C 8.191406 -22.613281 7.046875 -20.429688 6.007812 -18.1875 C 5.789062 -17.75 5.679688 -17.261719 5.078125 -16.769531 C 5.078125 -17.421875 5.078125 -17.914062 5.078125 -18.40625 C 5.078125 -21.136719 5.078125 -23.867188 5.078125 -26.601562 C 5.078125 -26.980469 5.078125 -27.417969 5.023438 -27.855469 C 4.96875 -28.511719 4.644531 -28.839844 3.933594 -28.839844 C 3.003906 -28.785156 2.074219 -28.785156 1.148438 -28.785156 C 0.4375 -28.785156 0 -28.457031 -0.0546875 -27.746094 C -0.109375 -27.417969 -0.21875 -27.144531 -0.273438 -26.816406 C -1.421875 -19.992188 -1.746094 -13.109375 -1.421875 -6.171875 C -1.367188 -4.316406 -1.039062 -2.402344 -0.765625 -0.546875 C -0.546875 1.039062 -0.328125 1.148438 1.257812 1.039062 C 1.800781 0.984375 2.292969 0.984375 2.839844 0.929688 C 4.207031 0.929688 4.207031 0.875 4.480469 -0.492188 C 5.460938 -5.734375 6.71875 -10.871094 8.464844 -15.894531 C 9.558594 -19.007812 11.195312 -21.902344 13.273438 -24.46875 C 13.65625 -24.90625 14.039062 -25.5625 14.746094 -25.398438 C 15.566406 -25.234375 15.621094 -24.414062 15.730469 -23.8125 C 16.167969 -21.847656 16.332031 -19.882812 16.222656 -17.859375 C 16.058594 -14.148438 15.621094 -10.433594 15.839844 -6.71875 C 15.949219 -4.914062 16.222656 -3.113281 16.878906 -1.421875 C 17.261719 -0.492188 17.804688 0.382812 18.789062 0.875 C 20.644531 1.691406 23.433594 1.257812 24.90625 -0.0546875 C 25.507812 -0.65625 26.054688 -1.257812 26.492188 -1.964844 C 29.003906 -5.789062 30.53125 -10.050781 31.679688 -14.472656 C 31.953125 -15.511719 31.679688 -15.675781 30.695312 -15.949219 Z M 30.695312 -15.949219 "/></g></g></g><g fill="#000000" fill-opacity="1"><g transform="translate(321.961618, 624.52086)"><g><path d="M 16.058594 -15.949219 C 15.128906 -16.277344 15.019531 -16.277344 14.472656 -15.292969 C 14.417969 -15.128906 14.308594 -14.910156 14.199219 -14.746094 C 12.398438 -11.195312 10.597656 -7.703125 8.792969 -4.152344 C 8.464844 -3.496094 8.136719 -2.894531 7.757812 -2.292969 C 7.210938 -1.476562 6.71875 -1.53125 6.226562 -2.347656 C 5.789062 -3.167969 5.515625 -4.097656 5.351562 -4.96875 C 4.96875 -7.320312 4.96875 -9.722656 4.859375 -12.070312 C 4.699219 -16.386719 5.132812 -20.699219 5.460938 -25.015625 C 5.625 -27.144531 5.570312 -27.199219 3.332031 -27.253906 C 3.222656 -27.253906 3.058594 -27.253906 2.894531 -27.253906 C 2.347656 -27.308594 2.019531 -27.089844 1.855469 -26.546875 C 1.691406 -26.109375 1.476562 -25.726562 1.367188 -25.234375 C 0.328125 -21.191406 -0.328125 -17.097656 -0.328125 -12.617188 C -0.382812 -10.542969 -0.21875 -8.191406 0.328125 -5.84375 C 0.710938 -4.371094 1.203125 -3.003906 2.128906 -1.800781 C 4.425781 1.148438 9.175781 0.875 11.03125 -2.347656 C 11.523438 -3.222656 11.960938 -4.207031 12.34375 -5.132812 C 13.710938 -8.246094 15.074219 -11.359375 16.441406 -14.472656 C 16.660156 -15.074219 16.933594 -15.621094 16.058594 -15.949219 Z M 4.535156 -30.148438 C 6.007812 -30.203125 6.882812 -31.023438 6.882812 -32.390625 C 6.882812 -33.699219 5.953125 -34.519531 4.371094 -34.464844 C 3.167969 -34.464844 2.183594 -33.316406 2.238281 -32.007812 C 2.238281 -30.75 3.003906 -30.148438 4.535156 -30.148438 Z M 4.535156 -30.148438 "/></g></g></g><g fill="#000000" fill-opacity="1"><g transform="translate(336.544689, 624.52086)"><g><path d="M 30.695312 -15.949219 C 29.769531 -16.167969 29.660156 -15.511719 29.441406 -14.910156 C 28.292969 -11.523438 27.035156 -8.136719 25.34375 -4.914062 C 24.796875 -3.878906 24.25 -2.839844 23.488281 -1.910156 C 23.050781 -1.367188 22.613281 -0.65625 21.792969 -0.820312 C 20.863281 -0.929688 20.917969 -1.855469 20.644531 -2.511719 C 20.589844 -2.675781 20.589844 -2.894531 20.535156 -3.113281 C 19.664062 -7.046875 20.046875 -10.980469 20.429688 -14.910156 C 20.644531 -17.042969 20.699219 -19.117188 20.480469 -21.246094 C 20.375 -22.722656 20.101562 -24.195312 19.335938 -25.5625 C 18.296875 -27.417969 16.496094 -28.238281 14.363281 -27.746094 C 12.398438 -27.308594 10.980469 -26.109375 9.777344 -24.578125 C 8.191406 -22.613281 7.046875 -20.429688 6.007812 -18.1875 C 5.789062 -17.75 5.679688 -17.261719 5.078125 -16.769531 C 5.078125 -17.421875 5.078125 -17.914062 5.078125 -18.40625 C 5.078125 -21.136719 5.078125 -23.867188 5.078125 -26.601562 C 5.078125 -26.980469 5.078125 -27.417969 5.023438 -27.855469 C 4.96875 -28.511719 4.644531 -28.839844 3.933594 -28.839844 C 3.003906 -28.785156 2.074219 -28.785156 1.148438 -28.785156 C 0.4375 -28.785156 0 -28.457031 -0.0546875 -27.746094 C -0.109375 -27.417969 -0.21875 -27.144531 -0.273438 -26.816406 C -1.421875 -19.992188 -1.746094 -13.109375 -1.421875 -6.171875 C -1.367188 -4.316406 -1.039062 -2.402344 -0.765625 -0.546875 C -0.546875 1.039062 -0.328125 1.148438 1.257812 1.039062 C 1.800781 0.984375 2.292969 0.984375 2.839844 0.929688 C 4.207031 0.929688 4.207031 0.875 4.480469 -0.492188 C 5.460938 -5.734375 6.71875 -10.871094 8.464844 -15.894531 C 9.558594 -19.007812 11.195312 -21.902344 13.273438 -24.46875 C 13.65625 -24.90625 14.039062 -25.5625 14.746094 -25.398438 C 15.566406 -25.234375 15.621094 -24.414062 15.730469 -23.8125 C 16.167969 -21.847656 16.332031 -19.882812 16.222656 -17.859375 C 16.058594 -14.148438 15.621094 -10.433594 15.839844 -6.71875 C 15.949219 -4.914062 16.222656 -3.113281 16.878906 -1.421875 C 17.261719 -0.492188 17.804688 0.382812 18.789062 0.875 C 20.644531 1.691406 23.433594 1.257812 24.90625 -0.0546875 C 25.507812 -0.65625 26.054688 -1.257812 26.492188 -1.964844 C 29.003906 -5.789062 30.53125 -10.050781 31.679688 -14.472656 C 31.953125 -15.511719 31.679688 -15.675781 30.695312 -15.949219 Z M 30.695312 -15.949219 "/></g></g></g><g fill="#000000" fill-opacity="1"><g transform="translate(365.601602, 624.52086)"><g><path d="M 18.734375 -7.484375 C 18.789062 -8.136719 18.789062 -8.847656 18.84375 -9.503906 C 19.390625 -13.65625 19.554688 -17.914062 19.335938 -22.121094 C 19.28125 -23.597656 19.171875 -25.125 18.84375 -26.546875 C 18.734375 -27.253906 18.40625 -27.582031 17.695312 -27.472656 C 16.605469 -27.308594 15.457031 -27.199219 14.308594 -27.035156 C 14.039062 -26.980469 13.65625 -26.925781 13.546875 -26.65625 C 13.21875 -25.945312 12.726562 -26.164062 12.234375 -26.328125 C 11.140625 -26.65625 9.996094 -26.601562 8.902344 -26.328125 C 5.625 -25.5625 3.441406 -23.542969 1.855469 -20.753906 C -0.273438 -16.988281 -1.203125 -12.890625 -0.875 -8.574219 C -0.765625 -7.375 -0.492188 -6.226562 0.0546875 -5.132812 C 0.382812 -4.371094 0.875 -3.714844 1.746094 -3.441406 C 3.878906 -2.839844 6.0625 -2.949219 7.320312 -5.078125 C 7.59375 -5.625 7.972656 -6.117188 8.246094 -6.664062 C 9.066406 -8.410156 9.886719 -10.105469 10.761719 -11.851562 C 10.871094 -12.125 10.925781 -12.5625 11.414062 -12.507812 C 11.414062 -12.015625 11.46875 -11.578125 11.414062 -11.140625 C 11.25 -8.902344 10.980469 -6.71875 10.816406 -4.535156 C 10.707031 -3.167969 10.214844 -2.402344 8.902344 -1.964844 C 6.828125 -1.257812 4.859375 -0.273438 3.113281 0.984375 C 1.53125 2.128906 0.21875 3.441406 -0.382812 5.40625 C -1.367188 8.628906 0.492188 11.359375 3.878906 11.6875 C 7.210938 11.960938 10.050781 10.871094 12.289062 8.410156 C 13.382812 7.265625 14.308594 5.953125 15.074219 4.535156 C 16.386719 2.019531 17.261719 -0.601562 17.859375 -3.332031 C 18.023438 -4.097656 18.40625 -4.699219 19.0625 -5.1875 C 20.972656 -6.664062 22.777344 -8.300781 24.46875 -10.050781 C 25.289062 -10.980469 26.054688 -11.960938 26.871094 -12.890625 C 27.363281 -13.492188 27.035156 -13.875 26.546875 -14.308594 C 26 -14.800781 25.726562 -14.253906 25.453125 -13.929688 C 25.234375 -13.710938 25.070312 -13.4375 24.90625 -13.21875 C 23.160156 -10.980469 21.191406 -9.121094 19.0625 -7.320312 C 18.953125 -7.375 18.84375 -7.429688 18.734375 -7.484375 Z M 12.234375 -21.136719 C 11.25 -18.242188 9.996094 -15.511719 8.683594 -12.78125 C 7.757812 -10.816406 6.828125 -8.847656 5.84375 -6.9375 C 5.570312 -6.390625 5.351562 -5.570312 4.644531 -5.734375 C 3.824219 -5.898438 3.988281 -6.773438 3.933594 -7.375 C 3.769531 -9.339844 4.261719 -11.195312 4.589844 -13.054688 C 5.242188 -16.441406 6.117188 -19.773438 8.136719 -22.667969 C 8.738281 -23.488281 9.285156 -24.25 10.214844 -24.6875 C 11.578125 -25.34375 12.726562 -24.632812 12.671875 -22.886719 C 12.671875 -22.394531 12.453125 -21.792969 12.234375 -21.136719 Z M 7.101562 8.464844 C 7.046875 8.519531 6.992188 8.519531 6.992188 8.574219 C 6.335938 9.394531 5.679688 10.269531 4.480469 9.996094 C 3.222656 9.777344 2.621094 8.792969 2.292969 7.648438 C 1.964844 6.664062 2.183594 5.734375 2.621094 4.804688 C 3.003906 3.878906 3.660156 3.058594 4.425781 2.347656 C 6.007812 0.929688 7.867188 0 10.160156 -0.875 C 9.558594 2.675781 8.847656 5.734375 7.101562 8.464844 Z M 7.101562 8.464844 "/></g></g></g></svg>