<svg xmlns="http://www.w3.org/2000/svg" xmlns:xlink="http://www.w3.org/1999/xlink" width="793" zoomAndPan="magnify" viewBox="0 0 595.5 842.249979" height="1122" preserveAspectRatio="xMidYMid meet" version="1.0"><defs><g/><clipPath id="b920c98bef"><path d="M 0.015625 0 L 594.984375 0 L 594.984375 841.5 L 0.015625 841.5 Z M 0.015625 0 " clip-rule="nonzero"/></clipPath><clipPath id="f81b457fe2"><path d="M 59.539062 59.523438 L 535.734375 59.523438 L 535.734375 778.292969 L 59.539062 778.292969 Z M 59.539062 59.523438 " clip-rule="nonzero"/></clipPath><clipPath id="0331c2cf43"><path d="M 178.589844 205 L 228 205 L 228 399.703125 L 178.589844 399.703125 Z M 178.589844 205 " clip-rule="nonzero"/></clipPath><clipPath id="56d83fbda3"><path d="M 232 205 L 282 205 L 282 399.703125 L 232 399.703125 Z M 232 205 " clip-rule="nonzero"/></clipPath><clipPath id="f91a7d6f63"><path d="M 286 205 L 336 205 L 336 399.703125 L 286 399.703125 Z M 286 205 " clip-rule="nonzero"/></clipPath><clipPath id="b992097b6e"><path d="M 335 201 L 416 201 L 416 399.703125 L 335 399.703125 Z M 335 201 " clip-rule="nonzero"/></clipPath></defs><g clip-path="url(#b920c98bef)"><path fill="#ffffff" d="M 0.015625 0 L 595.484375 0 L 595.484375 848.957031 L 0.015625 848.957031 Z M 0.015625 0 " fill-opacity="1" fill-rule="nonzero"/><path fill="#ffffff" d="M 0.015625 0 L 595.484375 0 L 595.484375 842.207031 L 0.015625 842.207031 Z M 0.015625 0 " fill-opacity="1" fill-rule="nonzero"/><path fill="#ffffff" d="M 0.015625 0 L 595.484375 0 L 595.484375 842.207031 L 0.015625 842.207031 Z M 0.015625 0 " fill-opacity="1" fill-rule="nonzero"/></g><g clip-path="url(#f81b457fe2)"><path fill="#c9eafa" d="M 59.539062 59.523438 L 535.910156 59.523438 L 535.910156 778.367188 L 59.539062 778.367188 Z M 59.539062 59.523438 " fill-opacity="1" fill-rule="nonzero"/></g><g clip-path="url(#0331c2cf43)"><path fill="#3c7fca" d="M 227.710938 396.300781 C 227.710938 398.035156 226.304688 399.441406 224.570312 399.441406 L 181.851562 399.441406 C 180.121094 399.441406 178.714844 398.035156 178.714844 396.300781 L 178.714844 208.941406 C 178.714844 207.207031 180.121094 205.796875 181.851562 205.796875 L 224.570312 205.796875 C 226.304688 205.796875 227.710938 207.207031 227.710938 208.941406 L 227.710938 396.300781 " fill-opacity="1" fill-rule="nonzero"/></g><path fill="#e3eff1" d="M 221.148438 321.742188 L 185.269531 321.742188 L 185.269531 214.914062 L 221.148438 214.914062 L 221.148438 321.742188 " fill-opacity="1" fill-rule="nonzero"/><path fill="#495c5c" d="M 187.65625 367.75 C 187.65625 359.152344 194.621094 352.179688 203.214844 352.179688 C 211.804688 352.179688 218.765625 359.152344 218.765625 367.75 C 218.765625 376.351562 211.804688 383.324219 203.214844 383.324219 C 194.621094 383.324219 187.65625 376.351562 187.65625 367.75 " fill-opacity="1" fill-rule="nonzero"/><path fill="#e3eff1" d="M 203.214844 353.753906 C 195.5 353.753906 189.226562 360.03125 189.226562 367.75 C 189.226562 375.472656 195.5 381.75 203.214844 381.75 C 210.925781 381.75 217.195312 375.472656 217.195312 367.75 C 217.195312 360.03125 210.925781 353.753906 203.214844 353.753906 Z M 203.214844 384.894531 C 193.769531 384.894531 186.089844 377.203125 186.089844 367.75 C 186.089844 358.300781 193.769531 350.609375 203.214844 350.609375 C 212.65625 350.609375 220.335938 358.300781 220.335938 367.75 C 220.335938 377.203125 212.65625 384.894531 203.214844 384.894531 " fill-opacity="1" fill-rule="nonzero"/><path fill="#8c8971" d="M 218.765625 249.988281 L 187.65625 249.988281 L 187.65625 248.414062 L 218.765625 248.414062 L 218.765625 249.988281 " fill-opacity="1" fill-rule="nonzero"/><path fill="#8c8971" d="M 218.765625 288.242188 L 187.65625 288.242188 L 187.65625 286.667969 L 218.765625 286.667969 L 218.765625 288.242188 " fill-opacity="1" fill-rule="nonzero"/><g clip-path="url(#56d83fbda3)"><path fill="#66ac85" d="M 281.414062 396.300781 C 281.414062 398.035156 280.007812 399.441406 278.277344 399.441406 L 235.558594 399.441406 C 233.828125 399.441406 232.417969 398.035156 232.417969 396.300781 L 232.417969 208.941406 C 232.417969 207.207031 233.828125 205.796875 235.558594 205.796875 L 278.277344 205.796875 C 280.007812 205.796875 281.414062 207.207031 281.414062 208.941406 L 281.414062 396.300781 " fill-opacity="1" fill-rule="nonzero"/></g><path fill="#e3eff1" d="M 274.855469 321.742188 L 238.976562 321.742188 L 238.976562 214.914062 L 274.855469 214.914062 L 274.855469 321.742188 " fill-opacity="1" fill-rule="nonzero"/><path fill="#495c5c" d="M 241.363281 367.75 C 241.363281 359.152344 248.324219 352.179688 256.917969 352.179688 C 265.507812 352.179688 272.46875 359.152344 272.46875 367.75 C 272.46875 376.351562 265.507812 383.324219 256.917969 383.324219 C 248.324219 383.324219 241.363281 376.351562 241.363281 367.75 " fill-opacity="1" fill-rule="nonzero"/><path fill="#e3eff1" d="M 256.917969 353.753906 C 249.207031 353.753906 242.929688 360.03125 242.929688 367.75 C 242.929688 375.472656 249.207031 381.75 256.917969 381.75 C 264.625 381.75 270.902344 375.472656 270.902344 367.75 C 270.902344 360.03125 264.625 353.753906 256.917969 353.753906 Z M 256.917969 384.894531 C 247.476562 384.894531 239.792969 377.203125 239.792969 367.75 C 239.792969 358.300781 247.476562 350.609375 256.917969 350.609375 C 266.359375 350.609375 274.042969 358.300781 274.042969 367.75 C 274.042969 377.203125 266.359375 384.894531 256.917969 384.894531 " fill-opacity="1" fill-rule="nonzero"/><path fill="#8c8971" d="M 272.46875 249.988281 L 241.363281 249.988281 L 241.363281 248.414062 L 272.46875 248.414062 L 272.46875 249.988281 " fill-opacity="1" fill-rule="nonzero"/><path fill="#8c8971" d="M 272.46875 288.242188 L 241.363281 288.242188 L 241.363281 286.667969 L 272.46875 286.667969 L 272.46875 288.242188 " fill-opacity="1" fill-rule="nonzero"/><g clip-path="url(#f91a7d6f63)"><path fill="#f6b82f" d="M 335.117188 396.300781 C 335.117188 398.035156 333.710938 399.441406 331.980469 399.441406 L 289.261719 399.441406 C 287.53125 399.441406 286.125 398.035156 286.125 396.300781 L 286.125 208.941406 C 286.125 207.207031 287.53125 205.796875 289.261719 205.796875 L 331.980469 205.796875 C 333.710938 205.796875 335.117188 207.207031 335.117188 208.941406 L 335.117188 396.300781 " fill-opacity="1" fill-rule="nonzero"/></g><path fill="#e3eff1" d="M 328.558594 321.742188 L 292.683594 321.742188 L 292.683594 214.914062 L 328.558594 214.914062 L 328.558594 321.742188 " fill-opacity="1" fill-rule="nonzero"/><path fill="#495c5c" d="M 295.066406 367.75 C 295.066406 359.152344 302.03125 352.179688 310.621094 352.179688 C 319.214844 352.179688 326.171875 359.152344 326.171875 367.75 C 326.171875 376.351562 319.214844 383.324219 310.621094 383.324219 C 302.03125 383.324219 295.066406 376.351562 295.066406 367.75 " fill-opacity="1" fill-rule="nonzero"/><path fill="#e3eff1" d="M 310.621094 353.753906 C 302.910156 353.753906 296.636719 360.03125 296.636719 367.75 C 296.636719 375.472656 302.910156 381.75 310.621094 381.75 C 318.332031 381.75 324.605469 375.472656 324.605469 367.75 C 324.605469 360.03125 318.332031 353.753906 310.621094 353.753906 Z M 310.621094 384.894531 C 301.179688 384.894531 293.496094 377.203125 293.496094 367.75 C 293.496094 358.300781 301.179688 350.609375 310.621094 350.609375 C 320.0625 350.609375 327.746094 358.300781 327.746094 367.75 C 327.746094 377.203125 320.0625 384.894531 310.621094 384.894531 " fill-opacity="1" fill-rule="nonzero"/><path fill="#8c8971" d="M 326.171875 249.988281 L 295.066406 249.988281 L 295.066406 248.414062 L 326.171875 248.414062 L 326.171875 249.988281 " fill-opacity="1" fill-rule="nonzero"/><path fill="#8c8971" d="M 326.171875 288.242188 L 295.066406 288.242188 L 295.066406 286.667969 L 326.171875 286.667969 L 326.171875 288.242188 " fill-opacity="1" fill-rule="nonzero"/><g clip-path="url(#b992097b6e)"><path fill="#da5044" d="M 415.910156 388.328125 C 416.210938 390.039062 415.074219 391.667969 413.367188 391.972656 L 371.300781 399.394531 C 369.59375 399.695312 367.960938 398.550781 367.664062 396.84375 L 335.164062 212.335938 C 334.867188 210.625 336.003906 208.992188 337.710938 208.691406 L 379.777344 201.269531 C 381.484375 200.964844 383.113281 202.109375 383.414062 203.820312 L 415.910156 388.328125 " fill-opacity="1" fill-rule="nonzero"/></g><path fill="#e3eff1" d="M 396.519531 316.039062 L 361.1875 322.277344 L 342.65625 217.074219 L 377.992188 210.835938 L 396.519531 316.039062 " fill-opacity="1" fill-rule="nonzero"/><path fill="#495c5c" d="M 371.519531 367.175781 C 370.023438 358.707031 375.675781 350.628906 384.136719 349.136719 C 392.597656 347.644531 400.664062 353.300781 402.15625 361.769531 C 403.648438 370.234375 398 378.3125 389.535156 379.804688 C 381.078125 381.300781 373.007812 375.644531 371.519531 367.175781 " fill-opacity="1" fill-rule="nonzero"/><path fill="#e3eff1" d="M 386.855469 350.46875 C 386.039062 350.46875 385.214844 350.542969 384.410156 350.6875 C 380.730469 351.335938 377.523438 353.378906 375.375 356.441406 C 373.238281 359.503906 372.414062 363.21875 373.0625 366.902344 C 374.246094 373.609375 380.027344 378.472656 386.816406 378.472656 C 387.628906 378.472656 388.453125 378.402344 389.261719 378.257812 C 396.859375 376.917969 401.945312 369.640625 400.609375 362.039062 C 399.425781 355.335938 393.640625 350.46875 386.855469 350.46875 Z M 386.816406 381.617188 C 378.5 381.617188 371.414062 375.65625 369.96875 367.453125 C 369.179688 362.941406 370.183594 358.390625 372.808594 354.640625 C 375.433594 350.886719 379.355469 348.386719 383.859375 347.589844 C 384.851562 347.414062 385.855469 347.324219 386.855469 347.324219 C 395.167969 347.324219 402.253906 353.28125 403.703125 361.496094 C 405.339844 370.804688 399.105469 379.714844 389.804688 381.351562 C 388.816406 381.527344 387.8125 381.617188 386.816406 381.617188 " fill-opacity="1" fill-rule="nonzero"/><path fill="#8c8971" d="M 351.089844 251.199219 L 350.816406 249.652344 L 381.457031 244.246094 L 381.726562 245.792969 L 351.089844 251.199219 " fill-opacity="1" fill-rule="nonzero"/><path fill="#8c8971" d="M 357.726562 288.871094 L 357.453125 287.328125 L 388.09375 281.917969 L 388.363281 283.464844 L 357.726562 288.871094 " fill-opacity="1" fill-rule="nonzero"/><g fill="#000000" fill-opacity="1"><g transform="translate(196.677221, 624.52086)"><g><path d="M 29.386719 -1.855469 C 27.582031 -7.917969 26.601562 -14.199219 25.726562 -20.429688 C 25.5625 -21.683594 25.671875 -21.792969 26.925781 -21.738281 C 28.621094 -21.683594 30.3125 -21.683594 32.007812 -21.902344 C 32.5 -22.011719 32.9375 -22.066406 33.371094 -22.285156 C 33.644531 -22.394531 33.917969 -22.558594 33.917969 -22.941406 C 33.972656 -23.378906 33.644531 -23.542969 33.316406 -23.703125 C 32.71875 -23.976562 32.117188 -23.921875 31.460938 -23.867188 C 29.769531 -23.703125 28.074219 -23.867188 26.382812 -23.921875 C 25.617188 -23.921875 25.234375 -24.25 25.179688 -25.015625 C 25.179688 -25.234375 25.125 -25.507812 25.125 -25.78125 C 24.578125 -31.734375 24.085938 -37.742188 23.597656 -43.75 C 23.378906 -46.644531 23.488281 -46.261719 20.808594 -46.261719 C 18.953125 -46.261719 18.953125 -46.207031 18.460938 -44.40625 C 18.351562 -44.078125 18.242188 -43.695312 18.132812 -43.367188 C 16.113281 -37.6875 13.710938 -32.171875 11.578125 -26.546875 C 11.25 -25.726562 10.816406 -25.453125 9.941406 -25.617188 C 7.972656 -25.945312 5.953125 -25.945312 3.933594 -25.78125 C 1.3125 -25.617188 -1.09375 -24.742188 -3.222656 -23.160156 C -3.605469 -22.886719 -4.042969 -22.503906 -4.371094 -22.121094 C -4.75 -21.683594 -4.589844 -21.246094 -4.042969 -21.082031 C -3.167969 -20.808594 -2.292969 -20.753906 -1.476562 -21.136719 C -1.039062 -21.355469 -0.601562 -21.574219 -0.21875 -21.792969 C 2.839844 -23.597656 6.117188 -23.703125 9.503906 -23.214844 C 9.941406 -23.160156 10.160156 -22.996094 9.996094 -22.558594 C 9.941406 -22.285156 9.832031 -22.066406 9.777344 -21.792969 C 6.992188 -14.691406 4.804688 -7.375 2.730469 -0.0546875 C 2.621094 0.328125 2.511719 0.710938 2.402344 1.148438 C 2.347656 1.421875 2.511719 1.582031 2.730469 1.746094 C 3.988281 2.457031 4.859375 2.183594 5.351562 0.820312 C 5.570312 0.273438 5.789062 -0.328125 5.953125 -0.929688 C 6.773438 -3.550781 7.59375 -6.226562 8.410156 -8.902344 C 9.722656 -13.21875 11.140625 -17.53125 12.726562 -21.792969 C 13.109375 -22.941406 13.164062 -22.941406 14.363281 -22.832031 C 15.238281 -22.777344 16.113281 -22.667969 16.988281 -22.558594 C 18.296875 -22.449219 18.296875 -22.449219 18.460938 -21.136719 C 18.84375 -18.132812 19.335938 -15.128906 20.046875 -12.179688 C 21.136719 -7.867188 22.503906 -3.660156 24.578125 0.273438 C 26.054688 3.113281 28.347656 4.207031 31.40625 3.988281 C 32.664062 3.933594 33.589844 3.441406 34.355469 2.511719 C 34.957031 1.746094 35.449219 0.875 35.832031 0 C 38.015625 -4.535156 39.980469 -9.230469 41.621094 -13.984375 C 42.113281 -15.292969 42.496094 -16.605469 42.820312 -17.96875 C 42.984375 -18.679688 42.765625 -19.0625 42.113281 -19.226562 C 41.730469 -19.28125 41.402344 -19.28125 41.019531 -19.390625 C 40.472656 -19.554688 40.144531 -19.335938 39.980469 -18.789062 C 39.925781 -18.570312 39.871094 -18.296875 39.761719 -18.078125 C 37.796875 -12.179688 35.394531 -6.5 32.445312 -1.09375 C 32.007812 -0.273438 31.515625 0.546875 30.75 1.3125 C 29.984375 0.21875 29.714844 -0.820312 29.386719 -1.855469 Z M 17.476562 -34.300781 C 17.96875 -33.972656 17.75 -33.589844 17.75 -33.261719 C 17.804688 -30.804688 17.804688 -28.347656 17.96875 -25.890625 C 18.078125 -24.851562 18.023438 -24.796875 17.042969 -24.851562 C 16.058594 -24.90625 15.074219 -24.960938 14.039062 -25.34375 C 15.183594 -28.347656 16.332031 -31.296875 17.476562 -34.300781 Z M 17.476562 -34.300781 "/></g></g></g><g fill="#000000" fill-opacity="1"><g transform="translate(235.346945, 624.52086)"><g><path d="M 10.488281 -26.382812 C 9.121094 -20.101562 8.464844 -13.765625 8.519531 -7.375 C 8.519531 -3.988281 9.066406 -0.710938 10.761719 2.347656 C 11.085938 2.949219 11.46875 3.550781 11.960938 4.097656 C 13.492188 5.898438 18.132812 6.007812 20.101562 4.097656 C 21.683594 2.511719 22.941406 0.710938 23.976562 -1.257812 C 26.4375 -5.84375 28.019531 -10.816406 29.496094 -15.785156 C 29.660156 -16.386719 29.824219 -16.988281 29.929688 -17.585938 C 30.039062 -17.859375 30.09375 -18.132812 29.824219 -18.296875 C 29.222656 -18.679688 28.566406 -18.625 27.910156 -18.625 C 27.417969 -18.625 27.308594 -18.078125 27.199219 -17.695312 C 26.382812 -15.457031 25.507812 -13.164062 24.742188 -10.871094 C 23.648438 -7.539062 22.449219 -4.152344 20.644531 -1.09375 C 19.773438 0.382812 18.84375 1.800781 17.53125 2.949219 C 16.660156 3.714844 16.332031 3.660156 15.949219 2.511719 C 15.292969 0.601562 15.074219 -1.421875 14.964844 -3.441406 C 14.800781 -8.246094 15.074219 -13 15.785156 -17.75 C 16.222656 -20.535156 16.714844 -23.324219 17.042969 -26.164062 C 17.3125 -28.183594 16.550781 -29.003906 14.472656 -29.003906 C 13.054688 -29.003906 11.578125 -29.003906 10.160156 -29.113281 C 8.902344 -29.167969 7.648438 -29.332031 6.609375 -29.929688 C 5.40625 -30.640625 4.152344 -30.695312 2.894531 -30.859375 C 2.074219 -30.96875 1.582031 -30.75 1.476562 -29.878906 C 1.421875 -29.441406 1.3125 -29.058594 1.257812 -28.675781 C 1.09375 -26.164062 0.820312 -23.648438 0.65625 -21.082031 C 0.382812 -15.730469 -0.164062 -10.433594 -1.039062 -5.132812 C -1.3125 -3.769531 -1.53125 -2.402344 -1.53125 -1.039062 C -1.53125 -0.65625 -1.582031 -0.328125 -1.148438 -0.109375 C 0.328125 0.492188 1.203125 0.0546875 1.582031 -1.421875 C 1.582031 -1.582031 1.636719 -1.746094 1.636719 -1.910156 C 3.222656 -9.011719 4.371094 -16.167969 4.804688 -23.433594 C 4.914062 -24.960938 5.078125 -26.492188 5.1875 -28.183594 C 6.992188 -27.691406 8.738281 -27.636719 10.542969 -27.417969 C 10.707031 -26.925781 10.542969 -26.65625 10.488281 -26.382812 Z M 10.488281 -26.382812 "/></g></g></g><g fill="#000000" fill-opacity="1"><g transform="translate(261.454476, 624.52086)"><g><path d="M 8.738281 -27.035156 C 9.011719 -27.527344 9.285156 -28.019531 9.722656 -28.402344 C 10.214844 -28.894531 10.707031 -28.894531 11.195312 -28.457031 C 11.851562 -27.855469 12.34375 -27.089844 12.726562 -26.328125 C 13.109375 -25.34375 13.492188 -24.414062 13.875 -23.433594 C 14.039062 -22.996094 14.253906 -22.722656 14.746094 -22.832031 C 15.183594 -22.886719 15.566406 -22.941406 15.949219 -23.050781 C 16.496094 -23.160156 16.769531 -23.488281 16.660156 -24.03125 C 16.496094 -25.890625 16.003906 -27.691406 14.746094 -29.167969 C 13.328125 -30.804688 11.523438 -31.515625 9.394531 -31.132812 C 7.429688 -30.75 5.84375 -29.769531 4.425781 -28.402344 C 2.347656 -26.328125 0.984375 -23.757812 0.328125 -20.917969 C -0.382812 -18.132812 -0.4375 -15.292969 -0.21875 -12.453125 C 0 -9.230469 0.65625 -6.0625 2.183594 -3.113281 C 2.894531 -1.800781 3.714844 -0.546875 4.859375 0.4375 C 8.410156 3.660156 13.765625 2.894531 16.222656 -1.203125 C 16.714844 -1.964844 17.097656 -2.730469 17.476562 -3.550781 C 18.570312 -5.84375 19.664062 -8.191406 20.753906 -10.542969 C 21.519531 -12.234375 22.285156 -13.984375 23.050781 -15.730469 C 23.378906 -16.386719 23.269531 -16.824219 22.558594 -17.042969 C 22.339844 -17.152344 22.121094 -17.261719 21.847656 -17.367188 C 21.410156 -17.585938 21.082031 -17.53125 20.863281 -17.042969 C 20.753906 -16.824219 20.644531 -16.605469 20.535156 -16.332031 C 18.679688 -12.289062 16.660156 -8.300781 14.582031 -4.316406 C 13.875 -2.894531 13 -1.53125 11.90625 -0.382812 C 11.140625 0.492188 10.378906 0.4375 9.777344 -0.546875 C 9.066406 -1.636719 8.574219 -2.839844 8.136719 -4.042969 C 6.773438 -7.972656 6.335938 -12.070312 6.226562 -14.800781 C 6.226562 -20.863281 6.882812 -23.921875 8.738281 -27.035156 Z M 8.738281 -27.035156 "/></g></g></g><g fill="#000000" fill-opacity="1"><g transform="translate(281.990942, 624.52086)"><g><path d="M 6.773438 -16.878906 C 7.101562 -21.410156 7.484375 -25.890625 7.757812 -30.421875 C 8.027344 -34.410156 8.300781 -38.453125 8.464844 -42.441406 C 8.574219 -44.515625 8.519531 -44.570312 6.390625 -44.515625 C 3.222656 -44.515625 3.167969 -44.515625 2.566406 -41.402344 C 1.3125 -35.339844 0.4375 -29.222656 0 -23.050781 C -0.4375 -17.585938 -0.492188 -12.125 0.109375 -6.71875 C 0.328125 -4.96875 0.601562 -3.222656 1.039062 -1.53125 C 1.3125 -0.492188 2.019531 0 3.058594 0.0546875 C 3.496094 0.0546875 3.988281 0.0546875 4.425781 0 C 5.242188 -0.0546875 5.734375 -0.4375 5.789062 -1.367188 C 6.007812 -3.058594 6.335938 -4.699219 6.71875 -6.335938 C 8.027344 -12.179688 10.542969 -17.421875 13.765625 -22.394531 C 14.199219 -22.996094 14.636719 -23.867188 15.511719 -23.703125 C 16.496094 -23.433594 16.167969 -22.449219 16.222656 -21.683594 C 16.277344 -17.097656 16.332031 -12.5625 16.441406 -7.972656 C 16.441406 -6.226562 16.550781 -4.480469 16.769531 -2.730469 C 17.042969 -1.203125 17.367188 0.328125 18.078125 1.691406 C 18.515625 2.511719 19.0625 3.167969 19.992188 3.386719 C 21.957031 3.769531 23.757812 3.496094 25.179688 1.855469 C 26.21875 0.601562 26.980469 -0.765625 27.691406 -2.238281 C 29.605469 -6.335938 31.078125 -10.652344 32.664062 -14.855469 C 33.152344 -16.167969 33.097656 -16.167969 31.789062 -16.550781 C 30.859375 -16.769531 30.585938 -16.386719 30.3125 -15.675781 C 29.003906 -12.5625 27.691406 -9.503906 26.382812 -6.445312 C 25.5625 -4.425781 24.742188 -2.457031 23.597656 -0.601562 C 23.160156 0.164062 22.777344 0.929688 21.957031 1.421875 C 21.464844 0.765625 21.355469 0.0546875 21.191406 -0.65625 C 20.808594 -2.785156 20.589844 -4.96875 20.589844 -7.101562 C 20.589844 -10.816406 20.589844 -14.527344 20.589844 -18.242188 C 20.589844 -20.101562 20.429688 -21.957031 19.828125 -23.703125 C 19.117188 -26 17.097656 -26.980469 14.800781 -26.273438 C 13.765625 -25.945312 12.890625 -25.289062 12.125 -24.523438 C 10.980469 -23.378906 10.050781 -22.066406 9.230469 -20.699219 C 8.464844 -19.445312 7.757812 -18.132812 6.992188 -16.878906 C 6.9375 -16.878906 6.828125 -16.878906 6.773438 -16.878906 Z M 6.773438 -16.878906 "/></g></g></g><g fill="#000000" fill-opacity="1"><g transform="translate(311.047855, 624.52086)"><g><path d="M 16.058594 -15.949219 C 15.128906 -16.277344 15.019531 -16.277344 14.472656 -15.292969 C 14.417969 -15.128906 14.308594 -14.910156 14.199219 -14.746094 C 12.398438 -11.195312 10.597656 -7.703125 8.792969 -4.152344 C 8.464844 -3.496094 8.136719 -2.894531 7.757812 -2.292969 C 7.210938 -1.476562 6.71875 -1.53125 6.226562 -2.347656 C 5.789062 -3.167969 5.515625 -4.097656 5.351562 -4.96875 C 4.96875 -7.320312 4.96875 -9.722656 4.859375 -12.070312 C 4.699219 -16.386719 5.132812 -20.699219 5.460938 -25.015625 C 5.625 -27.144531 5.570312 -27.199219 3.332031 -27.253906 C 3.222656 -27.253906 3.058594 -27.253906 2.894531 -27.253906 C 2.347656 -27.308594 2.019531 -27.089844 1.855469 -26.546875 C 1.691406 -26.109375 1.476562 -25.726562 1.367188 -25.234375 C 0.328125 -21.191406 -0.328125 -17.097656 -0.328125 -12.617188 C -0.382812 -10.542969 -0.21875 -8.191406 0.328125 -5.84375 C 0.710938 -4.371094 1.203125 -3.003906 2.128906 -1.800781 C 4.425781 1.148438 9.175781 0.875 11.03125 -2.347656 C 11.523438 -3.222656 11.960938 -4.207031 12.34375 -5.132812 C 13.710938 -8.246094 15.074219 -11.359375 16.441406 -14.472656 C 16.660156 -15.074219 16.933594 -15.621094 16.058594 -15.949219 Z M 4.535156 -30.148438 C 6.007812 -30.203125 6.882812 -31.023438 6.882812 -32.390625 C 6.882812 -33.699219 5.953125 -34.519531 4.371094 -34.464844 C 3.167969 -34.464844 2.183594 -33.316406 2.238281 -32.007812 C 2.238281 -30.75 3.003906 -30.148438 4.535156 -30.148438 Z M 4.535156 -30.148438 "/></g></g></g><g fill="#000000" fill-opacity="1"><g transform="translate(325.630926, 624.52086)"><g><path d="M 8.355469 -3.386719 C 7.539062 -9.667969 6.664062 -16.003906 5.789062 -22.339844 C 5.679688 -23.542969 5.460938 -24.6875 5.296875 -25.835938 C 5.242188 -26.492188 4.859375 -26.710938 4.261719 -26.601562 C 3.496094 -26.492188 2.730469 -26.328125 1.964844 -26.273438 C 1.257812 -26.164062 1.039062 -25.78125 0.984375 -25.125 C 0.875 -24.195312 0.875 -23.269531 0.929688 -22.339844 C 1.148438 -18.1875 1.421875 -14.09375 2.019531 -10.050781 C 2.621094 -6.117188 3.386719 -2.238281 4.644531 1.582031 C 5.296875 3.550781 6.71875 4.371094 8.683594 4.699219 C 9.832031 4.859375 10.324219 4.589844 10.925781 3.496094 C 11.46875 2.511719 11.796875 1.421875 12.015625 0.328125 C 13.273438 -5.132812 13.984375 -10.652344 14.855469 -16.113281 C 15.019531 -17.207031 14.964844 -18.351562 15.457031 -19.390625 C 15.839844 -19.390625 15.949219 -19.117188 16.113281 -18.953125 C 17.097656 -17.75 18.242188 -16.714844 19.445312 -15.730469 C 20.863281 -14.472656 22.667969 -13.929688 24.414062 -13.273438 C 24.742188 -13.164062 25.234375 -13 25.453125 -13.546875 C 25.671875 -14.09375 25.234375 -14.253906 24.90625 -14.472656 C 24.46875 -14.746094 24.085938 -14.964844 23.703125 -15.183594 C 21.246094 -16.605469 19.390625 -18.570312 18.460938 -21.300781 C 18.296875 -21.847656 18.078125 -22.339844 17.859375 -22.886719 C 16.769531 -26 16.769531 -25.945312 13.4375 -25.398438 C 12.5625 -25.289062 12.34375 -24.851562 12.234375 -24.085938 C 11.632812 -19.71875 11.03125 -15.347656 10.378906 -10.925781 C 9.941406 -8.027344 9.503906 -5.132812 8.628906 -2.347656 C 8.519531 -2.675781 8.410156 -3.003906 8.355469 -3.386719 Z M 8.355469 -3.386719 "/></g></g></g><g fill="#000000" fill-opacity="1"><g transform="translate(349.66296, 624.52086)"><g><path d="M 22.886719 -15.839844 C 22.011719 -16.441406 21.574219 -16.441406 21.027344 -15.785156 C 20.480469 -15.128906 20.046875 -14.472656 19.554688 -13.820312 C 17.261719 -10.597656 14.855469 -7.429688 12.289062 -4.425781 C 11.851562 -3.878906 11.414062 -3.386719 10.816406 -3.003906 C 9.996094 -2.457031 9.339844 -2.511719 8.628906 -3.277344 C 8.191406 -3.769531 7.8125 -4.371094 7.648438 -4.96875 C 6.71875 -7.917969 6.007812 -10.925781 5.898438 -14.039062 C 5.898438 -14.800781 6.117188 -15.128906 6.882812 -15.347656 C 11.140625 -16.605469 13.492188 -19.5 14.148438 -23.8125 C 14.472656 -26.21875 13.765625 -28.238281 11.742188 -29.660156 C 9.777344 -31.023438 7.648438 -30.75 5.625 -29.605469 C 3.824219 -28.511719 2.511719 -26.925781 1.53125 -25.070312 C -0.109375 -21.902344 -0.765625 -18.515625 -0.929688 -14.964844 C -0.984375 -13.820312 -0.820312 -12.726562 -0.601562 -11.578125 C -0.109375 -8.519531 0.984375 -5.679688 3.003906 -3.222656 C 5.515625 -0.164062 11.796875 0.820312 14.910156 -3.386719 C 17.640625 -7.046875 20.320312 -10.761719 22.886719 -14.582031 C 23.160156 -14.964844 23.542969 -15.402344 22.886719 -15.839844 Z M 6.828125 -22.558594 C 7.15625 -23.921875 7.648438 -25.289062 8.191406 -26.601562 C 8.355469 -27.035156 8.628906 -27.527344 9.175781 -27.472656 C 9.667969 -27.417969 9.886719 -26.980469 10.105469 -26.546875 C 10.105469 -26.4375 10.160156 -26.328125 10.160156 -26.21875 C 11.085938 -23.378906 9.394531 -18.84375 6.828125 -17.3125 C 6.609375 -17.152344 6.335938 -17.042969 5.953125 -17.152344 C 5.953125 -18.953125 6.390625 -20.753906 6.828125 -22.558594 Z M 6.828125 -22.558594 "/></g></g></g><g fill="#000000" fill-opacity="1"><g transform="translate(370.254045, 624.52086)"><g><path d="M 12.945312 -13.054688 C 13 -10.597656 13.273438 -8.136719 13.65625 -5.679688 C 14.148438 -2.183594 14.910156 1.203125 16.222656 4.480469 C 16.660156 5.460938 17.097656 6.445312 17.804688 7.265625 C 19.5 9.230469 22.832031 8.957031 24.140625 6.773438 C 24.851562 5.625 25.34375 4.371094 25.671875 3.113281 C 27.089844 -2.074219 28.402344 -7.265625 29.714844 -12.453125 C 29.878906 -13.054688 29.984375 -13.546875 29.167969 -13.765625 C 28.128906 -13.984375 27.691406 -13.820312 27.417969 -13.054688 C 27.363281 -12.78125 27.308594 -12.5625 27.199219 -12.289062 C 25.835938 -7.210938 24.414062 -2.183594 22.996094 2.894531 C 22.777344 3.660156 22.503906 4.480469 22.066406 5.1875 C 22.011719 5.351562 21.847656 5.570312 21.628906 5.515625 C 21.300781 5.515625 21.246094 5.242188 21.191406 5.023438 C 20.808594 3.660156 20.644531 2.292969 20.644531 0.875 C 20.589844 -1.3125 20.644531 -3.550781 20.589844 -5.734375 C 20.320312 -16.386719 20.972656 -26.980469 21.683594 -37.523438 C 21.738281 -38.617188 21.738281 -39.707031 21.738281 -40.800781 C 21.738281 -41.402344 21.464844 -41.730469 20.808594 -41.730469 C 19.664062 -41.675781 18.515625 -41.675781 17.421875 -41.675781 C 16.714844 -41.675781 16.386719 -41.292969 16.167969 -40.691406 C 15.839844 -39.597656 15.457031 -38.5625 15.183594 -37.414062 C 14.363281 -34.082031 13.929688 -30.640625 13.4375 -27.253906 C 13.21875 -25.78125 13.164062 -25.835938 11.6875 -25.726562 C 7.484375 -25.398438 3.988281 -23.648438 1.636719 -19.992188 C 0.546875 -18.296875 -0.21875 -16.441406 -0.601562 -14.417969 C -1.039062 -12.015625 -1.203125 -9.613281 -0.273438 -7.265625 C 0.65625 -4.75 2.675781 -3.878906 5.132812 -3.660156 C 7.429688 -3.496094 8.792969 -4.699219 9.777344 -6.609375 C 10.707031 -8.464844 11.359375 -10.378906 12.125 -12.289062 C 12.289062 -12.78125 12.398438 -13.273438 12.726562 -13.65625 C 13 -13.492188 12.945312 -13.273438 12.945312 -13.054688 Z M 4.535156 -7.429688 C 3.933594 -11.6875 4.425781 -15.839844 6.71875 -19.609375 C 7.867188 -21.519531 9.394531 -22.941406 11.632812 -23.542969 C 11.742188 -23.542969 11.90625 -23.597656 12.070312 -23.597656 C 12.179688 -23.597656 12.289062 -23.542969 12.398438 -23.542969 C 12.617188 -23.160156 12.34375 -22.886719 12.234375 -22.558594 C 10.378906 -17.96875 8.464844 -13.4375 6.773438 -8.792969 C 6.390625 -7.8125 6.007812 -6.828125 5.1875 -6.0625 C 4.644531 -6.390625 4.589844 -6.9375 4.535156 -7.429688 Z M 4.535156 -7.429688 "/></g></g></g></svg>