<svg xmlns="http://www.w3.org/2000/svg" xmlns:xlink="http://www.w3.org/1999/xlink" width="793" zoomAndPan="magnify" viewBox="0 0 594.95996 842.24997" height="1122" preserveAspectRatio="xMidYMid meet" version="1.0"><defs><filter x="0%" y="0%" width="100%" height="100%" id="20a0d951b2"><feColorMatrix values="0 0 0 0 1 0 0 0 0 1 0 0 0 0 1 0 0 0 1 0" color-interpolation-filters="sRGB"/></filter><g/><clipPath id="0b2d74247a"><path d="M 59.667969 59.425781 L 535.066406 59.425781 L 535.066406 776.988281 L 59.667969 776.988281 Z M 59.667969 59.425781 " clip-rule="nonzero"/></clipPath><clipPath id="8eb9ad4cb3"><path d="M 140.835938 185 L 399 185 L 399 361 L 140.835938 361 Z M 140.835938 185 " clip-rule="nonzero"/></clipPath><clipPath id="464c6bb0d7"><path d="M 187 360 L 364 360 L 364 439.03125 L 187 439.03125 Z M 187 360 " clip-rule="nonzero"/></clipPath><clipPath id="7c9b7013da"><path d="M 140.835938 185 L 399 185 L 399 201 L 140.835938 201 Z M 140.835938 185 " clip-rule="nonzero"/></clipPath><clipPath id="213281d3d0"><path d="M 302 141.046875 L 453.792969 141.046875 L 453.792969 293 L 302 293 Z M 302 141.046875 " clip-rule="nonzero"/></clipPath><mask id="d010c90da1"><g filter="url(#20a0d951b2)"><rect x="-59.495996" width="713.951952" fill="#000000" y="-84.224997" height="1010.699964" fill-opacity="0.2"/></g></mask><clipPath id="af7d627a0a"><path d="M 0.0390625 93 L 177 93 L 177 162.65625 L 0.0390625 162.65625 Z M 0.0390625 93 " clip-rule="nonzero"/></clipPath><clipPath id="d1935ef809"><rect x="0" width="177" y="0" height="163"/></clipPath></defs><g clip-path="url(#0b2d74247a)"><path fill="#d0fbff" d="M 59.667969 59.425781 L 535.238281 59.425781 L 535.238281 777.058594 L 59.667969 777.058594 Z M 59.667969 59.425781 " fill-opacity="1" fill-rule="nonzero"/></g><g clip-path="url(#8eb9ad4cb3)"><path fill="#ffffff" d="M 387.589844 185.359375 L 152.308594 185.359375 C 146.054688 185.359375 140.96875 190.027344 140.96875 195.769531 L 140.96875 349.617188 C 140.96875 355.359375 146.054688 360.03125 152.308594 360.03125 L 387.589844 360.03125 C 393.839844 360.03125 398.925781 355.359375 398.925781 349.617188 L 398.925781 195.769531 C 398.925781 190.027344 393.839844 185.359375 387.589844 185.359375 Z M 387.589844 185.359375 " fill-opacity="1" fill-rule="nonzero"/></g><path fill="#ffffff" d="M 294.09375 360.285156 C 292.867188 360.253906 291.644531 360.195312 290.4375 360.085938 C 291.644531 360.195312 292.867188 360.265625 294.09375 360.285156 Z M 294.09375 360.285156 " fill-opacity="1" fill-rule="nonzero"/><path fill="#ffffff" d="M 331.390625 423.523438 L 355.121094 418.609375 C 358.574219 417.894531 362.148438 418.046875 365.53125 419.046875 L 367.246094 419.558594 C 370.578125 420.542969 373.265625 423.019531 374.523438 426.257812 C 375.386719 428.480469 374.589844 431.003906 372.605469 432.332031 C 366.75 436.238281 359.785156 438.148438 352.753906 437.769531 L 329.695312 436.527344 Z M 331.390625 423.523438 " fill-opacity="1" fill-rule="nonzero"/><path fill="#6154a4" d="M 328.320312 424.273438 L 352.050781 419.617188 C 355.503906 418.941406 359.078125 419.082031 362.460938 420.035156 L 364.175781 420.515625 C 367.507812 421.453125 370.195312 423.796875 371.453125 426.863281 C 372.316406 428.972656 371.519531 431.363281 369.535156 432.617188 C 363.679688 436.320312 356.714844 438.128906 349.683594 437.769531 L 326.625 436.59375 Z M 328.320312 424.273438 " fill-opacity="1" fill-rule="nonzero"/><g clip-path="url(#464c6bb0d7)"><path fill="#00b3be" d="M 355.550781 364.699219 C 352.382812 362.214844 348.445312 360.742188 344.171875 360.742188 C 341.429688 360.742188 338.828125 361.355469 336.476562 362.445312 C 330.550781 364.183594 324.550781 367.796875 319.273438 372.832031 C 310.894531 377.851562 303.078125 382.464844 295.410156 386.597656 L 266.414062 365.949219 L 212.289062 363.746094 C 210.121094 363.425781 207.992188 363.347656 205.949219 363.488281 L 204.175781 363.417969 L 204.089844 363.675781 C 195.921875 364.800781 189.410156 369.53125 187.886719 376.339844 C 186.671875 381.773438 188.894531 387.355469 193.347656 391.675781 L 200.28125 398.730469 C 206.09375 404.644531 213.421875 408.847656 221.464844 410.882812 L 245.296875 416.914062 L 249.398438 430.054688 C 258.699219 428.410156 267.835938 426.695312 276.671875 424.859375 L 332.683594 439.035156 L 338.070312 424.675781 C 345.691406 420.5 352.886719 413.460938 357.859375 404.535156 C 366.804688 388.476562 365.527344 371.761719 355.550781 364.699219 Z M 355.550781 364.699219 " fill-opacity="1" fill-rule="nonzero"/></g><path fill="#ffffff" d="M 239.585938 424.367188 L 215.019531 431.449219 C 211.441406 432.480469 207.667969 432.609375 204.03125 431.828125 L 202.183594 431.429688 C 198.597656 430.660156 195.574219 428.273438 193.988281 424.96875 C 192.902344 422.699219 193.535156 419.976562 195.519531 418.425781 C 201.363281 413.839844 208.535156 411.273438 215.964844 411.105469 L 240.320312 410.554688 Z M 239.585938 424.367188 " fill-opacity="1" fill-rule="nonzero"/><path fill="#6154a4" d="M 247.859375 424.035156 L 218.167969 430.140625 C 214.589844 431.132812 210.816406 431.269531 207.183594 430.542969 L 205.335938 430.175781 C 201.753906 429.457031 198.742188 427.207031 197.171875 424.082031 C 196.09375 421.933594 196.738281 419.355469 198.726562 417.875 C 204.585938 413.507812 211.765625 411.042969 219.191406 410.855469 L 243.546875 410.238281 Z M 247.859375 424.035156 " fill-opacity="1" fill-rule="nonzero"/><g clip-path="url(#7c9b7013da)"><path fill="#00b3be" d="M 387.589844 185.234375 L 152.308594 185.234375 C 146.054688 185.234375 140.96875 188.601562 140.96875 192.738281 L 140.96875 200.015625 L 398.925781 200.015625 L 398.925781 192.738281 C 398.925781 188.601562 393.839844 185.234375 387.589844 185.234375 Z M 387.589844 185.234375 " fill-opacity="1" fill-rule="nonzero"/></g><path fill="#00b3be" d="M 164.542969 216.277344 C 159.710938 216.277344 155.78125 220.203125 155.78125 225.035156 C 155.78125 229.863281 159.710938 233.792969 164.542969 233.792969 C 169.378906 233.792969 173.308594 229.863281 173.308594 225.035156 C 173.308594 220.203125 169.378906 216.277344 164.542969 216.277344 Z M 164.542969 216.277344 " fill-opacity="1" fill-rule="nonzero"/><path fill="#00b3be" d="M 164.542969 249.308594 C 159.710938 249.308594 155.78125 253.238281 155.78125 258.066406 C 155.78125 262.894531 159.710938 266.824219 164.542969 266.824219 C 169.378906 266.824219 173.308594 262.894531 173.308594 258.066406 C 173.308594 253.238281 169.378906 249.308594 164.542969 249.308594 Z M 164.542969 249.308594 " fill-opacity="1" fill-rule="nonzero"/><path fill="#00b3be" d="M 164.542969 282.339844 C 159.710938 282.339844 155.78125 286.269531 155.78125 291.097656 C 155.78125 295.929688 159.710938 299.855469 164.542969 299.855469 C 169.378906 299.855469 173.308594 295.929688 173.308594 291.097656 C 173.308594 286.269531 169.378906 282.339844 164.542969 282.339844 Z M 164.542969 282.339844 " fill-opacity="1" fill-rule="nonzero"/><path fill="#00b3be" d="M 164.542969 315.375 C 159.710938 315.375 155.78125 319.300781 155.78125 324.132812 C 155.78125 328.960938 159.710938 332.890625 164.542969 332.890625 C 169.378906 332.890625 173.308594 328.960938 173.308594 324.132812 C 173.308594 319.300781 169.378906 315.375 164.542969 315.375 Z M 164.542969 315.375 " fill-opacity="1" fill-rule="nonzero"/><path fill="#6154a4" d="M 152.792969 188.804688 C 150.453125 188.804688 148.550781 190.570312 148.550781 192.738281 C 148.550781 194.90625 150.453125 196.667969 152.792969 196.667969 C 155.132812 196.667969 157.035156 194.90625 157.035156 192.738281 C 157.035156 190.570312 155.132812 188.804688 152.792969 188.804688 Z M 152.792969 188.804688 " fill-opacity="1" fill-rule="nonzero"/><path fill="#6154a4" d="M 164.363281 196.667969 C 166.703125 196.667969 168.605469 194.90625 168.605469 192.738281 C 168.605469 190.570312 166.703125 188.804688 164.363281 188.804688 C 162.023438 188.804688 160.121094 190.570312 160.121094 192.738281 C 160.121094 194.90625 162.023438 196.667969 164.363281 196.667969 Z M 164.363281 196.667969 " fill-opacity="1" fill-rule="nonzero"/><path fill="#6154a4" d="M 175.933594 196.667969 C 178.273438 196.667969 180.179688 194.90625 180.179688 192.738281 C 180.179688 190.570312 178.273438 188.804688 175.933594 188.804688 C 173.59375 188.804688 171.691406 190.570312 171.691406 192.738281 C 171.691406 194.90625 173.59375 196.667969 175.933594 196.667969 Z M 175.933594 196.667969 " fill-opacity="1" fill-rule="nonzero"/><path fill="#6154a4" d="M 181.722656 216.277344 L 376.625 216.277344 L 376.625 217.53125 L 181.722656 217.53125 Z M 181.722656 216.277344 " fill-opacity="1" fill-rule="nonzero"/><path fill="#6154a4" d="M 181.722656 224.40625 L 376.625 224.40625 L 376.625 225.660156 L 181.722656 225.660156 Z M 181.722656 224.40625 " fill-opacity="1" fill-rule="nonzero"/><path fill="#6154a4" d="M 181.722656 232.539062 L 376.625 232.539062 L 376.625 233.792969 L 181.722656 233.792969 Z M 181.722656 232.539062 " fill-opacity="1" fill-rule="nonzero"/><path fill="#6154a4" d="M 181.722656 250.789062 L 376.625 250.789062 L 376.625 252.042969 L 181.722656 252.042969 Z M 181.722656 250.789062 " fill-opacity="1" fill-rule="nonzero"/><path fill="#6154a4" d="M 181.722656 258.917969 L 376.625 258.917969 L 376.625 260.171875 L 181.722656 260.171875 Z M 181.722656 258.917969 " fill-opacity="1" fill-rule="nonzero"/><path fill="#6154a4" d="M 181.722656 267.050781 L 376.625 267.050781 L 376.625 268.304688 L 181.722656 268.304688 Z M 181.722656 267.050781 " fill-opacity="1" fill-rule="nonzero"/><path fill="#6154a4" d="M 181.722656 285.300781 L 376.625 285.300781 L 376.625 286.554688 L 181.722656 286.554688 Z M 181.722656 285.300781 " fill-opacity="1" fill-rule="nonzero"/><path fill="#6154a4" d="M 181.722656 293.429688 L 376.625 293.429688 L 376.625 294.6875 L 181.722656 294.6875 Z M 181.722656 293.429688 " fill-opacity="1" fill-rule="nonzero"/><path fill="#6154a4" d="M 181.722656 301.5625 L 376.625 301.5625 L 376.625 302.816406 L 181.722656 302.816406 Z M 181.722656 301.5625 " fill-opacity="1" fill-rule="nonzero"/><path fill="#6154a4" d="M 181.722656 319.8125 L 376.625 319.8125 L 376.625 321.066406 L 181.722656 321.066406 Z M 181.722656 319.8125 " fill-opacity="1" fill-rule="nonzero"/><path fill="#6154a4" d="M 181.722656 327.945312 L 376.625 327.945312 L 376.625 329.199219 L 181.722656 329.199219 Z M 181.722656 327.945312 " fill-opacity="1" fill-rule="nonzero"/><path fill="#6154a4" d="M 181.722656 336.074219 L 376.625 336.074219 L 376.625 337.328125 L 181.722656 337.328125 Z M 181.722656 336.074219 " fill-opacity="1" fill-rule="nonzero"/><path fill="#6154a4" d="M 185.632812 212.148438 L 184.847656 211.171875 L 164.425781 227.542969 L 160.625 222.460938 L 159.621094 223.214844 L 164.199219 229.335938 Z M 185.632812 212.148438 " fill-opacity="1" fill-rule="nonzero"/><path fill="#6154a4" d="M 184.847656 242.535156 L 164.425781 258.910156 L 160.625 253.828125 L 159.621094 254.578125 L 164.199219 260.699219 L 185.632812 243.511719 Z M 184.847656 242.535156 " fill-opacity="1" fill-rule="nonzero"/><g clip-path="url(#213281d3d0)"><path fill="#6154a4" d="M 453.695312 216.589844 C 453.695312 217.828125 453.664062 219.0625 453.601562 220.296875 C 453.542969 221.53125 453.453125 222.765625 453.332031 223.996094 C 453.210938 225.226562 453.058594 226.453125 452.875 227.675781 C 452.695312 228.898438 452.484375 230.113281 452.242188 231.328125 C 452 232.539062 451.730469 233.746094 451.429688 234.945312 C 451.128906 236.144531 450.796875 237.335938 450.441406 238.519531 C 450.082031 239.703125 449.691406 240.875 449.277344 242.039062 C 448.859375 243.203125 448.414062 244.355469 447.941406 245.5 C 447.46875 246.640625 446.964844 247.769531 446.4375 248.886719 C 445.910156 250.007812 445.351562 251.109375 444.769531 252.199219 C 444.1875 253.289062 443.578125 254.367188 442.941406 255.425781 C 442.304688 256.488281 441.644531 257.53125 440.957031 258.558594 C 440.269531 259.585938 439.554688 260.597656 438.820312 261.589844 C 438.082031 262.582031 437.320312 263.558594 436.535156 264.511719 C 435.75 265.46875 434.945312 266.40625 434.113281 267.320312 C 433.28125 268.238281 432.429688 269.132812 431.554688 270.007812 C 430.679688 270.878906 429.785156 271.734375 428.867188 272.5625 C 427.953125 273.394531 427.015625 274.199219 426.058594 274.984375 C 425.101562 275.769531 424.128906 276.53125 423.132812 277.265625 C 422.140625 278.003906 421.128906 278.714844 420.101562 279.402344 C 419.074219 280.085938 418.027344 280.75 416.964844 281.382812 C 415.90625 282.019531 414.828125 282.628906 413.738281 283.210938 C 412.648438 283.792969 411.542969 284.351562 410.425781 284.878906 C 409.304688 285.40625 408.175781 285.910156 407.03125 286.382812 C 405.890625 286.855469 404.734375 287.300781 403.570312 287.714844 C 402.40625 288.132812 401.230469 288.519531 400.046875 288.878906 C 398.863281 289.238281 397.671875 289.566406 396.472656 289.867188 C 395.273438 290.167969 394.066406 290.4375 392.851562 290.679688 C 391.640625 290.921875 390.421875 291.132812 389.199219 291.3125 C 387.972656 291.496094 386.746094 291.648438 385.515625 291.769531 C 384.285156 291.890625 383.050781 291.980469 381.816406 292.039062 C 380.578125 292.101562 379.34375 292.132812 378.105469 292.132812 C 376.871094 292.132812 375.632812 292.101562 374.398438 292.039062 C 373.164062 291.980469 371.929688 291.890625 370.699219 291.769531 C 369.464844 291.648438 368.238281 291.496094 367.015625 291.3125 C 365.792969 291.132812 364.574219 290.921875 363.359375 290.679688 C 362.148438 290.4375 360.941406 290.167969 359.742188 289.867188 C 358.539062 289.566406 357.347656 289.238281 356.164062 288.878906 C 354.980469 288.519531 353.804688 288.132812 352.640625 287.714844 C 351.476562 287.300781 350.324219 286.855469 349.179688 286.382812 C 348.039062 285.910156 346.90625 285.40625 345.789062 284.878906 C 344.671875 284.351562 343.566406 283.792969 342.476562 283.210938 C 341.382812 282.628906 340.308594 282.019531 339.246094 281.382812 C 338.1875 280.75 337.140625 280.085938 336.113281 279.402344 C 335.082031 278.714844 334.074219 278.003906 333.078125 277.265625 C 332.085938 276.53125 331.109375 275.769531 330.152344 274.984375 C 329.199219 274.199219 328.261719 273.394531 327.34375 272.5625 C 326.429688 271.734375 325.53125 270.878906 324.65625 270.007812 C 323.785156 269.132812 322.929688 268.238281 322.101562 267.320312 C 321.269531 266.40625 320.460938 265.46875 319.675781 264.511719 C 318.890625 263.558594 318.128906 262.582031 317.394531 261.589844 C 316.65625 260.597656 315.945312 259.585938 315.257812 258.558594 C 314.570312 257.53125 313.910156 256.488281 313.273438 255.425781 C 312.636719 254.367188 312.027344 253.289062 311.445312 252.199219 C 310.859375 251.109375 310.304688 250.007812 309.777344 248.886719 C 309.246094 247.769531 308.746094 246.640625 308.273438 245.5 C 307.800781 244.355469 307.355469 243.203125 306.9375 242.039062 C 306.519531 240.875 306.132812 239.703125 305.773438 238.519531 C 305.414062 237.335938 305.085938 236.144531 304.785156 234.945312 C 304.484375 233.746094 304.210938 232.539062 303.972656 231.328125 C 303.730469 230.113281 303.519531 228.898438 303.335938 227.675781 C 303.15625 226.453125 303.003906 225.226562 302.882812 223.996094 C 302.761719 222.765625 302.671875 221.53125 302.609375 220.296875 C 302.550781 219.0625 302.519531 217.828125 302.519531 216.589844 C 302.519531 215.355469 302.550781 214.117188 302.609375 212.882812 C 302.671875 211.648438 302.761719 210.414062 302.882812 209.183594 C 303.003906 207.957031 303.15625 206.730469 303.335938 205.503906 C 303.519531 204.28125 303.730469 203.066406 303.972656 201.851562 C 304.210938 200.640625 304.484375 199.433594 304.785156 198.234375 C 305.085938 197.035156 305.414062 195.84375 305.773438 194.660156 C 306.132812 193.476562 306.519531 192.304688 306.9375 191.140625 C 307.355469 189.976562 307.800781 188.824219 308.273438 187.679688 C 308.746094 186.539062 309.246094 185.410156 309.777344 184.292969 C 310.304688 183.175781 310.859375 182.070312 311.445312 180.980469 C 312.027344 179.890625 312.636719 178.8125 313.273438 177.753906 C 313.910156 176.691406 314.570312 175.648438 315.257812 174.621094 C 315.945312 173.59375 316.65625 172.582031 317.394531 171.589844 C 318.128906 170.597656 318.890625 169.621094 319.675781 168.667969 C 320.460938 167.710938 321.269531 166.773438 322.101562 165.859375 C 322.929688 164.941406 323.785156 164.046875 324.65625 163.171875 C 325.53125 162.300781 326.429688 161.445312 327.34375 160.617188 C 328.261719 159.785156 329.199219 158.980469 330.152344 158.195312 C 331.109375 157.410156 332.085938 156.652344 333.078125 155.914062 C 334.074219 155.175781 335.082031 154.464844 336.113281 153.777344 C 337.140625 153.09375 338.1875 152.429688 339.246094 151.796875 C 340.308594 151.160156 341.382812 150.550781 342.476562 149.96875 C 343.566406 149.386719 344.671875 148.828125 345.789062 148.300781 C 346.90625 147.773438 348.039062 147.269531 349.179688 146.796875 C 350.324219 146.324219 351.476562 145.878906 352.640625 145.464844 C 353.804688 145.046875 354.980469 144.660156 356.164062 144.300781 C 357.347656 143.941406 358.539062 143.613281 359.742188 143.3125 C 360.941406 143.011719 362.148438 142.742188 363.359375 142.5 C 364.574219 142.257812 365.792969 142.046875 367.015625 141.867188 C 368.238281 141.683594 369.464844 141.53125 370.699219 141.410156 C 371.929688 141.289062 373.164062 141.199219 374.398438 141.140625 C 375.632812 141.078125 376.871094 141.046875 378.105469 141.046875 C 379.34375 141.046875 380.578125 141.078125 381.816406 141.140625 C 383.050781 141.199219 384.285156 141.289062 385.515625 141.410156 C 386.746094 141.53125 387.972656 141.683594 389.199219 141.867188 C 390.421875 142.046875 391.640625 142.257812 392.851562 142.5 C 394.066406 142.742188 395.273438 143.011719 396.472656 143.3125 C 397.671875 143.613281 398.863281 143.941406 400.046875 144.300781 C 401.230469 144.660156 402.40625 145.046875 403.570312 145.464844 C 404.734375 145.878906 405.890625 146.324219 407.03125 146.796875 C 408.175781 147.269531 409.304688 147.773438 410.425781 148.300781 C 411.542969 148.828125 412.648438 149.386719 413.738281 149.96875 C 414.828125 150.550781 415.90625 151.160156 416.964844 151.796875 C 418.027344 152.429688 419.074219 153.09375 420.101562 153.777344 C 421.128906 154.464844 422.140625 155.175781 423.132812 155.914062 C 424.128906 156.652344 425.101562 157.410156 426.058594 158.195312 C 427.015625 158.980469 427.953125 159.785156 428.867188 160.617188 C 429.785156 161.445312 430.679688 162.300781 431.554688 163.171875 C 432.429688 164.046875 433.28125 164.941406 434.113281 165.859375 C 434.945312 166.773438 435.75 167.710938 436.535156 168.667969 C 437.320312 169.621094 438.082031 170.597656 438.820312 171.589844 C 439.554688 172.582031 440.269531 173.59375 440.957031 174.621094 C 441.644531 175.648438 442.304688 176.691406 442.941406 177.753906 C 443.578125 178.8125 444.1875 179.890625 444.769531 180.980469 C 445.351562 182.070312 445.910156 183.175781 446.4375 184.292969 C 446.964844 185.410156 447.46875 186.539062 447.941406 187.679688 C 448.414062 188.824219 448.859375 189.976562 449.277344 191.140625 C 449.691406 192.304688 450.082031 193.476562 450.441406 194.660156 C 450.796875 195.84375 451.128906 197.035156 451.429688 198.234375 C 451.730469 199.433594 452 200.640625 452.242188 201.851562 C 452.484375 203.066406 452.695312 204.28125 452.875 205.503906 C 453.058594 206.730469 453.210938 207.957031 453.332031 209.183594 C 453.453125 210.414062 453.542969 211.648438 453.601562 212.882812 C 453.664062 214.117188 453.695312 215.355469 453.695312 216.589844 Z M 453.695312 216.589844 " fill-opacity="1" fill-rule="nonzero"/></g><path fill="#ffffff" d="M 442.386719 206.164062 C 442.558594 207.21875 442.703125 208.273438 442.820312 209.332031 C 442.941406 210.390625 443.03125 211.449219 443.097656 212.511719 C 443.164062 213.574219 443.207031 214.640625 443.222656 215.703125 C 443.234375 216.769531 443.222656 217.835938 443.1875 218.898438 C 443.148438 219.964844 443.085938 221.027344 442.996094 222.085938 C 442.902344 223.148438 442.789062 224.207031 442.644531 225.261719 C 442.503906 226.316406 442.335938 227.371094 442.144531 228.417969 C 441.949219 229.464844 441.730469 230.507812 441.484375 231.542969 C 441.238281 232.578125 440.96875 233.609375 440.675781 234.632812 C 440.378906 235.65625 440.058594 236.671875 439.714844 237.679688 C 439.367188 238.6875 438.996094 239.6875 438.605469 240.675781 C 438.210938 241.664062 437.789062 242.644531 437.347656 243.613281 C 436.90625 244.582031 436.441406 245.539062 435.949219 246.484375 C 435.460938 247.429688 434.949219 248.363281 434.414062 249.285156 C 433.878906 250.207031 433.320312 251.113281 432.738281 252.007812 C 432.160156 252.902344 431.558594 253.78125 430.933594 254.644531 C 430.3125 255.507812 429.667969 256.355469 429.003906 257.1875 C 428.339844 258.019531 427.652344 258.835938 426.949219 259.636719 C 426.242188 260.433594 425.519531 261.214844 424.777344 261.980469 C 424.03125 262.742188 423.269531 263.488281 422.492188 264.210938 C 421.710938 264.9375 420.914062 265.644531 420.097656 266.332031 C 419.285156 267.019531 418.453125 267.683594 417.605469 268.332031 C 416.757812 268.976562 415.898438 269.601562 415.019531 270.207031 C 414.140625 270.808594 413.25 271.390625 412.34375 271.953125 C 411.433594 272.511719 410.515625 273.050781 409.582031 273.5625 C 408.648438 274.078125 407.703125 274.570312 406.746094 275.039062 C 405.789062 275.507812 404.824219 275.953125 403.84375 276.371094 C 402.863281 276.792969 401.875 277.191406 400.878906 277.5625 C 399.878906 277.933594 398.871094 278.28125 397.855469 278.605469 C 396.839844 278.929688 395.816406 279.226562 394.789062 279.5 C 393.757812 279.773438 392.722656 280.019531 391.679688 280.242188 C 390.636719 280.464844 389.589844 280.660156 388.539062 280.832031 C 387.484375 281 386.429688 281.144531 385.371094 281.265625 C 384.3125 281.382812 383.25 281.476562 382.1875 281.542969 C 381.121094 281.609375 380.058594 281.652344 378.992188 281.664062 C 377.925781 281.679688 376.863281 281.667969 375.796875 281.628906 C 374.730469 281.59375 373.667969 281.527344 372.605469 281.4375 C 371.542969 281.347656 370.484375 281.234375 369.429688 281.089844 C 368.371094 280.949219 367.320312 280.78125 366.273438 280.585938 C 365.222656 280.394531 364.183594 280.175781 363.144531 279.929688 C 362.105469 279.683594 361.078125 279.414062 360.050781 279.121094 C 359.027344 278.824219 358.011719 278.503906 357.003906 278.160156 C 355.996094 277.8125 354.996094 277.445312 354.007812 277.050781 C 353.015625 276.65625 352.035156 276.238281 351.066406 275.796875 C 350.097656 275.351562 349.140625 274.886719 348.191406 274.398438 C 347.246094 273.910156 346.3125 273.398438 345.390625 272.863281 C 344.46875 272.328125 343.5625 271.769531 342.667969 271.191406 C 341.773438 270.609375 340.894531 270.007812 340.03125 269.386719 C 339.164062 268.761719 338.316406 268.121094 337.484375 267.457031 C 336.648438 266.789062 335.835938 266.105469 335.035156 265.402344 C 334.234375 264.699219 333.453125 263.972656 332.691406 263.230469 C 331.925781 262.488281 331.179688 261.726562 330.453125 260.949219 C 329.726562 260.167969 329.023438 259.371094 328.335938 258.558594 C 327.648438 257.742188 326.980469 256.914062 326.332031 256.066406 C 325.6875 255.21875 325.0625 254.355469 324.457031 253.480469 C 323.855469 252.601562 323.273438 251.710938 322.710938 250.804688 C 322.152344 249.898438 321.613281 248.980469 321.097656 248.046875 C 320.582031 247.113281 320.089844 246.171875 319.621094 245.214844 C 319.152344 244.257812 318.707031 243.289062 318.289062 242.3125 C 317.867188 241.332031 317.46875 240.34375 317.097656 239.347656 C 316.722656 238.347656 316.375 237.34375 316.054688 236.328125 C 315.730469 235.3125 315.433594 234.289062 315.160156 233.261719 C 314.886719 232.230469 314.636719 231.195312 314.417969 230.152344 C 314.195312 229.113281 313.996094 228.066406 313.828125 227.015625 C 313.65625 225.964844 313.511719 224.90625 313.390625 223.847656 C 313.273438 222.792969 313.179688 221.730469 313.113281 220.667969 C 313.046875 219.605469 313.007812 218.539062 312.992188 217.476562 C 312.976562 216.410156 312.988281 215.34375 313.027344 214.28125 C 313.066406 213.214844 313.128906 212.152344 313.21875 211.09375 C 313.308594 210.03125 313.425781 208.972656 313.566406 207.917969 C 313.707031 206.863281 313.875 205.808594 314.070312 204.761719 C 314.265625 203.714844 314.484375 202.671875 314.726562 201.636719 C 314.972656 200.601562 315.242188 199.570312 315.539062 198.546875 C 315.835938 197.523438 316.15625 196.507812 316.5 195.5 C 316.84375 194.492188 317.214844 193.496094 317.609375 192.503906 C 318.003906 191.515625 318.421875 190.535156 318.863281 189.566406 C 319.308594 188.597656 319.773438 187.640625 320.261719 186.695312 C 320.753906 185.75 321.265625 184.816406 321.800781 183.894531 C 322.335938 182.972656 322.894531 182.066406 323.472656 181.171875 C 324.054688 180.277344 324.65625 179.398438 325.277344 178.535156 C 325.902344 177.671875 326.546875 176.824219 327.210938 175.992188 C 327.875 175.160156 328.558594 174.34375 329.265625 173.542969 C 329.96875 172.746094 330.695312 171.964844 331.4375 171.199219 C 332.179688 170.4375 332.941406 169.691406 333.722656 168.96875 C 334.5 168.242188 335.300781 167.535156 336.113281 166.847656 C 336.929688 166.160156 337.757812 165.496094 338.605469 164.847656 C 339.453125 164.203125 340.316406 163.578125 341.195312 162.972656 C 342.074219 162.371094 342.964844 161.789062 343.871094 161.226562 C 344.777344 160.667969 345.699219 160.132812 346.628906 159.617188 C 347.5625 159.101562 348.507812 158.609375 349.464844 158.140625 C 350.421875 157.671875 351.390625 157.226562 352.371094 156.808594 C 353.347656 156.386719 354.335938 155.988281 355.335938 155.617188 C 356.335938 155.246094 357.339844 154.898438 358.355469 154.574219 C 359.371094 154.25 360.394531 153.953125 361.425781 153.679688 C 362.457031 153.40625 363.492188 153.160156 364.535156 152.9375 C 365.578125 152.714844 366.625 152.519531 367.675781 152.347656 C 368.726562 152.179688 369.785156 152.035156 370.84375 151.914062 C 371.902344 151.796875 372.964844 151.703125 374.027344 151.636719 C 375.089844 151.570312 376.15625 151.53125 377.21875 151.515625 C 378.285156 151.5 379.351562 151.511719 380.417969 151.550781 C 381.480469 151.585938 382.546875 151.652344 383.605469 151.742188 C 384.667969 151.832031 385.726562 151.949219 386.785156 152.089844 C 387.839844 152.230469 388.894531 152.398438 389.941406 152.59375 C 390.988281 152.785156 392.03125 153.003906 393.070312 153.25 C 394.105469 153.496094 395.136719 153.765625 396.160156 154.058594 C 397.183594 154.355469 398.199219 154.675781 399.207031 155.019531 C 400.21875 155.367188 401.214844 155.734375 402.207031 156.128906 C 403.195312 156.523438 404.175781 156.941406 405.144531 157.382812 C 406.117188 157.828125 407.074219 158.292969 408.019531 158.78125 C 408.964844 159.269531 409.902344 159.78125 410.820312 160.316406 C 411.742188 160.851562 412.652344 161.410156 413.546875 161.988281 C 414.441406 162.570312 415.320312 163.171875 416.183594 163.792969 C 417.046875 164.417969 417.898438 165.058594 418.730469 165.722656 C 419.5625 166.390625 420.378906 167.074219 421.179688 167.777344 C 421.976562 168.480469 422.757812 169.207031 423.523438 169.949219 C 424.285156 170.691406 425.03125 171.453125 425.757812 172.230469 C 426.484375 173.011719 427.191406 173.808594 427.878906 174.621094 C 428.566406 175.4375 429.234375 176.265625 429.878906 177.113281 C 430.527344 177.960938 431.152344 178.824219 431.753906 179.699219 C 432.359375 180.578125 432.941406 181.46875 433.5 182.375 C 434.0625 183.28125 434.597656 184.199219 435.113281 185.132812 C 435.628906 186.066406 436.121094 187.011719 436.589844 187.964844 C 437.058594 188.921875 437.503906 189.890625 437.925781 190.867188 C 438.347656 191.847656 438.742188 192.835938 439.117188 193.832031 C 439.488281 194.832031 439.835938 195.835938 440.160156 196.851562 C 440.484375 197.867188 440.78125 198.890625 441.054688 199.917969 C 441.328125 200.949219 441.574219 201.984375 441.796875 203.027344 C 442.019531 204.066406 442.214844 205.113281 442.386719 206.164062 Z M 442.386719 206.164062 " fill-opacity="1" fill-rule="nonzero"/><path fill="#00b3be" d="M 379.933594 165.144531 C 379.933594 165.507812 379.863281 165.859375 379.726562 166.191406 C 379.585938 166.527344 379.386719 166.824219 379.132812 167.082031 C 378.875 167.339844 378.578125 167.535156 378.242188 167.675781 C 377.90625 167.816406 377.554688 167.882812 377.191406 167.882812 C 376.828125 167.882812 376.480469 167.816406 376.144531 167.675781 C 375.808594 167.535156 375.511719 167.339844 375.253906 167.082031 C 374.996094 166.824219 374.800781 166.527344 374.660156 166.191406 C 374.519531 165.859375 374.453125 165.507812 374.453125 165.144531 C 374.453125 164.78125 374.519531 164.433594 374.660156 164.097656 C 374.800781 163.761719 374.996094 163.464844 375.253906 163.207031 C 375.511719 162.949219 375.808594 162.753906 376.144531 162.613281 C 376.480469 162.476562 376.828125 162.40625 377.191406 162.40625 C 377.554688 162.40625 377.90625 162.476562 378.242188 162.613281 C 378.578125 162.753906 378.875 162.949219 379.132812 163.207031 C 379.386719 163.464844 379.585938 163.761719 379.726562 164.097656 C 379.863281 164.433594 379.933594 164.78125 379.933594 165.144531 Z M 379.933594 165.144531 " fill-opacity="1" fill-rule="nonzero"/><path fill="#00b3be" d="M 379.933594 165.144531 C 379.933594 165.507812 379.863281 165.859375 379.726562 166.191406 C 379.585938 166.527344 379.386719 166.824219 379.132812 167.082031 C 378.875 167.339844 378.578125 167.535156 378.242188 167.675781 C 377.90625 167.816406 377.554688 167.882812 377.191406 167.882812 C 376.828125 167.882812 376.480469 167.816406 376.144531 167.675781 C 375.808594 167.535156 375.511719 167.339844 375.253906 167.082031 C 374.996094 166.824219 374.800781 166.527344 374.660156 166.191406 C 374.519531 165.859375 374.453125 165.507812 374.453125 165.144531 C 374.453125 164.78125 374.519531 164.433594 374.660156 164.097656 C 374.800781 163.761719 374.996094 163.464844 375.253906 163.207031 C 375.511719 162.949219 375.808594 162.753906 376.144531 162.613281 C 376.480469 162.476562 376.828125 162.40625 377.191406 162.40625 C 377.554688 162.40625 377.90625 162.476562 378.242188 162.613281 C 378.578125 162.753906 378.875 162.949219 379.132812 163.207031 C 379.386719 163.464844 379.585938 163.761719 379.726562 164.097656 C 379.863281 164.433594 379.933594 164.78125 379.933594 165.144531 Z M 379.933594 165.144531 " fill-opacity="1" fill-rule="nonzero"/><path fill="#00b3be" d="M 354.320312 172.492188 C 354.320312 172.855469 354.25 173.207031 354.109375 173.542969 C 353.972656 173.878906 353.773438 174.175781 353.515625 174.429688 C 353.257812 174.6875 352.960938 174.886719 352.625 175.023438 C 352.289062 175.164062 351.941406 175.234375 351.578125 175.234375 C 351.214844 175.234375 350.863281 175.164062 350.527344 175.023438 C 350.191406 174.886719 349.894531 174.6875 349.640625 174.429688 C 349.382812 174.175781 349.183594 173.878906 349.046875 173.542969 C 348.90625 173.207031 348.835938 172.855469 348.835938 172.492188 C 348.835938 172.128906 348.90625 171.78125 349.046875 171.445312 C 349.183594 171.109375 349.382812 170.8125 349.640625 170.554688 C 349.894531 170.300781 350.191406 170.101562 350.527344 169.960938 C 350.863281 169.824219 351.214844 169.753906 351.578125 169.753906 C 351.941406 169.753906 352.289062 169.824219 352.625 169.960938 C 352.960938 170.101562 353.257812 170.300781 353.515625 170.554688 C 353.773438 170.8125 353.972656 171.109375 354.109375 171.445312 C 354.25 171.78125 354.320312 172.128906 354.320312 172.492188 Z M 354.320312 172.492188 " fill-opacity="1" fill-rule="nonzero"/><path fill="#00b3be" d="M 335.8125 191.660156 C 335.8125 192.023438 335.742188 192.371094 335.601562 192.707031 C 335.464844 193.042969 335.265625 193.339844 335.007812 193.59375 C 334.75 193.851562 334.453125 194.050781 334.117188 194.1875 C 333.78125 194.328125 333.433594 194.398438 333.070312 194.398438 C 332.707031 194.398438 332.355469 194.328125 332.019531 194.1875 C 331.683594 194.050781 331.386719 193.851562 331.132812 193.59375 C 330.875 193.339844 330.675781 193.042969 330.539062 192.707031 C 330.398438 192.371094 330.328125 192.023438 330.328125 191.660156 C 330.328125 191.296875 330.398438 190.945312 330.539062 190.609375 C 330.675781 190.273438 330.875 189.976562 331.132812 189.722656 C 331.386719 189.464844 331.683594 189.265625 332.019531 189.128906 C 332.355469 188.988281 332.707031 188.917969 333.070312 188.917969 C 333.433594 188.917969 333.78125 188.988281 334.117188 189.128906 C 334.453125 189.265625 334.75 189.464844 335.007812 189.722656 C 335.265625 189.976562 335.464844 190.273438 335.601562 190.609375 C 335.742188 190.945312 335.8125 191.296875 335.8125 191.660156 Z M 335.8125 191.660156 " fill-opacity="1" fill-rule="nonzero"/><path fill="#00b3be" d="M 329.371094 217.503906 C 329.371094 217.867188 329.300781 218.214844 329.164062 218.550781 C 329.023438 218.886719 328.824219 219.183594 328.570312 219.441406 C 328.3125 219.695312 328.015625 219.894531 327.679688 220.035156 C 327.34375 220.171875 326.992188 220.242188 326.628906 220.242188 C 326.265625 220.242188 325.917969 220.171875 325.582031 220.035156 C 325.246094 219.894531 324.949219 219.695312 324.691406 219.441406 C 324.433594 219.183594 324.238281 218.886719 324.097656 218.550781 C 323.957031 218.214844 323.890625 217.867188 323.890625 217.503906 C 323.890625 217.140625 323.957031 216.789062 324.097656 216.453125 C 324.238281 216.117188 324.433594 215.824219 324.691406 215.566406 C 324.949219 215.308594 325.246094 215.109375 325.582031 214.972656 C 325.917969 214.832031 326.265625 214.761719 326.628906 214.761719 C 326.992188 214.761719 327.34375 214.832031 327.679688 214.972656 C 328.015625 215.109375 328.3125 215.308594 328.570312 215.566406 C 328.824219 215.824219 329.023438 216.117188 329.164062 216.453125 C 329.300781 216.789062 329.371094 217.140625 329.371094 217.503906 Z M 329.371094 217.503906 " fill-opacity="1" fill-rule="nonzero"/><path fill="#00b3be" d="M 336.726562 243.105469 C 336.726562 243.46875 336.65625 243.816406 336.515625 244.152344 C 336.378906 244.488281 336.179688 244.785156 335.921875 245.039062 C 335.664062 245.296875 335.367188 245.496094 335.03125 245.632812 C 334.695312 245.773438 334.347656 245.84375 333.984375 245.84375 C 333.621094 245.84375 333.269531 245.773438 332.933594 245.632812 C 332.597656 245.496094 332.300781 245.296875 332.046875 245.039062 C 331.789062 244.785156 331.589844 244.488281 331.449219 244.152344 C 331.3125 243.816406 331.242188 243.46875 331.242188 243.105469 C 331.242188 242.742188 331.3125 242.390625 331.449219 242.054688 C 331.589844 241.71875 331.789062 241.421875 332.046875 241.167969 C 332.300781 240.910156 332.597656 240.710938 332.933594 240.574219 C 333.269531 240.433594 333.621094 240.363281 333.984375 240.363281 C 334.347656 240.363281 334.695312 240.433594 335.03125 240.574219 C 335.367188 240.710938 335.664062 240.910156 335.921875 241.167969 C 336.179688 241.421875 336.378906 241.71875 336.515625 242.054688 C 336.65625 242.390625 336.726562 242.742188 336.726562 243.105469 Z M 336.726562 243.105469 " fill-opacity="1" fill-rule="nonzero"/><path fill="#00b3be" d="M 355.902344 261.597656 C 355.902344 261.960938 355.832031 262.3125 355.691406 262.648438 C 355.554688 262.984375 355.355469 263.28125 355.097656 263.535156 C 354.839844 263.792969 354.542969 263.992188 354.207031 264.128906 C 353.875 264.269531 353.523438 264.339844 353.160156 264.339844 C 352.796875 264.339844 352.445312 264.269531 352.109375 264.128906 C 351.773438 263.992188 351.480469 263.792969 351.222656 263.535156 C 350.964844 263.28125 350.765625 262.984375 350.628906 262.648438 C 350.488281 262.3125 350.417969 261.960938 350.417969 261.597656 C 350.417969 261.234375 350.488281 260.886719 350.628906 260.550781 C 350.765625 260.214844 350.964844 259.917969 351.222656 259.664062 C 351.480469 259.40625 351.773438 259.207031 352.109375 259.070312 C 352.445312 258.929688 352.796875 258.859375 353.160156 258.859375 C 353.523438 258.859375 353.875 258.929688 354.207031 259.070312 C 354.542969 259.207031 354.839844 259.40625 355.097656 259.664062 C 355.355469 259.917969 355.554688 260.214844 355.691406 260.550781 C 355.832031 260.886719 355.902344 261.234375 355.902344 261.597656 Z M 355.902344 261.597656 " fill-opacity="1" fill-rule="nonzero"/><path fill="#00b3be" d="M 381.761719 268.035156 C 381.761719 268.398438 381.691406 268.746094 381.554688 269.082031 C 381.414062 269.417969 381.214844 269.714844 380.960938 269.972656 C 380.703125 270.230469 380.40625 270.425781 380.070312 270.566406 C 379.734375 270.707031 379.382812 270.773438 379.019531 270.773438 C 378.65625 270.773438 378.308594 270.707031 377.972656 270.566406 C 377.636719 270.425781 377.339844 270.230469 377.082031 269.972656 C 376.824219 269.714844 376.628906 269.417969 376.488281 269.082031 C 376.347656 268.746094 376.28125 268.398438 376.28125 268.035156 C 376.28125 267.671875 376.347656 267.324219 376.488281 266.988281 C 376.628906 266.652344 376.824219 266.355469 377.082031 266.097656 C 377.339844 265.839844 377.636719 265.644531 377.972656 265.503906 C 378.308594 265.367188 378.65625 265.296875 379.019531 265.296875 C 379.382812 265.296875 379.734375 265.367188 380.070312 265.503906 C 380.40625 265.644531 380.703125 265.839844 380.960938 266.097656 C 381.214844 266.355469 381.414062 266.652344 381.554688 266.988281 C 381.691406 267.324219 381.761719 267.671875 381.761719 268.035156 Z M 381.761719 268.035156 " fill-opacity="1" fill-rule="nonzero"/><path fill="#00b3be" d="M 407.378906 260.6875 C 407.378906 261.050781 407.308594 261.398438 407.167969 261.734375 C 407.03125 262.070312 406.832031 262.367188 406.574219 262.625 C 406.316406 262.878906 406.019531 263.078125 405.683594 263.21875 C 405.347656 263.355469 405 263.425781 404.636719 263.425781 C 404.273438 263.425781 403.921875 263.355469 403.585938 263.21875 C 403.25 263.078125 402.953125 262.878906 402.699219 262.625 C 402.441406 262.367188 402.242188 262.070312 402.105469 261.734375 C 401.964844 261.398438 401.894531 261.050781 401.894531 260.6875 C 401.894531 260.324219 401.964844 259.972656 402.105469 259.636719 C 402.242188 259.300781 402.441406 259.007812 402.699219 258.75 C 402.953125 258.492188 403.25 258.292969 403.585938 258.15625 C 403.921875 258.015625 404.273438 257.945312 404.636719 257.945312 C 405 257.945312 405.347656 258.015625 405.683594 258.15625 C 406.019531 258.292969 406.316406 258.492188 406.574219 258.75 C 406.832031 259.007812 407.03125 259.300781 407.167969 259.636719 C 407.308594 259.972656 407.378906 260.324219 407.378906 260.6875 Z M 407.378906 260.6875 " fill-opacity="1" fill-rule="nonzero"/><path fill="#00b3be" d="M 425.882812 241.523438 C 425.882812 241.886719 425.816406 242.234375 425.675781 242.570312 C 425.535156 242.90625 425.339844 243.203125 425.082031 243.457031 C 424.824219 243.714844 424.527344 243.914062 424.191406 244.050781 C 423.855469 244.191406 423.507812 244.261719 423.144531 244.261719 C 422.78125 244.261719 422.429688 244.191406 422.09375 244.050781 C 421.757812 243.914062 421.460938 243.714844 421.203125 243.457031 C 420.949219 243.203125 420.75 242.90625 420.609375 242.570312 C 420.472656 242.234375 420.402344 241.886719 420.402344 241.523438 C 420.402344 241.160156 420.472656 240.808594 420.609375 240.472656 C 420.75 240.136719 420.949219 239.839844 421.203125 239.585938 C 421.460938 239.328125 421.757812 239.128906 422.09375 238.992188 C 422.429688 238.851562 422.78125 238.78125 423.144531 238.78125 C 423.507812 238.78125 423.855469 238.851562 424.191406 238.992188 C 424.527344 239.128906 424.824219 239.328125 425.082031 239.585938 C 425.339844 239.839844 425.535156 240.136719 425.675781 240.472656 C 425.816406 240.808594 425.882812 241.160156 425.882812 241.523438 Z M 425.882812 241.523438 " fill-opacity="1" fill-rule="nonzero"/><path fill="#00b3be" d="M 432.324219 215.675781 C 432.324219 216.039062 432.253906 216.390625 432.117188 216.726562 C 431.976562 217.0625 431.777344 217.355469 431.519531 217.613281 C 431.265625 217.871094 430.96875 218.070312 430.632812 218.207031 C 430.296875 218.347656 429.945312 218.417969 429.582031 218.417969 C 429.21875 218.417969 428.871094 218.347656 428.535156 218.207031 C 428.199219 218.070312 427.902344 217.871094 427.644531 217.613281 C 427.386719 217.355469 427.191406 217.0625 427.050781 216.726562 C 426.910156 216.390625 426.84375 216.039062 426.84375 215.675781 C 426.84375 215.3125 426.910156 214.964844 427.050781 214.628906 C 427.191406 214.292969 427.386719 213.996094 427.644531 213.738281 C 427.902344 213.484375 428.199219 213.285156 428.535156 213.144531 C 428.871094 213.007812 429.21875 212.9375 429.582031 212.9375 C 429.945312 212.9375 430.296875 213.007812 430.632812 213.144531 C 430.96875 213.285156 431.265625 213.484375 431.519531 213.738281 C 431.777344 213.996094 431.976562 214.292969 432.117188 214.628906 C 432.253906 214.964844 432.324219 215.3125 432.324219 215.675781 Z M 432.324219 215.675781 " fill-opacity="1" fill-rule="nonzero"/><path fill="#00b3be" d="M 424.96875 190.078125 C 424.96875 190.441406 424.902344 190.789062 424.761719 191.125 C 424.621094 191.460938 424.425781 191.757812 424.167969 192.011719 C 423.910156 192.269531 423.613281 192.46875 423.277344 192.605469 C 422.941406 192.746094 422.59375 192.816406 422.230469 192.816406 C 421.867188 192.816406 421.515625 192.746094 421.179688 192.605469 C 420.84375 192.46875 420.546875 192.269531 420.292969 192.011719 C 420.035156 191.757812 419.835938 191.460938 419.695312 191.125 C 419.558594 190.789062 419.488281 190.441406 419.488281 190.078125 C 419.488281 189.714844 419.558594 189.363281 419.695312 189.027344 C 419.835938 188.691406 420.035156 188.394531 420.292969 188.140625 C 420.546875 187.882812 420.84375 187.683594 421.179688 187.546875 C 421.515625 187.40625 421.867188 187.335938 422.230469 187.335938 C 422.59375 187.335938 422.941406 187.40625 423.277344 187.546875 C 423.613281 187.683594 423.910156 187.882812 424.167969 188.140625 C 424.425781 188.394531 424.621094 188.691406 424.761719 189.027344 C 424.902344 189.363281 424.96875 189.714844 424.96875 190.078125 Z M 424.96875 190.078125 " fill-opacity="1" fill-rule="nonzero"/><path fill="#00b3be" d="M 405.796875 171.582031 C 405.796875 171.945312 405.726562 172.292969 405.585938 172.628906 C 405.449219 172.964844 405.25 173.261719 404.992188 173.519531 C 404.734375 173.773438 404.4375 173.972656 404.101562 174.113281 C 403.765625 174.25 403.417969 174.320312 403.054688 174.320312 C 402.691406 174.320312 402.339844 174.25 402.003906 174.113281 C 401.667969 173.972656 401.371094 173.773438 401.117188 173.519531 C 400.859375 173.261719 400.660156 172.964844 400.523438 172.628906 C 400.382812 172.292969 400.3125 171.945312 400.3125 171.582031 C 400.3125 171.21875 400.382812 170.867188 400.523438 170.53125 C 400.660156 170.195312 400.859375 169.898438 401.117188 169.644531 C 401.371094 169.386719 401.667969 169.1875 402.003906 169.050781 C 402.339844 168.910156 402.691406 168.839844 403.054688 168.839844 C 403.417969 168.839844 403.765625 168.910156 404.101562 169.050781 C 404.4375 169.1875 404.734375 169.386719 404.992188 169.644531 C 405.25 169.898438 405.449219 170.195312 405.585938 170.53125 C 405.726562 170.867188 405.796875 171.21875 405.796875 171.582031 Z M 405.796875 171.582031 " fill-opacity="1" fill-rule="nonzero"/><path fill="#6154a4" d="M 391.898438 216.242188 C 391.898438 217.058594 391.820312 217.871094 391.660156 218.671875 C 391.5 219.472656 391.261719 220.25 390.949219 221.003906 C 390.636719 221.757812 390.253906 222.476562 389.800781 223.152344 C 389.347656 223.832031 388.832031 224.460938 388.253906 225.039062 C 387.675781 225.617188 387.046875 226.132812 386.367188 226.585938 C 385.6875 227.039062 384.96875 227.421875 384.214844 227.734375 C 383.460938 228.046875 382.683594 228.285156 381.878906 228.441406 C 381.078125 228.601562 380.269531 228.683594 379.453125 228.683594 C 378.636719 228.683594 377.824219 228.601562 377.023438 228.441406 C 376.222656 228.285156 375.445312 228.046875 374.6875 227.734375 C 373.933594 227.421875 373.21875 227.039062 372.539062 226.585938 C 371.859375 226.132812 371.230469 225.617188 370.652344 225.039062 C 370.074219 224.460938 369.558594 223.832031 369.105469 223.152344 C 368.648438 222.476562 368.265625 221.757812 367.953125 221.003906 C 367.640625 220.25 367.40625 219.472656 367.246094 218.671875 C 367.085938 217.871094 367.007812 217.058594 367.007812 216.242188 C 367.007812 215.425781 367.085938 214.617188 367.246094 213.816406 C 367.40625 213.015625 367.640625 212.238281 367.953125 211.484375 C 368.265625 210.730469 368.648438 210.011719 369.105469 209.332031 C 369.558594 208.652344 370.074219 208.027344 370.652344 207.449219 C 371.230469 206.871094 371.859375 206.355469 372.539062 205.902344 C 373.21875 205.449219 373.933594 205.0625 374.6875 204.75 C 375.445312 204.4375 376.222656 204.203125 377.023438 204.042969 C 377.824219 203.882812 378.636719 203.804688 379.453125 203.804688 C 380.269531 203.804688 381.078125 203.882812 381.878906 204.042969 C 382.683594 204.203125 383.460938 204.4375 384.214844 204.75 C 384.96875 205.0625 385.6875 205.449219 386.367188 205.902344 C 387.046875 206.355469 387.675781 206.871094 388.253906 207.449219 C 388.832031 208.027344 389.347656 208.652344 389.800781 209.332031 C 390.253906 210.011719 390.636719 210.730469 390.949219 211.484375 C 391.261719 212.238281 391.5 213.015625 391.660156 213.816406 C 391.820312 214.617188 391.898438 215.425781 391.898438 216.242188 Z M 391.898438 216.242188 " fill-opacity="1" fill-rule="nonzero"/><path fill="#00b3be" d="M 379.207031 221.757812 L 370.636719 213.191406 C 370.023438 212.578125 370.023438 211.585938 370.636719 210.972656 C 371.25 210.359375 372.242188 210.359375 372.855469 210.972656 L 379.207031 217.320312 L 404.835938 191.707031 C 405.449219 191.09375 406.441406 191.09375 407.054688 191.707031 C 407.667969 192.320312 407.667969 193.3125 407.054688 193.925781 Z M 379.207031 221.757812 " fill-opacity="1" fill-rule="nonzero"/><path fill="#e29c6e" d="M 309.835938 264.214844 L 309.835938 267.171875 C 309.523438 267.503906 309.195312 267.832031 308.855469 268.144531 C 307.386719 269.515625 305.71875 270.699219 303.890625 271.65625 L 303.28125 271.976562 C 299.484375 273.957031 295.027344 274.007812 291.242188 272.21875 C 290.480469 271.859375 289.753906 271.433594 289.0625 270.929688 C 288.4375 270.476562 287.84375 269.996094 287.277344 269.484375 C 287.894531 268.332031 288.609375 267.269531 289.402344 266.320312 C 289.648438 266.515625 289.902344 266.714844 290.160156 266.898438 C 290.511719 267.152344 290.871094 267.386719 291.242188 267.609375 C 295.234375 269.964844 300.207031 270.121094 304.378906 267.941406 L 304.992188 267.621094 C 305.898438 267.144531 306.761719 266.617188 307.582031 266.035156 C 308.378906 265.480469 309.128906 264.871094 309.835938 264.214844 Z M 309.835938 264.214844 " fill-opacity="1" fill-rule="nonzero"/><path fill="#6154a4" d="M 347.570312 357.125 L 343.410156 290.957031 C 343.410156 284.636719 338.839844 279.382812 332.820312 278.316406 L 312.144531 271.757812 C 302.644531 268.746094 292.5625 268.039062 282.734375 269.699219 L 264.953125 272.707031 L 264.929688 272.964844 C 264.738281 272.953125 264.546875 272.933594 264.347656 272.933594 C 257.859375 272.933594 252.601562 278.191406 252.601562 284.675781 L 239.019531 326.46875 L 227.570312 328.007812 L 228.8125 356.632812 L 228.910156 356.628906 C 229.625 362.433594 234.566406 366.933594 240.570312 366.933594 C 243.699219 366.933594 246.53125 365.703125 248.636719 363.714844 C 250.328125 362.488281 251.683594 360.828125 252.527344 358.894531 L 252.535156 358.871094 C 252.800781 358.257812 253.007812 357.617188 253.167969 356.957031 L 261.9375 330.332031 C 263.460938 334.382812 263.558594 338.875 262.132812 343.035156 L 253.5 368.214844 L 264.082031 379.851562 C 270 386.363281 277.875 390.296875 286.160156 391.371094 C 297.25 385.933594 308.285156 379.429688 320.566406 372.058594 L 333.113281 370.628906 L 337.011719 370.183594 C 337.101562 370.167969 337.1875 370.160156 337.277344 370.152344 L 337.808594 370.089844 C 337.949219 370.074219 338.070312 370.035156 338.203125 370.007812 C 338.253906 370 338.300781 369.992188 338.347656 369.976562 C 338.402344 369.960938 338.453125 369.953125 338.507812 369.9375 C 342.933594 368.9375 346.410156 365.453125 347.375 361.027344 C 347.5625 360.214844 347.652344 359.363281 347.652344 358.492188 C 347.652344 358.03125 347.621094 357.578125 347.570312 357.125 Z M 347.570312 357.125 " fill-opacity="1" fill-rule="nonzero"/><path fill="#e29c6e" d="M 245.160156 310.199219 C 245.234375 310.019531 245.289062 309.835938 245.339844 309.648438 C 245.5 308.9375 245.476562 308.195312 245.253906 307.492188 L 239.472656 289.480469 L 238.8125 287.417969 C 238.8125 287.417969 238.8125 287.417969 238.8125 287.410156 L 238.691406 287.136719 L 238.074219 285.757812 C 238 285.601562 237.925781 285.460938 237.835938 285.316406 C 236.792969 283.605469 234.59375 282.929688 232.738281 283.828125 L 231.144531 284.609375 C 230.773438 284.792969 230.371094 284.902344 229.957031 284.941406 C 229.753906 284.960938 229.542969 284.96875 229.335938 284.949219 C 228.230469 284.867188 227.195312 285.457031 226.703125 286.4375 L 225.21875 289.417969 C 225.210938 289.417969 225.214844 289.425781 225.214844 289.425781 L 223.050781 292.59375 C 222.160156 293.902344 221.765625 295.488281 221.929688 297.058594 L 221.9375 297.136719 L 222.222656 299.777344 L 222.726562 304.488281 C 222.957031 306.550781 223.847656 308.492188 225.277344 310.003906 L 228.089844 312.984375 C 228.296875 313.195312 228.4375 313.457031 228.511719 313.726562 L 228.574219 314.34375 L 229.300781 321.582031 L 230.417969 332.734375 L 245.320312 331.242188 L 243.605469 314.140625 Z M 245.160156 310.199219 " fill-opacity="1" fill-rule="nonzero"/><path fill="#231f20" d="M 295.496094 381.421875 L 253.910156 381.421875 L 233.589844 327.089844 L 275.175781 327.089844 Z M 295.496094 381.421875 " fill-opacity="1" fill-rule="nonzero"/><path fill="#231f20" d="M 298.378906 381.421875 L 265.417969 381.421875 L 245.027344 326.910156 L 277.988281 326.910156 Z M 298.378906 381.421875 " fill-opacity="1" fill-rule="nonzero"/><path fill="#6154a4" d="M 338.46875 369.953125 C 338.257812 370.015625 338.039062 370.054688 337.808594 370.085938 L 337.699219 370.09375 C 337.957031 370.054688 338.21875 370.015625 338.46875 369.953125 Z M 338.46875 369.953125 " fill-opacity="1" fill-rule="nonzero"/><path fill="#231f20" d="M 245.09375 327.085938 L 245.023438 326.90625 L 277.410156 326.90625 C 276.710938 327.167969 276.042969 327.425781 275.402344 327.707031 L 275.171875 327.085938 Z M 245.09375 327.085938 " fill-opacity="1" fill-rule="nonzero"/><path fill="#231f20" d="M 265.316406 381.144531 C 265.40625 381.234375 265.496094 381.332031 265.597656 381.421875 L 265.417969 381.421875 Z M 265.316406 381.144531 " fill-opacity="1" fill-rule="nonzero"/><path fill="#ffffff" d="M 277.863281 326.746094 C 277.710938 326.796875 277.5625 326.855469 277.410156 326.90625 C 276.710938 327.167969 276.042969 327.425781 275.402344 327.707031 L 275.171875 327.085938 L 245.09375 327.085938 L 245.023438 326.90625 L 260.238281 326.90625 L 260.097656 326.675781 Z M 277.863281 326.746094 " fill-opacity="1" fill-rule="nonzero"/><path fill="#e29c6e" d="M 310.019531 271.132812 L 306.28125 270.203125 C 307.539062 270.484375 308.78125 270.78125 310.019531 271.132812 Z M 310.019531 271.132812 " fill-opacity="1" fill-rule="nonzero"/><path fill="#e29c6e" d="M 297.382812 360.265625 C 293.351562 360.398438 289.4375 360.144531 285.667969 359.425781 L 284.023438 357.039062 C 283.699219 356.566406 283.3125 356.152344 282.886719 355.792969 L 281.6875 354.253906 C 280.929688 353.28125 279.902344 352.546875 278.734375 352.148438 L 262.882812 346.699219 C 262.222656 346.472656 261.605469 347.128906 261.867188 347.773438 L 261.925781 347.914062 C 262.878906 350.246094 264.609375 352.179688 266.824219 353.386719 L 270.574219 355.421875 C 270.640625 355.460938 270.699219 355.503906 270.765625 355.542969 L 266.804688 356.257812 C 265.082031 356.566406 263.316406 356.546875 261.597656 356.199219 L 254.066406 354.667969 C 252.160156 354.28125 250.351562 355.65625 250.214844 357.59375 L 249.929688 361.703125 C 249.8125 363.324219 250.425781 364.914062 251.59375 366.042969 L 259.085938 373.269531 C 261.59375 375.683594 265.179688 376.621094 268.550781 375.742188 L 281.039062 372.472656 C 282.554688 372.078125 284.125 371.960938 285.683594 372.125 L 298.894531 371.621094 Z M 297.382812 360.265625 " fill-opacity="1" fill-rule="nonzero"/><path fill="#231f20" d="M 345.109375 233.164062 C 345.109375 227.773438 341.640625 223.199219 336.816406 221.523438 C 337.546875 219.402344 337.949219 217.132812 337.949219 214.761719 C 337.949219 203.269531 328.625 193.949219 317.121094 193.949219 C 315.203125 193.949219 313.347656 194.214844 311.585938 194.699219 C 307.8125 190.902344 302.582031 188.546875 296.804688 188.546875 C 288.253906 188.546875 280.910156 193.699219 277.703125 201.066406 C 267.5 202.410156 259.625 211.128906 259.625 221.695312 C 259.625 229.367188 263.785156 236.066406 269.96875 239.675781 C 268.023438 241.855469 266.832031 244.722656 266.832031 247.871094 C 266.832031 254.515625 272.09375 259.917969 278.675781 260.179688 C 279.726562 265.921875 284.75 270.277344 290.800781 270.277344 C 297.617188 270.277344 303.144531 264.757812 303.144531 257.945312 C 303.144531 251.304688 297.882812 245.902344 291.300781 245.636719 C 290.960938 243.78125 290.203125 242.074219 289.132812 240.609375 C 293.78125 238.476562 297.507812 234.683594 299.550781 229.988281 C 300.191406 229.902344 300.824219 229.789062 301.445312 229.648438 C 303.28125 231.820312 305.859375 233.335938 308.785156 233.835938 C 309.183594 234.011719 309.589844 234.175781 310.003906 234.328125 C 310.457031 239.183594 313.734375 243.210938 318.171875 244.78125 C 317.996094 245.160156 317.839844 245.546875 317.707031 245.945312 C 316.984375 245.8125 316.242188 245.734375 315.484375 245.734375 C 308.667969 245.734375 303.144531 251.253906 303.144531 258.066406 C 303.144531 264.878906 308.667969 270.398438 315.484375 270.398438 C 320.898438 270.398438 325.488281 266.90625 327.148438 262.058594 C 327.871094 262.1875 328.613281 262.269531 329.371094 262.269531 C 336.1875 262.269531 341.710938 256.746094 341.710938 249.933594 C 341.710938 247.496094 340.996094 245.230469 339.773438 243.316406 C 342.996094 241.089844 345.109375 237.375 345.109375 233.164062 Z M 345.109375 233.164062 " fill-opacity="1" fill-rule="nonzero"/><path fill="#231f20" d="M 217.175781 302.789062 L 253.09375 281.363281 C 253.773438 280.953125 254.058594 280.152344 253.71875 279.585938 C 253.375 279.011719 252.535156 278.878906 251.851562 279.285156 L 215.933594 300.714844 L 215.328125 301.339844 L 213.253906 303.496094 C 213.089844 303.667969 213.222656 303.890625 213.449219 303.828125 L 216.335938 303.023438 Z M 217.175781 302.789062 " fill-opacity="1" fill-rule="nonzero"/><path fill="#e29c6e" d="M 236.660156 286.09375 C 236.289062 289.988281 237.0625 293.90625 238.890625 297.367188 L 239.3125 298.167969 C 240.0625 299.585938 239.597656 301.34375 238.246094 302.203125 L 236.652344 303.222656 C 233.730469 305.082031 232.816406 308.921875 234.589844 311.898438 L 234.59375 311.902344 C 235.660156 313.695312 237.949219 314.320312 239.78125 313.324219 L 242.929688 311.605469 C 244.988281 310.484375 246.488281 308.554688 247.066406 306.285156 C 247.722656 303.722656 247.410156 301.011719 246.195312 298.664062 L 240.085938 286.855469 C 239.59375 285.90625 238.617188 285.308594 237.546875 285.296875 C 237.089844 285.289062 236.703125 285.636719 236.660156 286.09375 Z M 236.660156 286.09375 " fill-opacity="1" fill-rule="nonzero"/><g mask="url(#d010c90da1)"><g transform="matrix(1, 0, 0, 1, 187, 268)"><g clip-path="url(#d1935ef809)"><path fill="#ffffff" d="M 47.59375 43.902344 C 48.660156 45.695312 50.949219 46.320312 52.78125 45.324219 L 55.929688 43.605469 C 57.988281 42.484375 59.488281 40.554688 60.066406 38.285156 C 60.722656 35.722656 60.410156 33.011719 59.195312 30.664062 L 53.085938 18.855469 C 52.59375 17.90625 51.617188 17.308594 50.546875 17.296875 C 50.089844 17.289062 49.703125 17.636719 49.660156 18.09375 C 49.289062 21.988281 50.0625 25.90625 51.890625 29.367188 L 52.3125 30.167969 C 53.0625 31.585938 52.597656 33.34375 51.246094 34.203125 L 49.652344 35.222656 C 46.730469 37.082031 45.816406 40.921875 47.589844 43.898438 Z M 47.59375 43.902344 " fill-opacity="1" fill-rule="nonzero"/><path fill="#ffffff" d="M 130.707031 22.953125 C 130.707031 23.710938 130.785156 24.460938 130.917969 25.179688 L 136.125 81.464844 L 109.804688 92.246094 L 109.804688 92.265625 C 108.894531 92.304688 107.996094 92.304688 107.09375 92.285156 C 105.867188 92.265625 104.644531 92.195312 103.4375 92.085938 L 103.398438 92.085938 L 90.992188 58.90625 L 90.410156 58.90625 C 89.710938 59.167969 89.042969 59.425781 88.402344 59.707031 L 100.378906 91.714844 C 99.796875 91.636719 99.238281 91.535156 98.667969 91.425781 L 97.03125 89.039062 C 95.578125 86.929688 93.019531 85.871094 90.511719 86.332031 L 79.804688 88.257812 C 78.085938 88.566406 76.316406 88.546875 74.597656 88.199219 L 67.0625 86.667969 C 65.160156 86.28125 63.351562 87.660156 63.210938 89.597656 L 62.933594 93.703125 C 62.8125 95.320312 63.421875 96.910156 64.589844 98.039062 L 72.089844 105.269531 C 74.597656 107.6875 78.175781 108.617188 81.546875 107.738281 L 94.039062 104.472656 C 95.550781 104.082031 97.128906 103.960938 98.679688 104.121094 L 104.925781 103.882812 L 108.496094 113.421875 L 66.910156 113.421875 L 46.589844 59.085938 L 73.347656 59.085938 L 73.238281 58.90625 L 73.097656 58.675781 L 72.007812 56.847656 C 68.601562 51.125 68.460938 44.023438 71.660156 38.167969 L 75.996094 30.226562 L 77.945312 4.710938 L 95.738281 1.703125 C 97.25 1.445312 98.769531 1.246094 100.277344 1.105469 C 99.21875 3.253906 98.21875 6.328125 97.828125 8.777344 C 96.28125 18.417969 100.789062 27.148438 107.886719 28.296875 C 114.992188 29.425781 122 22.542969 123.550781 12.902344 C 124.109375 9.425781 123.878906 6.070312 123.019531 3.132812 C 123.730469 3.332031 124.4375 3.542969 125.136719 3.761719 L 145.769531 10.304688 C 145.050781 10.175781 144.3125 10.117188 143.5625 10.117188 C 136.464844 10.117188 130.707031 15.859375 130.707031 22.953125 Z M 130.707031 22.953125 " fill-opacity="1" fill-rule="nonzero"/><g clip-path="url(#af7d627a0a)"><path fill="#ffffff" d="M 176.089844 112.40625 C 176.089844 117.679688 174.089844 122.453125 170.839844 125.992188 C 169.429688 127.53125 167.78125 128.828125 165.953125 129.828125 C 143.710938 145.710938 104.707031 154.574219 62.402344 162.054688 L 60.734375 156.699219 L 58.292969 148.917969 L 56.355469 142.714844 L 41.261719 143.09375 C 39.773438 143.132812 38.300781 143.265625 36.84375 143.484375 L 34.464844 142.882812 C 26.425781 140.847656 19.097656 136.640625 13.28125 130.726562 L 6.34375 123.671875 C 1.894531 119.355469 -0.332031 113.773438 0.886719 108.339844 C 3.015625 98.808594 14.929688 93.34375 27.484375 96.152344 C 33.222656 97.429688 38.09375 100.214844 41.5 103.773438 L 92.339844 126.539062 C 94.621094 125.53125 96.878906 124.472656 99.136719 123.363281 C 91.5625 122.375 84.304688 118.996094 78.597656 113.421875 L 111.375 113.421875 L 107.816406 103.894531 L 111.914062 103.792969 L 112.402344 106.46875 L 142.671875 103.011719 L 142.683594 103.011719 L 145.402344 102.703125 L 145.359375 101.683594 C 145.609375 101.773438 145.871094 101.84375 146.128906 101.90625 L 146.109375 102.625 L 149.890625 102.183594 L 150.578125 102.113281 L 150.699219 102.09375 C 150.957031 102.054688 151.21875 102.015625 151.46875 101.953125 C 151.476562 101.953125 151.488281 101.945312 151.5 101.945312 C 155.925781 100.957031 159.40625 97.460938 160.375 93.035156 C 169.300781 94.601562 176.089844 102.683594 176.089844 112.40625 Z M 176.089844 112.40625 " fill-opacity="1" fill-rule="nonzero"/></g></g></g></g><path fill="#e29c6e" d="M 323.769531 239.800781 C 320.988281 239.800781 318.230469 241.941406 316.722656 244.960938 L 315.65625 233.0625 C 314.179688 233.679688 312.566406 234.023438 310.867188 234.023438 C 304.050781 234.023438 298.527344 228.503906 298.527344 221.691406 C 298.527344 221.566406 298.527344 221.453125 298.53125 221.328125 C 296.417969 223.035156 293.730469 224.054688 290.800781 224.054688 C 287.78125 224.054688 285.023438 222.972656 282.878906 221.175781 C 281.851562 222.894531 281.164062 224.839844 280.914062 226.90625 C 280.867188 227.296875 280.835938 227.679688 280.8125 228.078125 L 280.449219 236.40625 L 281.035156 249.921875 C 281.058594 250.421875 281.097656 250.921875 281.152344 251.410156 C 281.464844 254.253906 282.324219 256.980469 283.664062 259.445312 C 285.070312 262.070312 287.015625 264.421875 289.402344 266.320312 C 288.613281 267.269531 287.898438 268.332031 287.273438 269.484375 C 286.105469 271.625 285.261719 274.089844 284.824219 276.777344 C 284.746094 277.253906 284.683594 277.730469 284.648438 278.207031 C 283.734375 287.261719 288.136719 295.203125 294.890625 296.292969 C 301.992188 297.429688 309.007812 290.542969 310.550781 280.902344 C 310.691406 279.996094 310.78125 279.089844 310.828125 278.207031 C 310.953125 275.472656 310.597656 272.855469 309.835938 270.542969 L 309.835938 264.214844 C 312.472656 261.796875 314.507812 258.785156 315.761719 255.429688 C 316.023438 254.722656 316.246094 254 316.4375 253.261719 C 317.328125 254.90625 318.875 255.941406 320.804688 255.941406 C 322.425781 255.941406 324.046875 255.214844 325.398438 254.007812 C 327.082031 252.53125 328.378906 250.328125 328.824219 247.871094 C 329.648438 243.417969 327.382812 239.800781 323.769531 239.800781 Z M 323.769531 239.800781 " fill-opacity="1" fill-rule="nonzero"/><path fill="#231f20" d="M 309.835938 264.214844 L 309.835938 267.171875 C 309.523438 267.503906 309.195312 267.832031 308.855469 268.144531 C 307.386719 269.515625 305.71875 270.699219 303.890625 271.65625 L 303.28125 271.976562 C 299.484375 273.957031 295.027344 274.007812 291.242188 272.21875 C 290.480469 271.859375 289.753906 271.433594 289.0625 270.929688 C 288.4375 270.476562 287.84375 269.996094 287.277344 269.484375 C 287.894531 268.332031 288.609375 267.269531 289.402344 266.320312 C 289.648438 266.515625 289.902344 266.714844 290.160156 266.898438 C 290.511719 267.152344 290.871094 267.386719 291.242188 267.609375 C 295.234375 269.964844 300.207031 270.121094 304.378906 267.941406 L 304.992188 267.621094 C 305.898438 267.144531 306.761719 266.617188 307.582031 266.035156 C 308.378906 265.480469 309.128906 264.871094 309.835938 264.214844 Z M 309.835938 264.214844 " fill-opacity="0.2" fill-rule="nonzero"/><path fill="#ffffff" d="M 277.863281 326.746094 C 268.886719 329.910156 264.671875 334.703125 267.816406 342.027344 L 223.816406 342.027344 C 219.765625 335.128906 222.03125 329.710938 233.976562 326.566406 Z M 277.863281 326.746094 " fill-opacity="1" fill-rule="nonzero"/><g fill="#000000" fill-opacity="1"><g transform="translate(111.563835, 623.472943)"><g><path d="M 3.109375 -14.449219 C 3.761719 -10.632812 5.507812 -7.144531 7.414062 -3.816406 C 8.617188 -1.691406 10.195312 0.109375 12.160156 1.636719 C 13.140625 2.398438 14.175781 3.164062 15.484375 3.433594 C 19.683594 4.417969 23.339844 3.652344 26.28125 0.273438 C 27.046875 -0.546875 27.753906 -1.417969 28.355469 -2.398438 C 29.5 -4.144531 30.480469 -6 31.460938 -7.851562 C 33.207031 -11.125 35.0625 -14.339844 36.644531 -17.722656 C 37.078125 -18.703125 36.96875 -18.921875 35.878906 -19.195312 C 35.226562 -19.304688 34.789062 -19.140625 34.515625 -18.539062 C 34.296875 -18.15625 34.078125 -17.722656 33.863281 -17.339844 C 31.300781 -12.433594 28.574219 -7.6875 25.683594 -3 C 24.648438 -1.363281 23.5 0.164062 21.867188 1.199219 C 19.304688 2.835938 16.25 2.289062 14.449219 -0.164062 C 13.632812 -1.308594 13.03125 -2.507812 12.542969 -3.816406 C 11.125 -7.359375 10.523438 -11.015625 10.195312 -14.777344 C 9.761719 -20.285156 10.03125 -25.683594 11.886719 -30.917969 C 12.542969 -32.664062 13.304688 -34.351562 14.449219 -35.824219 C 15.539062 -37.296875 17.011719 -37.84375 18.757812 -37.351562 C 20.828125 -36.75 22.410156 -35.496094 23.609375 -33.699219 C 24.320312 -32.609375 24.808594 -31.40625 25.136719 -30.207031 C 25.300781 -29.554688 25.683594 -29.28125 26.390625 -29.28125 C 28.300781 -29.28125 28.574219 -29.5 28.574219 -31.515625 C 28.574219 -31.789062 28.574219 -32.117188 28.574219 -32.445312 C 28.246094 -39.914062 20.503906 -43.730469 14.886719 -41.441406 C 11.125 -39.914062 8.234375 -37.460938 6.214844 -33.917969 C 3.707031 -29.5 2.617188 -24.863281 2.726562 -19.847656 C 2.78125 -18.046875 2.78125 -16.25 3.109375 -14.449219 Z M 3.109375 -14.449219 "/></g></g></g><g fill="#000000" fill-opacity="1"><g transform="translate(143.407382, 623.472943)"><g><path d="M 10.46875 -26.335938 C 9.105469 -20.066406 8.453125 -13.742188 8.507812 -7.359375 C 8.507812 -3.980469 9.050781 -0.707031 10.742188 2.34375 C 11.070312 2.945312 11.449219 3.542969 11.941406 4.089844 C 13.46875 5.890625 18.101562 6 20.066406 4.089844 C 21.648438 2.507812 22.902344 0.707031 23.9375 -1.253906 C 26.390625 -5.835938 27.972656 -10.796875 29.445312 -15.757812 C 29.609375 -16.359375 29.773438 -16.957031 29.882812 -17.558594 C 29.992188 -17.832031 30.046875 -18.101562 29.773438 -18.265625 C 29.171875 -18.648438 28.519531 -18.59375 27.863281 -18.59375 C 27.375 -18.59375 27.265625 -18.046875 27.15625 -17.667969 C 26.335938 -15.429688 25.464844 -13.140625 24.703125 -10.851562 C 23.609375 -7.523438 22.410156 -4.144531 20.613281 -1.089844 C 19.738281 0.382812 18.8125 1.800781 17.503906 2.945312 C 16.632812 3.707031 16.304688 3.652344 15.921875 2.507812 C 15.269531 0.601562 15.050781 -1.417969 14.941406 -3.433594 C 14.777344 -8.234375 15.050781 -12.976562 15.757812 -17.722656 C 16.195312 -20.503906 16.6875 -23.285156 17.011719 -26.117188 C 17.285156 -28.136719 16.523438 -28.953125 14.449219 -28.953125 C 13.03125 -28.953125 11.558594 -28.953125 10.140625 -29.0625 C 8.886719 -29.117188 7.632812 -29.28125 6.597656 -29.882812 C 5.398438 -30.589844 4.144531 -30.644531 2.890625 -30.808594 C 2.070312 -30.917969 1.582031 -30.699219 1.472656 -29.828125 C 1.417969 -29.390625 1.308594 -29.007812 1.253906 -28.628906 C 1.089844 -26.117188 0.816406 -23.609375 0.65625 -21.046875 C 0.382812 -15.703125 -0.164062 -10.414062 -1.035156 -5.125 C -1.308594 -3.761719 -1.527344 -2.398438 -1.527344 -1.035156 C -1.527344 -0.65625 -1.582031 -0.328125 -1.144531 -0.109375 C 0.328125 0.492188 1.199219 0.0546875 1.582031 -1.417969 C 1.582031 -1.582031 1.636719 -1.746094 1.636719 -1.910156 C 3.21875 -8.996094 4.363281 -16.140625 4.796875 -23.390625 C 4.90625 -24.917969 5.070312 -26.445312 5.179688 -28.136719 C 6.980469 -27.644531 8.722656 -27.589844 10.523438 -27.375 C 10.6875 -26.882812 10.523438 -26.609375 10.46875 -26.335938 Z M 10.46875 -26.335938 "/></g></g></g><g fill="#000000" fill-opacity="1"><g transform="translate(169.471107, 623.472943)"><g><path d="M 22.847656 -15.8125 C 21.976562 -16.414062 21.539062 -16.414062 20.992188 -15.757812 C 20.449219 -15.105469 20.011719 -14.449219 19.519531 -13.796875 C 17.230469 -10.578125 14.832031 -7.414062 12.269531 -4.417969 C 11.832031 -3.871094 11.394531 -3.378906 10.796875 -3 C 9.980469 -2.453125 9.324219 -2.507812 8.617188 -3.273438 C 8.179688 -3.761719 7.796875 -4.363281 7.632812 -4.960938 C 6.707031 -7.90625 6 -10.90625 5.890625 -14.015625 C 5.890625 -14.777344 6.105469 -15.105469 6.871094 -15.324219 C 11.125 -16.578125 13.46875 -19.464844 14.121094 -23.773438 C 14.449219 -26.171875 13.742188 -28.191406 11.722656 -29.609375 C 9.761719 -30.972656 7.632812 -30.699219 5.617188 -29.554688 C 3.816406 -28.464844 2.507812 -26.882812 1.527344 -25.027344 C -0.109375 -21.867188 -0.761719 -18.484375 -0.925781 -14.941406 C -0.980469 -13.796875 -0.816406 -12.703125 -0.601562 -11.558594 C -0.109375 -8.507812 0.980469 -5.671875 3 -3.21875 C 5.507812 -0.164062 11.777344 0.816406 14.886719 -3.378906 C 17.613281 -7.035156 20.285156 -10.742188 22.847656 -14.558594 C 23.121094 -14.941406 23.5 -15.375 22.847656 -15.8125 Z M 6.816406 -22.519531 C 7.144531 -23.882812 7.632812 -25.246094 8.179688 -26.554688 C 8.34375 -26.992188 8.617188 -27.480469 9.160156 -27.425781 C 9.652344 -27.375 9.871094 -26.9375 10.085938 -26.5 C 10.085938 -26.390625 10.140625 -26.28125 10.140625 -26.171875 C 11.070312 -23.339844 9.378906 -18.8125 6.816406 -17.285156 C 6.597656 -17.121094 6.324219 -17.011719 5.945312 -17.121094 C 5.945312 -18.921875 6.378906 -20.71875 6.816406 -22.519531 Z M 6.816406 -22.519531 "/></g></g></g><g fill="#000000" fill-opacity="1"><g transform="translate(190.027643, 623.472943)"><g><path d="M 29.226562 -15.269531 C 28.355469 -15.648438 28.191406 -15.59375 27.644531 -14.503906 C 26.445312 -12.160156 25.355469 -9.761719 24.15625 -7.46875 C 22.738281 -4.6875 21.375 -1.910156 19.574219 0.601562 C 19.304688 1.035156 19.085938 1.582031 18.484375 1.746094 C 18.15625 1.089844 18.15625 0.492188 18.15625 -0.164062 C 18.101562 -2.289062 18.15625 -4.472656 18.320312 -6.597656 C 18.648438 -12.433594 18.976562 -18.210938 19.03125 -24.046875 C 19.03125 -24.703125 19.03125 -25.355469 18.867188 -26.011719 C 18.757812 -26.335938 18.648438 -26.664062 18.265625 -26.664062 C 16.738281 -26.664062 15.214844 -26.828125 13.742188 -26.335938 C 13.25 -26.171875 12.921875 -26.117188 12.433594 -26.226562 C 11.234375 -26.5 10.03125 -26.71875 8.777344 -26.445312 C 4.960938 -25.738281 2.617188 -23.285156 1.144531 -19.902344 C -0.109375 -17.066406 -0.492188 -14.066406 -0.273438 -11.015625 C -0.21875 -9.542969 0.0546875 -8.070312 0.65625 -6.652344 C 1.199219 -5.234375 2.289062 -4.636719 3.761719 -4.636719 C 4.960938 -4.582031 6 -5.015625 6.816406 -5.890625 C 7.578125 -6.761719 8.289062 -7.742188 8.886719 -8.777344 C 9.488281 -9.816406 10.085938 -10.851562 10.742188 -11.941406 C 11.125 -11.613281 10.960938 -11.289062 11.015625 -11.015625 C 11.125 -8.886719 11.179688 -6.707031 11.558594 -4.582031 C 11.886719 -2.234375 12.324219 0.109375 13.46875 2.234375 C 14.996094 5.070312 18.976562 5.5625 21.15625 3.164062 C 21.976562 2.289062 22.628906 1.308594 23.175781 0.21875 C 25.519531 -4.308594 27.753906 -8.941406 29.828125 -13.632812 C 30.316406 -14.722656 30.261719 -14.832031 29.226562 -15.269531 Z M 12.433594 -22.355469 C 12.378906 -21.757812 12.269531 -21.101562 11.996094 -20.558594 C 10.140625 -16.195312 8.125 -11.941406 5.671875 -7.90625 C 5.289062 -7.308594 5.015625 -6.378906 4.144531 -6.597656 C 3.273438 -6.816406 3.707031 -7.796875 3.597656 -8.453125 C 3.597656 -8.722656 3.597656 -9.050781 3.597656 -9.378906 C 3.707031 -13.304688 4.472656 -17.121094 6.597656 -20.558594 C 7.199219 -21.484375 7.851562 -22.410156 8.671875 -23.230469 C 9.105469 -23.664062 9.597656 -23.992188 10.25 -24.15625 C 11.667969 -24.539062 12.597656 -23.828125 12.433594 -22.355469 Z M 12.433594 -22.355469 "/></g></g></g><g fill="#000000" fill-opacity="1"><g transform="translate(218.108855, 623.472943)"><g><path d="M 0.328125 -6.488281 C 0.816406 -3.652344 1.582031 -0.871094 2.945312 1.691406 C 3.597656 2.835938 4.417969 3.816406 5.726562 4.253906 C 9.050781 5.289062 12.160156 4.742188 14.175781 1.746094 C 14.503906 1.308594 14.777344 0.871094 14.996094 0.4375 C 17.339844 -3.925781 18.375 -8.722656 19.738281 -13.414062 C 19.792969 -13.6875 19.902344 -13.960938 19.683594 -14.121094 C 19.140625 -14.558594 18.484375 -14.777344 17.832031 -14.722656 C 17.230469 -14.667969 17.175781 -14.121094 17.011719 -13.6875 C 16.304688 -11.613281 15.648438 -9.542969 14.886719 -7.46875 C 13.851562 -4.742188 13.03125 -1.964844 11.503906 0.492188 C 11.179688 1.035156 10.851562 1.527344 10.46875 2.015625 C 9.324219 3.21875 8.617188 3.109375 7.90625 1.636719 C 7.6875 1.199219 7.523438 0.707031 7.359375 0.21875 C 6.816406 -2.289062 6.324219 -4.742188 6.324219 -7.253906 C 6.214844 -11.667969 6.269531 -16.085938 6.597656 -20.503906 C 6.816406 -24.484375 7.035156 -28.410156 7.523438 -32.335938 C 7.6875 -33.917969 7.6875 -33.917969 9.269531 -34.027344 C 13.523438 -34.242188 17.777344 -34.460938 22.03125 -34.734375 C 22.464844 -34.734375 22.957031 -34.84375 23.390625 -34.898438 C 23.773438 -34.953125 23.882812 -35.171875 23.9375 -35.496094 C 24.101562 -36.644531 23.882812 -37.023438 22.683594 -37.078125 C 21.375 -37.132812 20.011719 -37.132812 18.703125 -37.1875 C 15.59375 -37.242188 12.542969 -36.914062 9.433594 -36.914062 C 7.960938 -36.859375 7.960938 -36.914062 8.070312 -38.332031 C 8.125 -39.261719 8.179688 -40.1875 8.179688 -41.113281 C 8.179688 -42.257812 8.070312 -42.367188 6.980469 -42.421875 C 6 -42.476562 5.015625 -42.421875 4.035156 -42.476562 C 3.21875 -42.476562 2.835938 -42.148438 2.5625 -41.441406 C 2.070312 -40.132812 1.636719 -38.769531 1.417969 -37.40625 C 1.253906 -36.644531 0.871094 -36.316406 0.0546875 -36.261719 C -1.308594 -36.152344 -2.671875 -35.933594 -4.035156 -35.714844 C -5.015625 -35.605469 -5.179688 -35.335938 -5.179688 -34.460938 C -5.179688 -33.480469 -4.472656 -33.535156 -3.871094 -33.535156 C -2.835938 -33.480469 -1.855469 -33.480469 -0.816406 -33.535156 C 0.601562 -33.535156 0.601562 -33.535156 0.4375 -32.171875 C -0.109375 -28.082031 -0.546875 -23.992188 -0.4375 -19.574219 C -0.65625 -15.375 -0.382812 -10.960938 0.328125 -6.488281 Z M 0.328125 -6.488281 "/></g></g></g><g fill="#000000" fill-opacity="1"><g transform="translate(235.175687, 623.472943)"><g><path d="M 22.847656 -15.8125 C 21.976562 -16.414062 21.539062 -16.414062 20.992188 -15.757812 C 20.449219 -15.105469 20.011719 -14.449219 19.519531 -13.796875 C 17.230469 -10.578125 14.832031 -7.414062 12.269531 -4.417969 C 11.832031 -3.871094 11.394531 -3.378906 10.796875 -3 C 9.980469 -2.453125 9.324219 -2.507812 8.617188 -3.273438 C 8.179688 -3.761719 7.796875 -4.363281 7.632812 -4.960938 C 6.707031 -7.90625 6 -10.90625 5.890625 -14.015625 C 5.890625 -14.777344 6.105469 -15.105469 6.871094 -15.324219 C 11.125 -16.578125 13.46875 -19.464844 14.121094 -23.773438 C 14.449219 -26.171875 13.742188 -28.191406 11.722656 -29.609375 C 9.761719 -30.972656 7.632812 -30.699219 5.617188 -29.554688 C 3.816406 -28.464844 2.507812 -26.882812 1.527344 -25.027344 C -0.109375 -21.867188 -0.761719 -18.484375 -0.925781 -14.941406 C -0.980469 -13.796875 -0.816406 -12.703125 -0.601562 -11.558594 C -0.109375 -8.507812 0.980469 -5.671875 3 -3.21875 C 5.507812 -0.164062 11.777344 0.816406 14.886719 -3.378906 C 17.613281 -7.035156 20.285156 -10.742188 22.847656 -14.558594 C 23.121094 -14.941406 23.5 -15.375 22.847656 -15.8125 Z M 6.816406 -22.519531 C 7.144531 -23.882812 7.632812 -25.246094 8.179688 -26.554688 C 8.34375 -26.992188 8.617188 -27.480469 9.160156 -27.425781 C 9.652344 -27.375 9.871094 -26.9375 10.085938 -26.5 C 10.085938 -26.390625 10.140625 -26.28125 10.140625 -26.171875 C 11.070312 -23.339844 9.378906 -18.8125 6.816406 -17.285156 C 6.597656 -17.121094 6.324219 -17.011719 5.945312 -17.121094 C 5.945312 -18.921875 6.378906 -20.71875 6.816406 -22.519531 Z M 6.816406 -22.519531 "/></g></g></g><g fill="#000000" fill-opacity="1"><g transform="translate(255.732222, 623.472943)"><g/></g></g><g fill="#000000" fill-opacity="1"><g transform="translate(272.853582, 623.472943)"><g><path d="M 21.484375 -14.066406 C 21.8125 -19.140625 21.8125 -24.265625 21.648438 -29.390625 C 21.648438 -29.992188 21.539062 -30.589844 21.484375 -31.191406 C 21.429688 -31.953125 21.046875 -32.226562 20.394531 -32.171875 C 19.574219 -32.0625 18.703125 -31.84375 17.832031 -31.898438 C 16.6875 -31.898438 16.03125 -31.300781 15.8125 -30.097656 C 15.703125 -29.664062 15.539062 -29.28125 15.375 -28.898438 C 13.46875 -23.71875 11.832031 -18.429688 9.160156 -13.6875 C 8.722656 -12.867188 8.289062 -12.105469 7.796875 -11.394531 C 7.144531 -10.523438 6.652344 -10.632812 6.269531 -11.667969 C 5.78125 -12.976562 5.726562 -14.394531 5.671875 -15.8125 C 5.507812 -20.503906 5.835938 -25.191406 6.433594 -29.828125 C 6.542969 -30.863281 6.707031 -31.84375 6.871094 -32.878906 C 6.980469 -33.644531 6.652344 -34.027344 5.945312 -33.917969 C 5.070312 -33.808594 4.199219 -33.753906 3.378906 -33.644531 C 1.636719 -33.480469 1.527344 -33.425781 1.144531 -31.460938 C 0.164062 -26.445312 -0.328125 -21.375 -0.21875 -16.195312 C -0.164062 -14.175781 0.109375 -12.105469 0.980469 -10.195312 C 1.636719 -8.671875 2.671875 -7.742188 4.144531 -7.414062 C 6.816406 -6.871094 9.050781 -7.523438 10.6875 -10.085938 C 12.105469 -12.269531 13.304688 -14.558594 14.339844 -16.957031 C 14.503906 -17.394531 14.558594 -17.941406 15.214844 -18.15625 C 14.886719 -14.667969 14.613281 -11.289062 14.285156 -7.90625 C 14.230469 -7.199219 13.90625 -6.707031 13.304688 -6.433594 C 12.324219 -5.890625 11.289062 -5.289062 10.304688 -4.6875 C 7.796875 -3.21875 5.453125 -1.527344 3.542969 0.816406 C 2.453125 2.125 1.636719 3.597656 1.144531 5.34375 C 0.21875 9.050781 1.746094 12.105469 5.015625 12.976562 C 8.453125 13.796875 11.503906 13.03125 14.121094 10.25 C 15.648438 8.5625 16.847656 6.597656 17.832031 4.472656 C 19.464844 0.871094 20.394531 -3 20.9375 -6.980469 C 21.101562 -7.851562 21.375 -8.398438 22.03125 -8.832031 C 24.429688 -10.46875 26.554688 -12.542969 28.410156 -14.941406 C 28.683594 -15.269531 28.953125 -15.539062 29.117188 -15.921875 C 29.609375 -16.792969 28.84375 -17.230469 28.464844 -17.722656 C 28.136719 -18.210938 27.808594 -17.777344 27.535156 -17.503906 C 26.828125 -16.738281 26.171875 -15.921875 25.464844 -15.214844 C 24.265625 -13.960938 23.066406 -12.757812 21.484375 -11.777344 C 21.484375 -12.703125 21.429688 -13.359375 21.484375 -14.066406 Z M 13.523438 -3 C 12.8125 0.925781 11.996094 4.796875 10.085938 8.234375 C 9.761719 8.832031 9.378906 9.324219 8.941406 9.761719 C 7.523438 11.070312 5.945312 10.578125 5.34375 8.671875 C 4.960938 7.414062 5.070312 6.160156 5.507812 4.90625 C 6 3.433594 6.761719 2.125 7.796875 0.980469 C 9.378906 -0.816406 11.289062 -2.125 13.304688 -3.433594 C 13.46875 -3.109375 13.523438 -3.054688 13.523438 -3 Z M 13.523438 -3 "/></g></g></g><g fill="#000000" fill-opacity="1"><g transform="translate(299.353522, 623.472943)"><g><path d="M 13.359375 -15.539062 C 13.742188 -15.484375 14.066406 -15.375 14.394531 -15.324219 C 17.558594 -14.558594 20.667969 -15.160156 23.71875 -15.921875 C 24.375 -16.085938 24.539062 -16.414062 24.375 -17.066406 C 24.265625 -17.667969 23.828125 -17.722656 23.339844 -17.613281 C 22.738281 -17.449219 22.136719 -17.394531 21.539062 -17.230469 C 17.722656 -16.25 14.667969 -17.503906 11.996094 -20.175781 C 11.558594 -20.613281 11.125 -21.046875 10.6875 -21.484375 C 10.140625 -22.082031 9.542969 -22.628906 8.886719 -23.121094 C 7.253906 -24.320312 6 -24.320312 4.417969 -23.066406 C 3.433594 -22.355469 2.726562 -21.429688 2.070312 -20.449219 C -0.0546875 -17.175781 -1.144531 -13.578125 -1.472656 -9.707031 C -1.691406 -7.578125 -1.363281 -5.507812 -0.382812 -3.597656 C 0.546875 -1.800781 1.910156 -0.546875 3.871094 -0.109375 C 7.742188 0.816406 10.6875 -0.707031 12.214844 -4.363281 C 13.578125 -7.742188 14.066406 -11.179688 13.140625 -14.777344 C 13.085938 -14.941406 13.140625 -15.160156 13.085938 -15.429688 C 13.304688 -15.484375 13.304688 -15.539062 13.359375 -15.539062 Z M 7.796875 -19.085938 C 10.6875 -14.285156 11.289062 -9.269531 8.832031 -4.144531 C 8.453125 -3.433594 8.070312 -2.78125 7.46875 -2.234375 C 6.761719 -1.582031 6.105469 -1.636719 5.507812 -2.453125 C 5.125 -2.945312 4.960938 -3.488281 4.742188 -4.089844 C 4.089844 -6.433594 4.089844 -8.777344 4.417969 -11.125 C 4.742188 -13.304688 5.125 -15.484375 5.835938 -17.558594 C 6.105469 -18.375 6.433594 -19.195312 6.980469 -19.847656 C 7.414062 -19.683594 7.632812 -19.359375 7.796875 -19.085938 Z M 7.796875 -19.085938 "/></g></g></g><g fill="#000000" fill-opacity="1"><g transform="translate(321.109644, 623.472943)"><g><path d="M 16.523438 -15.214844 C 16.523438 -15.160156 16.523438 -15.105469 16.523438 -15.105469 C 16.46875 -15.050781 16.46875 -15.050781 16.414062 -15.050781 C 16.46875 -13.578125 16.304688 -12.160156 16.195312 -10.742188 C 15.976562 -7.035156 15.921875 -3.328125 16.414062 0.382812 C 16.632812 1.746094 16.957031 3.109375 17.449219 4.417969 C 18.046875 6 19.195312 6.871094 20.9375 6.925781 C 22.683594 6.980469 24.046875 6.488281 24.863281 4.796875 C 25.191406 4.035156 25.519531 3.273438 25.792969 2.507812 C 27.425781 -1.964844 28.683594 -6.597656 30.046875 -11.179688 C 30.644531 -12.976562 30.589844 -12.976562 28.683594 -13.140625 C 28.082031 -13.195312 27.699219 -12.976562 27.535156 -12.433594 C 27.320312 -11.777344 27.046875 -11.179688 26.828125 -10.523438 C 25.519531 -6.433594 24.15625 -2.34375 22.792969 1.746094 C 22.574219 2.398438 22.410156 3.109375 21.8125 3.761719 C 21.539062 3 21.429688 2.289062 21.429688 1.582031 C 21.375 -0.0546875 21.320312 -1.691406 21.320312 -3.378906 C 21.375 -10.03125 22.191406 -16.6875 22.464844 -23.339844 C 22.519531 -24.265625 22.519531 -25.191406 22.410156 -26.117188 C 22.300781 -26.828125 21.921875 -27.101562 21.265625 -27.046875 C 20.558594 -26.992188 19.847656 -26.882812 19.140625 -26.9375 C 18.15625 -26.992188 17.722656 -26.554688 17.394531 -25.738281 C 16.25 -22.847656 15.050781 -19.957031 13.90625 -17.011719 C 12.433594 -13.46875 11.070312 -9.871094 9.105469 -6.542969 C 8.777344 -6.050781 8.5625 -5.507812 8.125 -5.125 C 7.523438 -4.527344 7.035156 -4.582031 6.707031 -5.34375 C 6.269531 -6.324219 6.105469 -7.414062 6 -8.507812 C 5.507812 -12.433594 5.78125 -16.359375 6.160156 -20.339844 C 6.378906 -22.957031 6.488281 -25.574219 6.597656 -28.191406 C 6.652344 -29.171875 6.542969 -29.28125 5.617188 -29.226562 C 4.363281 -29.171875 3.164062 -29.0625 1.910156 -28.953125 C 1.527344 -28.898438 1.253906 -28.683594 1.199219 -28.300781 C 1.144531 -27.863281 1.035156 -27.480469 0.980469 -27.046875 C 0.273438 -21.703125 0.164062 -16.304688 0.382812 -10.90625 C 0.4375 -8.886719 0.761719 -6.816406 1.636719 -4.90625 C 2.125 -3.980469 2.671875 -3.164062 3.652344 -2.671875 C 6.105469 -1.472656 9.324219 -2.234375 11.070312 -4.308594 C 11.886719 -5.34375 12.542969 -6.433594 13.03125 -7.632812 C 13.960938 -9.652344 14.832031 -11.667969 15.703125 -13.6875 C 15.921875 -14.121094 15.976562 -14.722656 16.414062 -14.996094 C 16.46875 -15.050781 16.46875 -15.160156 16.523438 -15.214844 Z M 16.523438 -15.214844 "/></g></g></g><g fill="#000000" fill-opacity="1"><g transform="translate(348.809159, 623.472943)"><g><path d="M 10.46875 -26.335938 C 9.105469 -20.066406 8.453125 -13.742188 8.507812 -7.359375 C 8.507812 -3.980469 9.050781 -0.707031 10.742188 2.34375 C 11.070312 2.945312 11.449219 3.542969 11.941406 4.089844 C 13.46875 5.890625 18.101562 6 20.066406 4.089844 C 21.648438 2.507812 22.902344 0.707031 23.9375 -1.253906 C 26.390625 -5.835938 27.972656 -10.796875 29.445312 -15.757812 C 29.609375 -16.359375 29.773438 -16.957031 29.882812 -17.558594 C 29.992188 -17.832031 30.046875 -18.101562 29.773438 -18.265625 C 29.171875 -18.648438 28.519531 -18.59375 27.863281 -18.59375 C 27.375 -18.59375 27.265625 -18.046875 27.15625 -17.667969 C 26.335938 -15.429688 25.464844 -13.140625 24.703125 -10.851562 C 23.609375 -7.523438 22.410156 -4.144531 20.613281 -1.089844 C 19.738281 0.382812 18.8125 1.800781 17.503906 2.945312 C 16.632812 3.707031 16.304688 3.652344 15.921875 2.507812 C 15.269531 0.601562 15.050781 -1.417969 14.941406 -3.433594 C 14.777344 -8.234375 15.050781 -12.976562 15.757812 -17.722656 C 16.195312 -20.503906 16.6875 -23.285156 17.011719 -26.117188 C 17.285156 -28.136719 16.523438 -28.953125 14.449219 -28.953125 C 13.03125 -28.953125 11.558594 -28.953125 10.140625 -29.0625 C 8.886719 -29.117188 7.632812 -29.28125 6.597656 -29.882812 C 5.398438 -30.589844 4.144531 -30.644531 2.890625 -30.808594 C 2.070312 -30.917969 1.582031 -30.699219 1.472656 -29.828125 C 1.417969 -29.390625 1.308594 -29.007812 1.253906 -28.628906 C 1.089844 -26.117188 0.816406 -23.609375 0.65625 -21.046875 C 0.382812 -15.703125 -0.164062 -10.414062 -1.035156 -5.125 C -1.308594 -3.761719 -1.527344 -2.398438 -1.527344 -1.035156 C -1.527344 -0.65625 -1.582031 -0.328125 -1.144531 -0.109375 C 0.328125 0.492188 1.199219 0.0546875 1.582031 -1.417969 C 1.582031 -1.582031 1.636719 -1.746094 1.636719 -1.910156 C 3.21875 -8.996094 4.363281 -16.140625 4.796875 -23.390625 C 4.90625 -24.917969 5.070312 -26.445312 5.179688 -28.136719 C 6.980469 -27.644531 8.722656 -27.589844 10.523438 -27.375 C 10.6875 -26.882812 10.523438 -26.609375 10.46875 -26.335938 Z M 10.46875 -26.335938 "/></g></g></g><g fill="#000000" fill-opacity="1"><g transform="translate(374.872897, 623.472943)"><g/></g></g><g fill="#000000" fill-opacity="1"><g transform="translate(391.994256, 623.472943)"><g><path d="M 13.359375 -15.539062 C 13.742188 -15.484375 14.066406 -15.375 14.394531 -15.324219 C 17.558594 -14.558594 20.667969 -15.160156 23.71875 -15.921875 C 24.375 -16.085938 24.539062 -16.414062 24.375 -17.066406 C 24.265625 -17.667969 23.828125 -17.722656 23.339844 -17.613281 C 22.738281 -17.449219 22.136719 -17.394531 21.539062 -17.230469 C 17.722656 -16.25 14.667969 -17.503906 11.996094 -20.175781 C 11.558594 -20.613281 11.125 -21.046875 10.6875 -21.484375 C 10.140625 -22.082031 9.542969 -22.628906 8.886719 -23.121094 C 7.253906 -24.320312 6 -24.320312 4.417969 -23.066406 C 3.433594 -22.355469 2.726562 -21.429688 2.070312 -20.449219 C -0.0546875 -17.175781 -1.144531 -13.578125 -1.472656 -9.707031 C -1.691406 -7.578125 -1.363281 -5.507812 -0.382812 -3.597656 C 0.546875 -1.800781 1.910156 -0.546875 3.871094 -0.109375 C 7.742188 0.816406 10.6875 -0.707031 12.214844 -4.363281 C 13.578125 -7.742188 14.066406 -11.179688 13.140625 -14.777344 C 13.085938 -14.941406 13.140625 -15.160156 13.085938 -15.429688 C 13.304688 -15.484375 13.304688 -15.539062 13.359375 -15.539062 Z M 7.796875 -19.085938 C 10.6875 -14.285156 11.289062 -9.269531 8.832031 -4.144531 C 8.453125 -3.433594 8.070312 -2.78125 7.46875 -2.234375 C 6.761719 -1.582031 6.105469 -1.636719 5.507812 -2.453125 C 5.125 -2.945312 4.960938 -3.488281 4.742188 -4.089844 C 4.089844 -6.433594 4.089844 -8.777344 4.417969 -11.125 C 4.742188 -13.304688 5.125 -15.484375 5.835938 -17.558594 C 6.105469 -18.375 6.433594 -19.195312 6.980469 -19.847656 C 7.414062 -19.683594 7.632812 -19.359375 7.796875 -19.085938 Z M 7.796875 -19.085938 "/></g></g></g><g fill="#000000" fill-opacity="1"><g transform="translate(413.750366, 623.472943)"><g><path d="M 13.960938 -10.632812 C 14.230469 -8.722656 14.667969 -6.816406 15.429688 -4.960938 C 16.03125 -3.328125 16.847656 -1.800781 18.101562 -0.546875 C 21.484375 2.890625 26.828125 2.015625 28.898438 -2.289062 C 29.828125 -4.199219 30.316406 -6.214844 30.753906 -8.289062 C 31.082031 -10.03125 31.355469 -11.832031 31.570312 -13.632812 C 31.679688 -14.285156 31.898438 -14.503906 32.554688 -14.394531 C 33.316406 -14.230469 34.078125 -14.121094 34.84375 -13.960938 C 36.859375 -13.632812 38.824219 -13.578125 40.839844 -13.90625 C 41.714844 -14.066406 41.878906 -14.339844 41.824219 -15.269531 C 41.824219 -16.140625 41.222656 -16.085938 40.679688 -16.085938 C 40.40625 -16.085938 40.132812 -16.03125 39.859375 -15.976562 C 37.789062 -15.703125 35.769531 -16.085938 33.753906 -16.46875 C 32.226562 -16.792969 31.898438 -17.394531 31.898438 -18.976562 C 31.898438 -21.320312 31.789062 -23.609375 31.40625 -25.902344 C 31.082031 -27.589844 30.644531 -29.226562 29.71875 -30.644531 C 28.628906 -32.390625 26.882812 -32.933594 25.191406 -32.117188 C 24.046875 -31.570312 23.339844 -30.699219 22.957031 -29.5 C 22.519531 -28.191406 22.519531 -26.828125 22.792969 -25.519531 C 23.5 -22.082031 25.191406 -19.195312 27.699219 -16.792969 C 28.355469 -16.140625 28.574219 -15.539062 28.519531 -14.613281 C 28.246094 -11.449219 27.699219 -8.34375 26.664062 -5.289062 C 26.335938 -4.417969 25.902344 -3.597656 25.519531 -2.726562 C 25.246094 -2.125 24.863281 -1.527344 24.101562 -1.527344 C 23.230469 -1.527344 22.957031 -2.179688 22.738281 -2.835938 C 22.410156 -3.597656 22.082031 -4.417969 21.8125 -5.289062 C 20.339844 -10.742188 19.140625 -16.25 18.703125 -21.921875 C 18.429688 -24.863281 18.15625 -25.136719 15.214844 -25.027344 C 14.066406 -25.027344 13.960938 -24.917969 13.6875 -23.71875 C 12.269531 -16.523438 10.140625 -9.488281 8.179688 -2.398438 C 7.960938 -1.746094 8.015625 -0.65625 7.199219 -0.761719 C 6.433594 -0.816406 6.488281 -1.855469 6.378906 -2.5625 C 5.453125 -8.453125 5.617188 -14.339844 5.890625 -20.230469 C 5.945312 -22.03125 6.160156 -23.828125 6.269531 -25.628906 C 6.324219 -27.046875 6.050781 -27.320312 4.582031 -27.320312 C 4.035156 -27.320312 3.488281 -27.210938 2.890625 -27.210938 C 2.179688 -27.265625 1.746094 -26.882812 1.582031 -26.226562 C 1.472656 -25.847656 1.363281 -25.519531 1.253906 -25.191406 C -0.328125 -18.59375 -0.761719 -11.941406 0.164062 -5.289062 C 0.492188 -2.671875 1.199219 -0.109375 2.398438 2.234375 C 2.945312 3.328125 3.761719 3.980469 5.015625 4.144531 C 7.359375 4.417969 8.453125 3.871094 9.433594 1.691406 C 10.632812 -1.089844 11.449219 -3.980469 12.214844 -6.925781 C 12.652344 -8.507812 13.085938 -10.085938 13.578125 -11.941406 C 13.960938 -11.34375 13.960938 -10.960938 13.960938 -10.632812 Z M 27.15625 -27.972656 C 28.136719 -26.445312 28.191406 -24.753906 28.355469 -23.066406 C 27.480469 -24.539062 26.882812 -26.171875 27.15625 -27.972656 Z M 27.15625 -27.972656 "/></g></g></g><g fill="#000000" fill-opacity="1"><g transform="translate(454.154581, 623.472943)"><g><path d="M 30.644531 -15.921875 C 29.71875 -16.140625 29.609375 -15.484375 29.390625 -14.886719 C 28.246094 -11.503906 26.992188 -8.125 25.300781 -4.90625 C 24.753906 -3.871094 24.210938 -2.835938 23.445312 -1.910156 C 23.011719 -1.363281 22.574219 -0.65625 21.757812 -0.816406 C 20.828125 -0.925781 20.882812 -1.855469 20.613281 -2.507812 C 20.558594 -2.671875 20.558594 -2.890625 20.503906 -3.109375 C 19.628906 -7.035156 20.011719 -10.960938 20.394531 -14.886719 C 20.613281 -17.011719 20.667969 -19.085938 20.449219 -21.210938 C 20.339844 -22.683594 20.066406 -24.15625 19.304688 -25.519531 C 18.265625 -27.375 16.46875 -28.191406 14.339844 -27.699219 C 12.378906 -27.265625 10.960938 -26.0625 9.761719 -24.539062 C 8.179688 -22.574219 7.035156 -20.394531 6 -18.15625 C 5.78125 -17.722656 5.671875 -17.230469 5.070312 -16.738281 C 5.070312 -17.394531 5.070312 -17.886719 5.070312 -18.375 C 5.070312 -21.101562 5.070312 -23.828125 5.070312 -26.554688 C 5.070312 -26.9375 5.070312 -27.375 5.015625 -27.808594 C 4.960938 -28.464844 4.636719 -28.789062 3.925781 -28.789062 C 3 -28.734375 2.070312 -28.734375 1.144531 -28.734375 C 0.4375 -28.734375 0 -28.410156 -0.0546875 -27.699219 C -0.109375 -27.375 -0.21875 -27.101562 -0.273438 -26.773438 C -1.417969 -19.957031 -1.746094 -13.085938 -1.417969 -6.160156 C -1.363281 -4.308594 -1.035156 -2.398438 -0.761719 -0.546875 C -0.546875 1.035156 -0.328125 1.144531 1.253906 1.035156 C 1.800781 0.980469 2.289062 0.980469 2.835938 0.925781 C 4.199219 0.925781 4.199219 0.871094 4.472656 -0.492188 C 5.453125 -5.726562 6.707031 -10.851562 8.453125 -15.867188 C 9.542969 -18.976562 11.179688 -21.867188 13.25 -24.429688 C 13.632812 -24.863281 14.015625 -25.519531 14.722656 -25.355469 C 15.539062 -25.191406 15.59375 -24.375 15.703125 -23.773438 C 16.140625 -21.8125 16.304688 -19.847656 16.195312 -17.832031 C 16.03125 -14.121094 15.59375 -10.414062 15.8125 -6.707031 C 15.921875 -4.90625 16.195312 -3.109375 16.847656 -1.417969 C 17.230469 -0.492188 17.777344 0.382812 18.757812 0.871094 C 20.613281 1.691406 23.390625 1.253906 24.863281 -0.0546875 C 25.464844 -0.65625 26.011719 -1.253906 26.445312 -1.964844 C 28.953125 -5.78125 30.480469 -10.03125 31.625 -14.449219 C 31.898438 -15.484375 31.625 -15.648438 30.644531 -15.921875 Z M 30.644531 -15.921875 "/></g></g></g></svg>