<svg xmlns="http://www.w3.org/2000/svg" xmlns:xlink="http://www.w3.org/1999/xlink" width="793" zoomAndPan="magnify" viewBox="0 0 594.95996 842.24997" height="1122" preserveAspectRatio="xMidYMid meet" version="1.0"><defs><g/><clipPath id="8bb5583c60"><path d="M 59.667969 59.425781 L 535.066406 59.425781 L 535.066406 776.988281 L 59.667969 776.988281 Z M 59.667969 59.425781 " clip-rule="nonzero"/></clipPath><clipPath id="7a161f6dee"><path d="M 145.488281 109.804688 L 449.464844 109.804688 L 449.464844 445.972656 L 145.488281 445.972656 Z M 145.488281 109.804688 " clip-rule="nonzero"/></clipPath><clipPath id="da7a8a9601"><path d="M 150 132 L 449.464844 132 L 449.464844 445.972656 L 150 445.972656 Z M 150 132 " clip-rule="nonzero"/></clipPath><clipPath id="7d44255eca"><path d="M 145.488281 109.804688 L 443 109.804688 L 443 444 L 145.488281 444 Z M 145.488281 109.804688 " clip-rule="nonzero"/></clipPath><clipPath id="adfd92d567"><path d="M 149 132 L 449.464844 132 L 449.464844 445.972656 L 149 445.972656 Z M 149 132 " clip-rule="nonzero"/></clipPath></defs><g clip-path="url(#8bb5583c60)"><path fill="#c9eafa" d="M 59.667969 59.425781 L 535.238281 59.425781 L 535.238281 777.058594 L 59.667969 777.058594 Z M 59.667969 59.425781 " fill-opacity="1" fill-rule="nonzero"/></g><g clip-path="url(#7a161f6dee)"><path fill="#ffffff" d="M 443.652344 132.382812 L 389.890625 132.382812 L 389.890625 126.558594 C 389.890625 123.539062 387.441406 121.089844 384.421875 121.089844 L 363.804688 121.089844 C 363.808594 120.964844 363.824219 120.84375 363.824219 120.714844 C 363.824219 114.738281 358.972656 109.890625 352.992188 109.890625 C 347.007812 109.890625 342.160156 114.738281 342.160156 120.71875 C 342.160156 120.84375 342.175781 120.964844 342.179688 121.089844 L 321.5625 121.089844 C 318.539062 121.089844 316.089844 123.539062 316.089844 126.558594 L 316.089844 132.382812 L 262.328125 132.382812 C 259.097656 132.382812 256.46875 135.007812 256.46875 138.238281 L 256.46875 250.496094 C 254.8125 249.582031 252.757812 249.0625 251.425781 247.699219 C 248.847656 245.054688 250.035156 240.746094 250.773438 237.132812 C 251.546875 233.3125 251.546875 229.117188 249.542969 225.777344 C 247.914062 223.058594 244.65625 221.195312 241.605469 221.496094 C 241.5625 221.296875 241.523438 221.097656 241.472656 220.898438 C 239.574219 213.339844 233.375 207.015625 225.851562 204.964844 C 218.324219 202.910156 209.769531 205.214844 204.292969 210.761719 C 202.058594 213.027344 200.285156 215.792969 197.648438 217.566406 C 194.667969 219.570312 190.953125 220.066406 187.609375 221.378906 C 184.429688 222.632812 181.277344 225.203125 181.066406 228.542969 C 180.578125 230.402344 179.992188 231.660156 176.332031 233.441406 C 171.375 235.855469 169.273438 244.421875 169.273438 244.421875 C 168.019531 248.917969 170.347656 252.441406 169.914062 254.378906 C 169.132812 257.878906 164.863281 259.003906 161.527344 260.328125 C 155.9375 262.550781 151.34375 267.160156 149.140625 272.753906 C 152.816406 277.332031 156.488281 281.90625 160.164062 286.484375 C 161.757812 285.324219 163.351562 284.164062 164.945312 283.003906 C 164.890625 285.765625 164.089844 288.503906 162.652344 290.863281 C 171.113281 295.808594 180.667969 298.867188 190.429688 299.761719 C 190.710938 299.785156 191 299.796875 191.289062 299.8125 C 191.285156 299.824219 191.28125 299.839844 191.28125 299.851562 L 191.308594 300.804688 L 191.503906 300.523438 L 187.277344 306.660156 C 186.875 306.660156 179.917969 309.414062 173.003906 312.6875 L 168.78125 311.816406 C 168.648438 311.792969 168.515625 311.824219 168.410156 311.902344 L 164.183594 315.101562 C 164.140625 315.132812 164.117188 315.175781 164.089844 315.21875 L 163.003906 315.003906 L 163.210938 317.890625 C 161.25 319.128906 159.789062 320.273438 159.226562 321.195312 C 159.226562 321.195312 151.785156 326.070312 149.835938 341.597656 C 148.53125 351.976562 146.054688 379.449219 145.570312 384.855469 C 145.527344 385.34375 145.933594 385.75 146.421875 385.710938 L 149.792969 385.429688 C 149.792969 385.40625 149.792969 385.371094 149.792969 385.359375 C 149.734375 386.246094 151.84375 409.605469 155.042969 429.957031 C 156.421875 438.734375 165.304688 445.875 174.839844 445.875 C 177.949219 445.875 180.953125 445.085938 183.605469 443.664062 L 267.988281 443.695312 L 263.613281 413.484375 L 263.3125 404.378906 L 263.328125 404.839844 L 286.1875 404.839844 C 289.714844 408.152344 297.203125 410.390625 304.707031 410.390625 C 305.335938 410.390625 305.96875 410.375 306.59375 410.34375 C 308.347656 410.253906 309.953125 409.402344 311.367188 407.808594 C 312.113281 406.96875 312.773438 405.957031 313.359375 404.835938 C 313.359375 404.835938 313.359375 404.839844 313.359375 404.839844 L 443.65625 404.839844 C 446.886719 404.839844 449.515625 402.210938 449.515625 398.984375 L 449.515625 138.238281 C 449.511719 135.007812 446.882812 132.382812 443.652344 132.382812 Z M 256.46875 282.761719 L 256.46875 293.101562 C 254.242188 291.933594 252.488281 291.085938 252.058594 291.085938 C 250.515625 291.085938 244.78125 298.726562 244.675781 299.890625 C 244.578125 300.972656 245.167969 301.804688 245.425781 302.117188 L 245.484375 302.679688 C 244.613281 302.699219 243.808594 303 243.175781 303.59375 C 241.746094 304.929688 241.800781 306.460938 242.125 307.738281 L 234.09375 305.035156 L 229.328125 300.886719 L 229.332031 299.085938 C 232.511719 298.78125 235.734375 298.140625 238.753906 296.3125 C 242.503906 294.863281 246.074219 292.839844 249.316406 290.472656 C 251.097656 289.171875 252.84375 287.722656 253.96875 285.824219 C 255.097656 283.929688 255.523438 281.492188 254.578125 279.496094 C 255.363281 280.847656 255.445312 280.988281 256.226562 282.339844 C 256.074219 282.078125 256.621094 283.027344 256.46875 282.761719 Z M 352.992188 126.589844 C 349.746094 126.589844 347.113281 123.960938 347.113281 120.714844 C 347.113281 117.472656 349.746094 114.84375 352.992188 114.84375 C 356.238281 114.84375 358.867188 117.472656 358.867188 120.714844 C 358.867188 123.960938 356.238281 126.589844 352.992188 126.589844 Z M 352.992188 126.589844 " fill-opacity="1" fill-rule="nonzero"/></g><g clip-path="url(#da7a8a9601)"><path fill="#ffffff" d="M 191.765625 300.691406 L 191.742188 299.835938 C 193.753906 299.902344 195.824219 299.628906 197.167969 298.207031 C 199.292969 295.957031 198.378906 292.300781 199.246094 289.332031 C 200.59375 284.726562 206.070312 282.292969 207.496094 277.714844 C 208.773438 273.613281 206.414062 269.378906 204.5 265.535156 C 202.585938 261.691406 201.167969 256.707031 203.910156 253.402344 C 206.394531 250.398438 211.410156 250.09375 213.273438 246.671875 C 215.355469 242.855469 212.464844 236.898438 215.996094 234.359375 C 217.65625 233.160156 219.925781 233.496094 221.945312 233.160156 C 226.214844 232.449219 229.386719 228.550781 230.558594 224.386719 C 230.785156 223.582031 230.9375 222.769531 231.054688 221.949219 C 239.027344 223.960938 244.191406 234.511719 244.765625 243.355469 C 245.507812 254.730469 245.964844 266.734375 244.636719 275.226562 C 241.960938 292.300781 228.875 294.5 228.875 294.5 C 228.875 294.484375 228.871094 297.597656 228.867188 301.214844 L 219.101562 318.195312 Z M 443.652344 132.84375 L 262.328125 132.84375 C 259.347656 132.84375 256.929688 135.257812 256.929688 138.238281 L 256.929688 293.867188 C 254.472656 292.554688 252.457031 291.546875 252.058594 291.546875 C 250.90625 291.546875 245.242188 298.777344 245.136719 299.929688 C 245.03125 301.082031 245.871094 301.921875 245.871094 301.921875 L 245.996094 303.152344 C 245.367188 303.070312 244.363281 303.109375 243.488281 303.929688 C 242.097656 305.234375 242.269531 306.710938 242.707031 308.101562 C 243.140625 309.492188 244.011719 309.925781 244.011719 309.925781 L 246.554688 308.734375 L 246.394531 307.164062 L 246.605469 309.261719 C 246.605469 309.261719 245.765625 310.886719 246.394531 312.378906 C 247.023438 313.871094 249.542969 313.871094 249.542969 313.871094 L 248.597656 317.046875 C 248.597656 317.046875 248.644531 317.847656 248.765625 318.753906 L 213.363281 320.523438 L 211.289062 325.359375 L 210.5 320.878906 L 168.6875 312.269531 L 164.460938 315.46875 L 214.019531 344.007812 L 256.929688 321.699219 L 256.929688 398.984375 C 256.929688 401.964844 259.347656 404.378906 262.328125 404.378906 L 286.378906 404.378906 C 290.121094 408.039062 298.753906 410.285156 306.570312 409.886719 C 309.367188 409.742188 311.496094 407.507812 313.070312 404.378906 L 443.652344 404.378906 C 446.632812 404.378906 449.050781 401.964844 449.050781 398.984375 L 449.050781 138.238281 C 449.050781 135.257812 446.632812 132.84375 443.652344 132.84375 Z M 227.484375 357.613281 C 226.230469 357.054688 209.75 371.152344 209.75 371.152344 C 209.75 371.152344 223.574219 358.871094 224.414062 358.03125 C 225.25 357.195312 225.808594 356.078125 224.972656 353.84375 C 224.132812 351.613281 221.480469 352.449219 220.503906 352.589844 C 219.527344 352.730469 203.882812 365.847656 203.882812 365.847656 C 203.882812 365.847656 212.960938 357.054688 213.800781 356.355469 C 214.636719 355.660156 214.917969 354.402344 214.636719 352.730469 C 214.359375 351.054688 212.542969 351.195312 211.285156 351.195312 C 210.242188 351.195312 196.546875 363.195312 191.90625 367.289062 C 190.945312 368.136719 190.457031 369.390625 190.585938 370.660156 L 191.3125 377.851562 L 188.761719 388.667969 L 179.507812 402.9375 L 178.957031 382.992188 L 150.25 385.390625 C 150.199219 386.167969 152.316406 409.636719 155.496094 429.886719 C 156.882812 438.71875 165.894531 445.414062 174.839844 445.414062 C 181.894531 445.414062 188.3125 441.332031 191.300781 434.941406 L 207.398438 394.660156 C 209.507812 392.421875 211.539062 389.78125 212.125 389.015625 C 213.101562 387.734375 218.6875 378.269531 218.6875 378.269531 C 220.921875 377.011719 224.132812 371.988281 225.390625 370.59375 C 226.648438 369.195312 226.230469 368.5 225.53125 367.382812 C 225.15625 366.78125 221.507812 369.695312 218.214844 372.515625 L 218.96875 371.847656 C 218.96875 371.847656 221.742188 369.242188 224.449219 366.574219 C 226.714844 364.339844 228.933594 362.066406 229.441406 361.242188 C 230.558594 359.425781 228.742188 358.171875 227.484375 357.613281 Z M 227.484375 357.613281 " fill-opacity="1" fill-rule="nonzero"/></g><path fill="#f75e61" d="M 241.375 312.398438 C 241.375 312.398438 238.96875 314.042969 238.882812 314.539062 C 238.820312 314.898438 239.257812 315.347656 239.9375 315.117188 C 240.53125 314.914062 242.191406 313.914062 242.191406 313.914062 Z M 241.375 312.398438 " fill-opacity="1" fill-rule="nonzero"/><g clip-path="url(#7d44255eca)"><path fill="#4a9bb4" d="M 210.5 320.875 L 172.3125 313.015625 C 179.449219 309.597656 186.863281 306.660156 187.277344 306.660156 L 191.503906 300.523438 L 219.101562 318.199219 L 229.148438 300.730469 L 234.09375 305.035156 L 242.125 307.738281 C 242.167969 307.910156 242.214844 308.078125 242.265625 308.238281 C 242.523438 309.054688 242.917969 309.578125 243.246094 309.90625 L 243.578125 309.589844 C 243.824219 309.828125 244.011719 309.925781 244.011719 309.925781 L 245.9375 309.023438 L 246.128906 309.085938 L 246.136719 309.179688 C 245.9375 309.625 245.367188 311.125 245.972656 312.558594 C 246.503906 313.820312 248.066406 314.1875 248.9375 314.289062 L 248.15625 316.914062 C 248.144531 316.964844 248.136719 317.019531 248.140625 317.074219 C 248.160156 317.414062 248.207031 318.066406 248.300781 318.773438 L 248.765625 318.753906 L 213.363281 320.523438 L 211.289062 325.359375 Z M 264.414062 391.058594 L 277.171875 391.058594 L 276.546875 390.140625 L 264.875 390.140625 L 264.875 377.289062 L 266.050781 378.472656 C 266.597656 379.035156 267.542969 378.835938 267.820312 378.105469 L 267.632812 377.832031 C 267.550781 377.710938 267.53125 377.554688 267.582031 377.417969 L 272.59375 363.707031 C 269.1875 351.554688 266.214844 340.472656 265.296875 337.039062 C 265.164062 336.976562 265.019531 336.921875 264.875 336.867188 L 264.875 336.371094 C 264.554688 336.253906 264.25 336.113281 263.953125 335.957031 L 263.953125 336.46875 C 262.371094 335.675781 261.074219 334.382812 260.238281 333.214844 C 260.242188 332.910156 260.242188 332.652344 260.246094 332.398438 C 259.972656 331.949219 259.792969 331.554688 259.714844 331.269531 C 259.4375 330.257812 257.691406 323.234375 257.269531 321.523438 L 214.019531 344.007812 L 165.902344 316.296875 C 162.609375 318.132812 160.027344 319.882812 159.222656 321.195312 C 159.222656 321.195312 151.785156 326.070312 149.832031 341.597656 C 148.527344 351.976562 146.050781 379.449219 145.566406 384.855469 C 145.523438 385.34375 145.933594 385.75 146.421875 385.707031 L 149.789062 385.425781 C 149.789062 385.40625 149.789062 385.371094 149.789062 385.359375 C 149.804688 385.132812 149.984375 384.949219 150.210938 384.929688 L 178.917969 382.535156 C 179.042969 382.519531 179.167969 382.566406 179.261719 382.648438 C 179.355469 382.734375 179.410156 382.851562 179.414062 382.980469 L 179.925781 401.441406 L 188.332031 388.480469 L 190.847656 377.816406 L 190.125 370.707031 C 189.980469 369.289062 190.53125 367.882812 191.597656 366.941406 C 209.980469 350.730469 210.960938 350.730469 211.285156 350.730469 L 211.550781 350.730469 C 212.832031 350.722656 214.765625 350.703125 215.089844 352.652344 C 215.480469 354.992188 214.765625 356.152344 214.09375 356.710938 C 213.957031 356.824219 213.585938 357.164062 213.066406 357.65625 C 216.707031 354.707031 219.921875 352.207031 220.4375 352.132812 C 220.550781 352.113281 220.6875 352.089844 220.84375 352.058594 C 222.039062 351.828125 224.53125 351.359375 225.402344 353.679688 C 226.371094 356.265625 225.554688 357.535156 224.738281 358.355469 C 224.625 358.464844 224.296875 358.769531 223.808594 359.214844 C 225.804688 357.800781 227.230469 356.992188 227.671875 357.191406 C 228.4375 357.527344 229.777344 358.28125 230.148438 359.488281 C 230.351562 360.140625 230.246094 360.808594 229.832031 361.480469 C 229.378906 362.214844 227.675781 364.035156 224.769531 366.898438 C 224.71875 366.949219 224.664062 367.003906 224.609375 367.054688 C 225.136719 366.796875 225.332031 366.828125 225.472656 366.847656 C 225.664062 366.878906 225.820312 366.980469 225.917969 367.136719 C 226.621094 368.261719 227.230469 369.230469 225.730469 370.898438 C 225.378906 371.285156 224.851562 371.996094 224.242188 372.816406 C 222.730469 374.84375 220.675781 377.601562 219.019531 378.601562 C 218.378906 379.6875 213.425781 388.0625 212.488281 389.292969 C 211.546875 390.523438 209.695312 392.878906 207.792969 394.910156 L 191.726562 435.109375 C 189.984375 438.828125 187.097656 441.792969 183.605469 443.660156 L 267.984375 443.691406 L 263.613281 413.480469 L 262.324219 374.722656 L 263.953125 376.363281 L 263.953125 390.597656 C 263.953125 390.855469 264.160156 391.058594 264.414062 391.058594 Z M 442.027344 140.226562 L 442.027344 390.601562 C 442.027344 390.855469 441.820312 391.0625 441.566406 391.0625 L 316.574219 391.0625 C 316.609375 390.75 316.640625 390.441406 316.667969 390.140625 L 441.105469 390.140625 L 441.105469 140.683594 L 389.890625 140.683594 L 389.890625 146.769531 L 316.089844 146.769531 L 316.089844 140.683594 L 264.875 140.683594 L 264.875 298.269531 C 264.582031 298.101562 264.273438 297.929688 263.953125 297.75 L 263.953125 140.226562 C 263.953125 139.972656 264.160156 139.765625 264.414062 139.765625 L 316.089844 139.765625 L 316.089844 126.558594 C 316.089844 123.539062 318.539062 121.089844 321.5625 121.089844 L 342.179688 121.089844 C 342.175781 120.964844 342.160156 120.84375 342.160156 120.714844 C 342.160156 114.738281 347.007812 109.890625 352.988281 109.890625 C 358.972656 109.890625 363.820312 114.738281 363.820312 120.714844 C 363.820312 120.84375 363.808594 120.964844 363.800781 121.089844 L 384.417969 121.089844 C 387.441406 121.089844 389.890625 123.539062 389.890625 126.558594 L 389.890625 139.765625 L 441.566406 139.765625 C 441.820312 139.765625 442.027344 139.972656 442.027344 140.226562 Z M 358.867188 120.71875 C 358.867188 117.472656 356.238281 114.84375 352.992188 114.84375 C 349.746094 114.84375 347.113281 117.472656 347.113281 120.71875 C 347.113281 123.960938 349.746094 126.589844 352.992188 126.589844 C 356.238281 126.589844 358.867188 123.960938 358.867188 120.71875 Z M 358.867188 120.71875 " fill-opacity="1" fill-rule="nonzero"/></g><path fill="#f2a73b" d="M 316.550781 175.054688 L 289.382812 175.054688 C 286.8125 175.054688 284.726562 177.140625 284.726562 179.707031 L 284.726562 206.855469 C 284.726562 209.421875 286.8125 211.511719 289.382812 211.511719 L 316.550781 211.511719 C 319.117188 211.511719 321.207031 209.421875 321.207031 206.855469 L 321.207031 179.707031 C 321.207031 177.140625 319.117188 175.054688 316.550781 175.054688 Z M 320.285156 206.855469 C 320.285156 208.917969 318.609375 210.589844 316.550781 210.589844 L 289.382812 210.589844 C 287.320312 210.589844 285.644531 208.914062 285.644531 206.855469 L 285.644531 179.707031 C 285.644531 177.648438 287.324219 175.972656 289.382812 175.972656 L 316.550781 175.972656 C 318.609375 175.972656 320.285156 177.648438 320.285156 179.707031 Z M 330.140625 182.363281 C 330.140625 182.109375 330.347656 181.902344 330.601562 181.902344 L 422.285156 181.902344 C 422.539062 181.902344 422.746094 182.109375 422.746094 182.363281 C 422.746094 182.617188 422.539062 182.824219 422.285156 182.824219 L 330.601562 182.824219 C 330.34375 182.824219 330.140625 182.617188 330.140625 182.363281 Z M 422.746094 190.925781 C 422.746094 191.179688 422.539062 191.386719 422.285156 191.386719 L 330.601562 191.386719 C 330.347656 191.386719 330.140625 191.179688 330.140625 190.925781 C 330.140625 190.671875 330.347656 190.46875 330.601562 190.46875 L 422.285156 190.46875 C 422.539062 190.46875 422.746094 190.671875 422.746094 190.925781 Z M 330.601562 202.089844 C 330.347656 202.089844 330.140625 201.886719 330.140625 201.632812 C 330.140625 201.378906 330.347656 201.171875 330.601562 201.171875 L 374.300781 201.171875 C 374.554688 201.171875 374.761719 201.378906 374.761719 201.632812 C 374.761719 201.886719 374.554688 202.089844 374.300781 202.089844 Z M 315.804688 223.863281 L 288.636719 223.863281 C 286.070312 223.863281 283.980469 225.949219 283.980469 228.515625 L 283.980469 255.664062 C 283.980469 258.230469 286.070312 260.320312 288.636719 260.320312 L 315.804688 260.320312 C 318.375 260.320312 320.460938 258.230469 320.460938 255.664062 L 320.460938 228.515625 C 320.460938 225.949219 318.375 223.863281 315.804688 223.863281 Z M 319.542969 255.664062 C 319.542969 257.722656 317.863281 259.398438 315.804688 259.398438 L 288.636719 259.398438 C 286.578125 259.398438 284.902344 257.722656 284.902344 255.664062 L 284.902344 228.515625 C 284.902344 226.457031 286.578125 224.78125 288.636719 224.78125 L 315.804688 224.78125 C 317.867188 224.78125 319.542969 226.457031 319.542969 228.515625 Z M 422 231.171875 C 422 231.425781 421.792969 231.632812 421.539062 231.632812 L 329.855469 231.632812 C 329.601562 231.632812 329.394531 231.425781 329.394531 231.171875 C 329.394531 230.917969 329.601562 230.714844 329.855469 230.714844 L 421.539062 230.714844 C 421.792969 230.714844 422 230.917969 422 231.171875 Z M 422 239.734375 C 422 239.988281 421.792969 240.195312 421.539062 240.195312 L 329.855469 240.195312 C 329.601562 240.195312 329.394531 239.988281 329.394531 239.734375 C 329.394531 239.480469 329.601562 239.277344 329.855469 239.277344 L 421.539062 239.277344 C 421.792969 239.277344 422 239.480469 422 239.734375 Z M 329.394531 250.441406 C 329.394531 250.1875 329.601562 249.980469 329.855469 249.980469 L 373.554688 249.980469 C 373.808594 249.980469 374.015625 250.1875 374.015625 250.441406 C 374.015625 250.695312 373.808594 250.902344 373.554688 250.902344 L 329.855469 250.902344 C 329.601562 250.902344 329.394531 250.695312 329.394531 250.441406 Z M 315.804688 272.671875 L 288.636719 272.671875 C 286.070312 272.671875 283.980469 274.757812 283.980469 277.324219 L 283.980469 286.351562 C 283.628906 286.382812 283.273438 286.484375 282.945312 286.664062 L 263.820312 297.136719 C 265.5625 298.121094 267.082031 298.992188 268.019531 299.53125 C 268.128906 299.59375 268.207031 299.699219 268.238281 299.820312 L 268.527344 301.011719 L 283.980469 292.246094 L 283.980469 304.472656 C 283.980469 307.039062 286.070312 309.128906 288.636719 309.128906 L 315.804688 309.128906 C 318.371094 309.128906 320.460938 307.039062 320.460938 304.472656 L 320.460938 277.324219 C 320.460938 274.757812 318.375 272.671875 315.804688 272.671875 Z M 319.542969 304.476562 C 319.542969 306.535156 317.863281 308.207031 315.804688 308.207031 L 288.636719 308.207031 C 286.578125 308.207031 284.902344 306.53125 284.902344 304.476562 L 284.902344 291.726562 L 285.5625 291.351562 C 286.898438 290.59375 287.328125 288.867188 286.496094 287.570312 C 286.117188 286.976562 285.539062 286.582031 284.902344 286.417969 L 284.902344 277.324219 C 284.902344 275.265625 286.578125 273.59375 288.636719 273.59375 L 315.804688 273.59375 C 317.867188 273.59375 319.542969 275.265625 319.542969 277.324219 Z M 422 279.984375 C 422 280.238281 421.792969 280.441406 421.539062 280.441406 L 329.855469 280.441406 C 329.601562 280.441406 329.394531 280.238281 329.394531 279.984375 C 329.394531 279.730469 329.601562 279.523438 329.855469 279.523438 L 421.539062 279.523438 C 421.792969 279.523438 422 279.730469 422 279.984375 Z M 422 288.546875 C 422 288.800781 421.792969 289.003906 421.539062 289.003906 L 329.855469 289.003906 C 329.601562 289.003906 329.394531 288.800781 329.394531 288.546875 C 329.394531 288.292969 329.601562 288.085938 329.855469 288.085938 L 421.539062 288.085938 C 421.792969 288.085938 422 288.292969 422 288.546875 Z M 329.394531 299.25 C 329.394531 298.996094 329.601562 298.789062 329.855469 298.789062 L 373.554688 298.789062 C 373.808594 298.789062 374.015625 298.996094 374.015625 299.25 C 374.015625 299.503906 373.808594 299.710938 373.554688 299.710938 L 329.855469 299.710938 C 329.601562 299.710938 329.394531 299.503906 329.394531 299.25 Z M 311.539062 185.367188 L 303.617188 193.28125 L 311.539062 201.199219 C 311.71875 201.378906 311.71875 201.667969 311.539062 201.847656 C 311.449219 201.9375 311.332031 201.984375 311.214844 201.984375 C 311.097656 201.984375 310.976562 201.9375 310.886719 201.847656 L 302.964844 193.933594 L 295.042969 201.847656 C 294.953125 201.9375 294.835938 201.984375 294.71875 201.984375 C 294.601562 201.984375 294.484375 201.9375 294.394531 201.847656 C 294.214844 201.671875 294.214844 201.378906 294.394531 201.199219 L 302.316406 193.28125 L 294.394531 185.367188 C 294.214844 185.1875 294.214844 184.894531 294.394531 184.714844 C 294.574219 184.535156 294.863281 184.535156 295.042969 184.714844 L 302.964844 192.632812 L 310.886719 184.714844 C 311.066406 184.535156 311.359375 184.535156 311.539062 184.714844 C 311.71875 184.894531 311.71875 185.1875 311.539062 185.367188 Z M 311.539062 234.175781 L 303.617188 242.089844 L 311.539062 250.007812 C 311.71875 250.1875 311.71875 250.480469 311.539062 250.65625 C 311.449219 250.746094 311.332031 250.792969 311.214844 250.792969 C 311.097656 250.792969 310.976562 250.746094 310.886719 250.65625 L 302.964844 242.742188 L 295.042969 250.65625 C 294.953125 250.746094 294.835938 250.792969 294.71875 250.792969 C 294.601562 250.792969 294.484375 250.746094 294.394531 250.65625 C 294.214844 250.480469 294.214844 250.1875 294.394531 250.007812 L 302.316406 242.089844 L 294.394531 234.175781 C 294.214844 233.996094 294.214844 233.703125 294.394531 233.523438 C 294.574219 233.34375 294.863281 233.34375 295.042969 233.523438 L 302.964844 241.441406 L 310.886719 233.523438 C 311.066406 233.34375 311.359375 233.34375 311.539062 233.523438 C 311.71875 233.703125 311.71875 233.996094 311.539062 234.175781 Z M 310.792969 282.984375 L 302.871094 290.898438 L 310.792969 298.816406 C 310.972656 298.996094 310.972656 299.289062 310.792969 299.46875 C 310.703125 299.558594 310.585938 299.601562 310.46875 299.601562 C 310.351562 299.601562 310.234375 299.558594 310.144531 299.46875 L 302.222656 291.550781 L 294.300781 299.46875 C 294.210938 299.558594 294.09375 299.601562 293.972656 299.601562 C 293.855469 299.601562 293.738281 299.558594 293.648438 299.46875 C 293.46875 299.289062 293.46875 298.996094 293.648438 298.816406 L 301.570312 290.898438 L 293.648438 282.984375 C 293.46875 282.804688 293.46875 282.511719 293.648438 282.332031 C 293.828125 282.152344 294.121094 282.152344 294.300781 282.332031 L 302.222656 290.25 L 310.144531 282.332031 C 310.324219 282.152344 310.613281 282.152344 310.792969 282.332031 C 310.972656 282.511719 310.972656 282.804688 310.792969 282.984375 Z M 422 328.792969 C 422 329.046875 421.792969 329.25 421.539062 329.25 L 329.855469 329.25 C 329.601562 329.25 329.394531 329.046875 329.394531 328.792969 C 329.394531 328.539062 329.601562 328.332031 329.855469 328.332031 L 421.539062 328.332031 C 421.792969 328.332031 422 328.539062 422 328.792969 Z M 422 337.355469 C 422 337.609375 421.792969 337.816406 421.539062 337.816406 L 329.855469 337.816406 C 329.601562 337.816406 329.394531 337.609375 329.394531 337.355469 C 329.394531 337.101562 329.601562 336.894531 329.855469 336.894531 L 421.539062 336.894531 C 421.792969 336.894531 422 337.101562 422 337.355469 Z M 374.015625 348.058594 C 374.015625 348.3125 373.808594 348.519531 373.554688 348.519531 L 329.855469 348.519531 C 329.601562 348.519531 329.394531 348.3125 329.394531 348.058594 C 329.394531 347.804688 329.601562 347.597656 329.855469 347.597656 L 373.554688 347.597656 C 373.808594 347.597656 374.015625 347.804688 374.015625 348.058594 Z M 302.222656 340.359375 L 294.300781 348.277344 C 294.210938 348.367188 294.09375 348.414062 293.972656 348.414062 C 293.855469 348.414062 293.738281 348.367188 293.648438 348.277344 C 293.46875 348.097656 293.46875 347.808594 293.648438 347.625 L 301.570312 339.710938 L 293.648438 331.792969 C 293.46875 331.613281 293.46875 331.320312 293.648438 331.140625 C 293.828125 330.960938 294.121094 330.960938 294.300781 331.140625 L 302.222656 339.058594 L 310.144531 331.140625 C 310.324219 330.960938 310.613281 330.960938 310.792969 331.140625 C 310.972656 331.320312 310.972656 331.613281 310.792969 331.792969 L 302.871094 339.710938 L 310.792969 347.625 C 310.972656 347.804688 310.972656 348.097656 310.792969 348.277344 C 310.703125 348.367188 310.585938 348.414062 310.46875 348.414062 C 310.351562 348.414062 310.234375 348.367188 310.144531 348.277344 Z M 162.652344 290.863281 C 164.089844 288.503906 164.890625 285.765625 164.945312 283.003906 C 163.351562 284.164062 161.757812 285.324219 160.164062 286.484375 C 156.488281 281.90625 152.816406 277.332031 149.140625 272.753906 C 151.34375 267.160156 155.9375 262.550781 161.53125 260.328125 C 164.863281 259.003906 169.132812 257.878906 169.914062 254.378906 C 170.347656 252.441406 168.019531 248.917969 169.277344 244.421875 C 169.277344 244.421875 171.375 235.855469 176.332031 233.441406 C 179.992188 231.660156 180.578125 230.402344 181.066406 228.542969 C 181.277344 225.203125 184.429688 222.632812 187.613281 221.378906 C 190.953125 220.066406 194.667969 219.570312 197.648438 217.566406 C 200.285156 215.792969 202.058594 213.027344 204.292969 210.761719 C 209.769531 205.214844 218.324219 202.914062 225.851562 204.964844 C 233.375 207.015625 239.574219 213.339844 241.472656 220.898438 C 241.523438 221.097656 241.5625 221.296875 241.605469 221.496094 C 244.660156 221.195312 247.914062 223.058594 249.542969 225.777344 C 251.546875 229.117188 251.546875 233.3125 250.773438 237.132812 C 250.039062 240.746094 248.847656 245.058594 251.425781 247.699219 C 253.445312 249.769531 257.140625 249.886719 258.570312 252.402344 C 260.625 256.011719 256.011719 260.238281 256.644531 264.34375 C 257.046875 266.9375 259.449219 268.738281 261.855469 269.789062 C 264.261719 270.839844 266.914062 271.46875 268.972656 273.09375 C 271.035156 274.71875 272.277344 277.855469 270.757812 280 C 266.277344 281.40625 261.796875 282.816406 257.316406 284.222656 C 256.40625 282.648438 255.492188 281.070312 254.582031 279.496094 C 255.523438 281.492188 255.101562 283.929688 253.972656 285.824219 C 252.84375 287.722656 251.101562 289.171875 249.316406 290.472656 C 246.074219 292.839844 242.507812 294.863281 238.753906 296.3125 C 235.59375 298.230469 232.199219 298.84375 228.871094 299.132812 C 228.871094 299 228.871094 298.871094 228.871094 298.742188 C 228.871094 298.53125 228.875 298.320312 228.875 298.121094 C 228.875 298.050781 228.875 297.984375 228.875 297.914062 C 228.875 296.125 228.875 294.820312 228.878906 294.554688 C 228.878906 294.523438 228.878906 294.5 228.878906 294.5 C 228.878906 294.5 241.964844 292.300781 244.636719 275.222656 C 245.96875 266.734375 245.511719 254.730469 244.769531 243.355469 C 244.734375 242.855469 244.6875 242.351562 244.625 241.847656 C 244.621094 241.8125 244.617188 241.777344 244.613281 241.742188 C 244.554688 241.257812 244.476562 240.765625 244.390625 240.273438 C 244.382812 240.222656 244.375 240.167969 244.363281 240.113281 C 244.277344 239.632812 244.175781 239.148438 244.0625 238.667969 C 244.050781 238.605469 244.035156 238.542969 244.019531 238.484375 C 243.90625 238 243.78125 237.519531 243.644531 237.042969 C 243.625 236.984375 243.609375 236.921875 243.589844 236.863281 C 243.449219 236.382812 243.296875 235.902344 243.132812 235.425781 C 243.113281 235.375 243.09375 235.320312 243.074219 235.269531 C 242.90625 234.785156 242.722656 234.308594 242.53125 233.832031 C 242.515625 233.792969 242.496094 233.75 242.480469 233.710938 C 242.277344 233.226562 242.066406 232.75 241.84375 232.277344 C 241.832031 232.253906 241.820312 232.230469 241.808594 232.207031 C 239.425781 227.230469 235.722656 223.125 231.058594 221.949219 C 230.9375 222.769531 230.785156 223.582031 230.5625 224.386719 C 229.386719 228.550781 226.214844 232.445312 221.949219 233.160156 C 219.925781 233.496094 217.65625 233.160156 215.996094 234.359375 C 215.277344 234.875 214.832031 235.542969 214.550781 236.296875 C 214.445312 236.574219 214.367188 236.863281 214.300781 237.164062 C 214.300781 237.171875 214.300781 237.179688 214.296875 237.1875 C 214.023438 238.535156 214.097656 240.089844 214.117188 241.648438 C 214.117188 241.714844 214.121094 241.78125 214.121094 241.847656 C 214.121094 242.035156 214.121094 242.21875 214.117188 242.402344 C 214.117188 242.605469 214.109375 242.808594 214.101562 243.011719 C 214.097656 243.121094 214.09375 243.234375 214.085938 243.34375 C 214.070312 243.660156 214.042969 243.976562 214 244.289062 C 213.992188 244.339844 213.984375 244.386719 213.976562 244.4375 C 213.945312 244.636719 213.910156 244.835938 213.867188 245.03125 C 213.851562 245.105469 213.832031 245.183594 213.8125 245.257812 C 213.785156 245.359375 213.753906 245.453125 213.722656 245.550781 C 213.699219 245.625 213.679688 245.703125 213.65625 245.777344 C 213.632812 245.847656 213.609375 245.921875 213.582031 245.988281 C 213.492188 246.222656 213.394531 246.453125 213.273438 246.671875 C 211.410156 250.09375 206.394531 250.398438 203.910156 253.402344 C 201.171875 256.710938 202.585938 261.691406 204.5 265.535156 C 206.414062 269.382812 208.773438 273.613281 207.496094 277.714844 C 206.070312 282.296875 200.59375 284.726562 199.246094 289.332031 C 199.179688 289.5625 199.125 289.800781 199.078125 290.039062 C 199.078125 290.039062 199.078125 290.042969 199.078125 290.042969 C 199.070312 290.085938 199.0625 290.125 199.054688 290.164062 C 199.027344 290.308594 199 290.449219 198.980469 290.59375 C 198.980469 290.597656 198.980469 290.601562 198.976562 290.605469 C 198.960938 290.714844 198.945312 290.824219 198.933594 290.9375 C 198.925781 291 198.914062 291.058594 198.910156 291.121094 C 198.910156 291.125 198.910156 291.125 198.910156 291.128906 C 198.910156 291.132812 198.910156 291.132812 198.90625 291.136719 C 198.875 291.417969 198.851562 291.707031 198.828125 291.992188 C 198.824219 292.027344 198.820312 292.066406 198.820312 292.101562 C 198.800781 292.351562 198.785156 292.597656 198.769531 292.84375 C 198.644531 294.695312 198.511719 296.507812 197.4375 297.882812 C 197.351562 297.992188 197.265625 298.101562 197.167969 298.207031 C 196.980469 298.40625 196.773438 298.578125 196.558594 298.734375 C 196.484375 298.789062 196.40625 298.832031 196.332031 298.882812 C 196.183594 298.976562 196.035156 299.066406 195.875 299.144531 C 195.78125 299.195312 195.683594 299.238281 195.585938 299.277344 C 195.441406 299.339844 195.292969 299.394531 195.140625 299.445312 C 195.027344 299.484375 194.917969 299.519531 194.804688 299.550781 C 194.664062 299.589844 194.519531 299.617188 194.375 299.648438 C 193.785156 299.769531 193.171875 299.832031 192.550781 299.84375 C 192.53125 299.84375 192.507812 299.84375 192.484375 299.84375 C 192.238281 299.847656 191.992188 299.847656 191.746094 299.839844 C 191.304688 299.824219 190.863281 299.796875 190.429688 299.757812 C 180.671875 298.867188 171.113281 295.804688 162.652344 290.863281 Z M 320.460938 326.132812 L 320.460938 353.285156 C 320.460938 355.851562 318.375 357.9375 315.804688 357.9375 L 301.113281 357.9375 C 300.902344 357.632812 300.695312 357.324219 300.484375 357.015625 L 315.804688 357.015625 C 317.867188 357.015625 319.542969 355.34375 319.542969 353.285156 L 319.542969 326.132812 C 319.542969 324.074219 317.867188 322.402344 315.804688 322.402344 L 288.636719 322.402344 C 286.578125 322.402344 284.902344 324.078125 284.902344 326.132812 L 284.902344 334.742188 C 284.589844 334.304688 284.28125 333.871094 283.980469 333.453125 L 283.980469 326.132812 C 283.980469 323.566406 286.070312 321.480469 288.636719 321.480469 L 315.804688 321.480469 C 318.375 321.480469 320.460938 323.570312 320.460938 326.132812 Z M 248.757812 320.957031 C 252.632812 320.609375 256.503906 320.261719 260.378906 319.914062 L 259.839844 370.988281 L 219.5625 378.222656 C 221.105469 377.019531 222.890625 374.632812 224.242188 372.820312 C 224.851562 372 225.382812 371.289062 225.730469 370.898438 C 227.230469 369.234375 226.621094 368.261719 225.917969 367.136719 C 225.820312 366.980469 225.664062 366.882812 225.472656 366.851562 C 225.332031 366.832031 225.136719 366.800781 224.613281 367.058594 C 224.664062 367.007812 224.71875 366.953125 224.769531 366.902344 C 227.675781 364.039062 229.378906 362.214844 229.832031 361.484375 C 230.246094 360.8125 230.351562 360.140625 230.152344 359.492188 C 229.777344 358.285156 228.4375 357.53125 227.671875 357.191406 C 227.230469 356.992188 225.804688 357.804688 223.808594 359.21875 C 224.296875 358.773438 224.625 358.46875 224.738281 358.359375 C 225.554688 357.539062 226.371094 356.269531 225.402344 353.683594 C 224.53125 351.359375 222.039062 351.832031 220.84375 352.0625 C 220.6875 352.089844 220.550781 352.117188 220.4375 352.132812 C 219.921875 352.207031 216.707031 354.710938 213.066406 357.660156 C 213.589844 357.167969 213.957031 356.824219 214.09375 356.710938 C 214.765625 356.152344 215.480469 354.996094 215.089844 352.652344 C 214.765625 350.707031 212.835938 350.726562 211.550781 350.734375 L 211.285156 350.734375 C 210.960938 350.734375 209.980469 350.734375 191.601562 366.945312 C 190.53125 367.886719 189.980469 369.292969 190.125 370.710938 L 190.527344 374.671875 L 166.933594 369.785156 L 163 315.007812 L 165.335938 315.460938 C 166.304688 315.636719 167.273438 315.839844 168.242188 316.03125 C 173.089844 316.976562 177.933594 317.921875 182.78125 318.867188 C 188.4375 319.972656 194.089844 321.074219 199.746094 322.179688 C 201.707031 322.5625 203.667969 322.945312 205.632812 323.328125 C 207.105469 323.617188 208.519531 324.128906 209.980469 324.417969 C 212.855469 324.988281 216.035156 324.003906 218.90625 323.679688 C 221.917969 323.339844 224.941406 323.09375 227.960938 322.824219 C 234.894531 322.199219 241.824219 321.578125 248.757812 320.957031 Z M 240.652344 312.914062 L 240.410156 312.574219 L 245.953125 307.351562 L 246.136719 309.179688 C 245.9375 309.625 245.367188 311.121094 245.972656 312.554688 C 246.050781 312.742188 246.15625 312.902344 246.273438 313.054688 L 241.882812 314.617188 L 241.617188 314.25 C 241.082031 314.5625 240.308594 314.992188 239.941406 315.117188 C 239.261719 315.347656 238.824219 314.898438 238.886719 314.539062 C 238.941406 314.222656 239.9375 313.441406 240.652344 312.914062 Z M 240.652344 312.914062 " fill-opacity="1" fill-rule="nonzero"/><g clip-path="url(#adfd92d567)"><path fill="#000000" d="M 191.308594 300.804688 L 191.28125 299.851562 C 191.277344 299.726562 191.324219 299.601562 191.414062 299.511719 C 191.503906 299.421875 191.632812 299.378906 191.753906 299.378906 C 194.183594 299.457031 195.800781 298.984375 196.832031 297.890625 C 198.058594 296.59375 198.183594 294.730469 198.3125 292.761719 C 198.390625 291.574219 198.46875 290.347656 198.804688 289.203125 C 199.515625 286.769531 201.316406 284.929688 203.054688 283.148438 C 204.765625 281.398438 206.382812 279.742188 207.054688 277.574219 C 208.191406 273.925781 206.300781 270.15625 204.472656 266.511719 L 204.085938 265.742188 C 202.203125 261.957031 200.582031 256.695312 203.554688 253.105469 C 204.753906 251.65625 206.492188 250.816406 208.167969 250 C 210.101562 249.0625 211.929688 248.175781 212.871094 246.449219 C 213.722656 244.886719 213.683594 242.867188 213.644531 240.914062 C 213.59375 238.277344 213.542969 235.554688 215.726562 233.984375 C 216.988281 233.074219 218.53125 232.976562 220.023438 232.882812 C 220.640625 232.84375 221.28125 232.804688 221.871094 232.703125 C 226.121094 231.996094 229.074219 227.953125 230.117188 224.261719 C 230.3125 223.566406 230.46875 222.8125 230.601562 221.878906 C 230.621094 221.75 230.695312 221.636719 230.800781 221.5625 C 230.910156 221.492188 231.046875 221.46875 231.171875 221.5 C 239.210938 223.53125 244.632812 234.1875 245.226562 243.324219 C 245.894531 253.546875 246.480469 266.421875 245.09375 275.296875 C 243.6875 284.269531 239.386719 289.132812 236.027344 291.632812 C 233.050781 293.851562 230.320312 294.644531 229.335938 294.875 C 229.332031 295.285156 229.332031 296.019531 229.332031 296.960938 L 229.328125 300.882812 L 229.148438 300.726562 L 228.40625 302.019531 L 228.410156 296.960938 C 228.414062 294.054688 228.414062 294.054688 228.863281 294.039062 C 228.835938 294.039062 232.039062 293.46875 235.515625 290.867188 C 238.722656 288.46875 242.828125 283.796875 244.183594 275.152344 C 245.351562 267.699219 245.105469 257.351562 244.597656 248.167969 C 244.527344 248.167969 244.457031 248.160156 244.390625 248.128906 C 240.246094 246.214844 236.757812 248.199219 236.722656 248.222656 C 236.648438 248.265625 236.570312 248.285156 236.488281 248.285156 C 236.332031 248.285156 236.175781 248.203125 236.089844 248.058594 C 235.960938 247.839844 236.035156 247.558594 236.253906 247.429688 C 236.410156 247.335938 240.054688 245.253906 244.542969 247.195312 C 244.46875 245.894531 244.386719 244.621094 244.308594 243.382812 C 243.746094 234.765625 238.796875 224.761719 231.433594 222.527344 C 231.3125 223.269531 231.171875 223.910156 231.003906 224.511719 C 229.636719 229.355469 226.109375 232.929688 222.023438 233.613281 C 221.382812 233.71875 220.722656 233.757812 220.082031 233.800781 C 218.65625 233.890625 217.3125 233.976562 216.261719 234.730469 C 214.472656 236.019531 214.515625 238.386719 214.566406 240.894531 C 214.605469 242.96875 214.644531 245.113281 213.679688 246.886719 C 212.597656 248.871094 210.550781 249.867188 208.570312 250.828125 C 206.980469 251.597656 205.339844 252.394531 204.265625 253.691406 C 201.605469 256.898438 203.148438 261.792969 204.910156 265.328125 L 205.292969 266.09375 C 207.117188 269.726562 209.183594 273.839844 207.9375 277.847656 C 207.195312 280.222656 205.425781 282.035156 203.714844 283.789062 C 201.976562 285.566406 200.335938 287.246094 199.6875 289.460938 C 199.382812 290.503906 199.304688 291.683594 199.230469 292.816406 C 199.097656 294.863281 198.957031 296.980469 197.503906 298.519531 C 196.039062 300.070312 193.878906 300.316406 192.214844 300.304688 L 192.234375 300.988281 L 191.503906 300.519531 Z M 449.511719 138.238281 L 449.511719 398.984375 C 449.511719 402.210938 446.882812 404.839844 443.652344 404.839844 L 313.355469 404.839844 C 313.355469 404.839844 313.355469 404.835938 313.355469 404.835938 C 312.773438 405.957031 312.109375 406.96875 311.363281 407.808594 C 309.953125 409.402344 308.34375 410.253906 306.589844 410.34375 C 305.964844 410.375 305.335938 410.390625 304.707031 410.390625 C 297.199219 410.390625 289.714844 408.148438 286.1875 404.839844 L 263.324219 404.839844 L 263.292969 403.917969 L 285.339844 403.917969 C 285.382812 403.980469 285.425781 404.039062 285.464844 404.085938 C 285.375 403.980469 285.277344 403.832031 285.171875 403.660156 L 267.632812 377.832031 C 267.550781 377.710938 267.53125 377.558594 267.582031 377.417969 L 272.59375 363.707031 C 269.1875 351.554688 266.214844 340.476562 265.296875 337.039062 C 265.140625 336.96875 264.976562 336.902344 264.804688 336.839844 C 262.832031 336.132812 261.214844 334.585938 260.238281 333.214844 C 260.246094 332.523438 260.25 332.046875 260.257812 331.421875 C 260.730469 332.5625 262.507812 335.042969 265.113281 335.972656 C 265.390625 336.074219 265.644531 336.179688 265.882812 336.296875 C 266.003906 336.351562 266.09375 336.460938 266.128906 336.59375 C 266.976562 339.773438 270.019531 351.113281 273.507812 363.558594 L 287.324219 389.53125 C 287.445312 389.753906 287.359375 390.035156 287.136719 390.152344 C 287.066406 390.191406 286.992188 390.207031 286.921875 390.207031 C 286.753906 390.207031 286.597656 390.117188 286.515625 389.964844 L 273.15625 364.851562 L 268.527344 377.511719 L 285.949219 403.164062 C 286.035156 403.3125 286.105469 403.417969 286.167969 403.492188 C 289.324219 407.242188 298.273438 409.859375 306.542969 409.425781 C 308.042969 409.347656 309.433594 408.597656 310.675781 407.199219 C 315.074219 402.238281 316.710938 390.035156 316.355469 384.882812 C 316.035156 380.242188 291.195312 344.886719 276.566406 324.726562 C 276.550781 324.703125 276.539062 324.679688 276.527344 324.65625 L 270.101562 311.347656 C 270.085938 311.316406 270.078125 311.285156 270.070312 311.253906 L 267.386719 300.230469 C 261.878906 297.066406 252.988281 292.117188 252.042969 292.003906 C 251.292969 292.167969 245.753906 298.644531 245.59375 299.972656 C 245.589844 300.027344 245.59375 300.078125 245.59375 300.128906 C 246.269531 299.378906 247.59375 298.21875 249.363281 298.214844 C 249.878906 298.214844 250.683594 298.210938 251.617188 298.207031 C 251.800781 298.105469 252.324219 297.714844 252.523438 296.558594 C 252.550781 296.398438 252.660156 296.265625 252.808594 296.207031 C 252.960938 296.148438 253.132812 296.171875 253.261719 296.273438 L 255.707031 298.179688 C 257.960938 298.164062 259.890625 298.148438 259.890625 298.148438 L 259.898438 299.066406 C 259.898438 299.066406 255.0625 299.105469 251.753906 299.125 C 251.742188 299.125 251.726562 299.132812 251.710938 299.132812 C 251.695312 299.132812 251.683594 299.128906 251.667969 299.125 C 250.710938 299.132812 249.890625 299.136719 249.363281 299.136719 C 247.488281 299.140625 246.152344 300.871094 245.910156 301.207031 C 246.054688 301.445312 246.191406 301.59375 246.195312 301.597656 C 246.269531 301.671875 246.316406 301.773438 246.328125 301.875 L 246.789062 306.476562 L 246.832031 306.917969 C 247.464844 306.441406 248.59375 305.773438 250.316406 305.359375 C 249.703125 304.972656 249.089844 304.339844 248.617188 303.3125 C 248.511719 303.082031 248.613281 302.808594 248.84375 302.703125 C 249.074219 302.597656 249.347656 302.699219 249.453125 302.929688 C 250.351562 304.886719 251.820312 305.058594 252.378906 305.042969 C 252.476562 305.039062 252.5625 305.027344 252.660156 305.019531 C 256.964844 304.765625 258.808594 304.695312 258.828125 304.691406 C 259.078125 304.679688 259.296875 304.878906 259.304688 305.132812 C 259.316406 305.386719 259.117188 305.601562 258.863281 305.613281 C 258.847656 305.613281 257.011719 305.683594 252.734375 305.9375 C 252.695312 305.941406 252.628906 305.949219 252.535156 305.953125 C 248.933594 306.214844 247.226562 307.75 246.945312 308.03125 L 247.007812 308.6875 L 247.0625 309.214844 C 247.070312 309.300781 247.054688 309.390625 247.015625 309.46875 C 247.007812 309.484375 246.285156 310.929688 246.820312 312.199219 C 247.234375 313.1875 248.925781 313.410156 249.542969 313.410156 C 249.6875 313.410156 249.824219 313.480469 249.910156 313.597656 C 249.996094 313.714844 250.023438 313.863281 249.984375 314.003906 L 249.0625 317.097656 C 249.085938 317.484375 249.125 317.878906 249.171875 318.269531 L 256.609375 317.898438 C 256.707031 317.898438 256.789062 317.914062 256.867188 317.960938 L 260.015625 319.820312 C 260.0625 319.851562 260.09375 319.894531 260.125 319.9375 C 259.625 319.980469 259.128906 320.027344 258.625 320.070312 L 256.515625 318.824219 L 213.671875 320.96875 L 212.121094 324.582031 C 212.039062 324.585938 211.960938 324.578125 211.878906 324.578125 L 211.746094 350.730469 C 213.019531 350.726562 214.78125 350.800781 215.089844 352.652344 C 215.480469 354.992188 214.765625 356.152344 214.09375 356.710938 C 213.957031 356.824219 213.585938 357.167969 213.066406 357.65625 C 216.707031 354.707031 219.921875 352.207031 220.4375 352.132812 C 220.550781 352.117188 220.6875 352.089844 220.84375 352.0625 C 222.039062 351.832031 224.53125 351.359375 225.402344 353.683594 C 226.371094 356.265625 225.554688 357.539062 224.738281 358.355469 C 224.625 358.46875 224.296875 358.769531 223.808594 359.214844 C 225.804688 357.804688 227.230469 356.992188 227.671875 357.191406 C 228.4375 357.53125 229.777344 358.28125 230.148438 359.488281 C 230.351562 360.140625 230.246094 360.8125 229.832031 361.480469 C 229.378906 362.214844 227.675781 364.039062 224.769531 366.898438 C 224.71875 366.953125 224.664062 367.003906 224.609375 367.054688 C 225.136719 366.800781 225.332031 366.828125 225.472656 366.851562 C 225.664062 366.878906 225.820312 366.980469 225.917969 367.136719 C 226.621094 368.261719 227.230469 369.234375 225.730469 370.898438 C 225.378906 371.289062 224.851562 371.996094 224.242188 372.816406 C 222.730469 374.84375 220.675781 377.605469 219.019531 378.605469 C 218.378906 379.6875 213.425781 388.0625 212.488281 389.292969 C 211.546875 390.523438 209.695312 392.882812 207.792969 394.910156 L 191.726562 435.113281 C 188.664062 441.65625 182.039062 445.871094 174.835938 445.871094 C 165.300781 445.871094 156.417969 438.730469 155.039062 429.957031 C 151.839844 409.601562 149.730469 386.246094 149.789062 385.355469 C 149.804688 385.128906 149.984375 384.949219 150.210938 384.929688 L 178.917969 382.53125 C 179.042969 382.519531 179.167969 382.5625 179.261719 382.648438 C 179.355469 382.730469 179.410156 382.851562 179.414062 382.976562 L 179.925781 401.441406 L 188.332031 388.480469 L 190.847656 377.816406 L 190.125 370.703125 C 189.980469 369.289062 190.53125 367.882812 191.597656 366.941406 C 206.066406 354.179688 209.753906 351.464844 210.824219 350.886719 L 210.957031 324.53125 C 210.863281 324.519531 210.765625 324.515625 210.667969 324.503906 L 210.097656 321.261719 L 168.796875 312.757812 L 165.292969 315.414062 L 165.386719 315.46875 C 165.371094 315.464844 165.351562 315.460938 165.332031 315.457031 C 165.332031 315.457031 164.707031 315.335938 164.085938 315.214844 C 164.117188 315.171875 164.140625 315.128906 164.179688 315.097656 L 168.40625 311.898438 C 168.511719 311.820312 168.644531 311.789062 168.777344 311.816406 L 210.589844 320.421875 C 210.777344 320.460938 210.917969 320.609375 210.953125 320.792969 L 211.472656 323.753906 L 212.9375 320.335938 C 213.007812 320.175781 213.164062 320.066406 213.335938 320.058594 L 248.242188 318.3125 C 248.1875 317.789062 248.152344 317.332031 248.136719 317.070312 C 248.132812 317.015625 248.140625 316.960938 248.152344 316.910156 L 248.933594 314.285156 C 248.0625 314.179688 246.5 313.816406 245.96875 312.550781 C 245.363281 311.121094 245.933594 309.621094 246.132812 309.175781 L 246.042969 308.285156 L 245.949219 307.347656 L 245.679688 304.648438 L 245.570312 303.578125 C 245.5625 303.578125 245.550781 303.578125 245.539062 303.578125 C 245.015625 303.578125 244.371094 303.722656 243.800781 304.261719 C 242.566406 305.417969 242.753906 306.722656 243.140625 307.960938 C 243.355469 308.644531 243.675781 309.042969 243.910156 309.269531 L 243.242188 309.898438 C 242.914062 309.574219 242.519531 309.050781 242.261719 308.234375 C 241.835938 306.867188 241.554688 305.105469 243.171875 303.589844 C 243.804688 302.996094 244.609375 302.691406 245.480469 302.675781 L 245.425781 302.113281 C 245.164062 301.800781 244.578125 300.964844 244.675781 299.882812 C 244.78125 298.722656 250.511719 291.082031 252.054688 291.082031 C 252.484375 291.082031 254.238281 291.925781 256.464844 293.097656 L 256.464844 282.757812 C 256.75 283.246094 257.03125 283.730469 257.3125 284.21875 C 257.335938 284.210938 257.363281 284.203125 257.386719 284.195312 L 257.386719 293.585938 C 261.207031 295.628906 265.984375 298.359375 268.019531 299.527344 C 268.128906 299.589844 268.207031 299.695312 268.234375 299.816406 L 270.953125 310.984375 L 277.335938 324.214844 C 281.496094 329.949219 316.859375 378.855469 317.273438 384.8125 C 317.523438 388.421875 316.738281 397.589844 313.808594 403.914062 L 443.648438 403.914062 C 446.371094 403.914062 448.585938 401.699219 448.585938 398.980469 L 448.585938 138.238281 C 448.585938 135.515625 446.371094 133.300781 443.648438 133.300781 L 389.886719 133.300781 L 389.886719 132.382812 L 443.648438 132.382812 C 446.882812 132.382812 449.511719 135.007812 449.511719 138.238281 Z M 211.558594 351.652344 L 211.285156 351.652344 C 210.4375 351.90625 202.929688 358.179688 192.210938 367.632812 C 191.363281 368.378906 190.929688 369.492188 191.042969 370.613281 L 191.773438 377.804688 C 191.777344 377.855469 191.773438 377.90625 191.761719 377.953125 L 189.210938 388.773438 C 189.199219 388.824219 189.179688 388.871094 189.148438 388.914062 L 179.894531 403.1875 C 179.785156 403.355469 179.578125 403.433594 179.382812 403.378906 C 179.1875 403.324219 179.050781 403.148438 179.046875 402.949219 L 178.507812 383.492188 L 150.726562 385.8125 C 150.917969 389.109375 152.96875 410.851562 155.953125 429.816406 C 157.261719 438.160156 165.734375 444.953125 174.839844 444.953125 C 181.683594 444.953125 187.984375 440.945312 190.878906 434.746094 L 206.972656 394.488281 C 206.992188 394.4375 207.023438 394.386719 207.0625 394.34375 C 208.957031 392.332031 210.816406 389.964844 211.757812 388.734375 C 212.707031 387.492188 218.234375 378.128906 218.289062 378.035156 C 218.332031 377.964844 218.390625 377.90625 218.460938 377.867188 C 219.960938 377.023438 222.007812 374.273438 223.503906 372.269531 C 224.128906 371.429688 224.667969 370.703125 225.046875 370.285156 C 226.027344 369.195312 225.832031 368.742188 225.242188 367.789062 C 224.847656 367.914062 223.410156 368.667969 218.511719 372.863281 C 218.320312 373.027344 218.03125 373.007812 217.863281 372.816406 C 217.699219 372.625 217.71875 372.335938 217.90625 372.167969 L 218.660156 371.503906 C 218.675781 371.488281 221.453125 368.878906 224.125 366.246094 C 227.679688 362.742188 228.761719 361.460938 229.046875 361 C 229.320312 360.558594 229.390625 360.152344 229.269531 359.761719 C 229.003906 358.90625 227.890625 358.304688 227.359375 358.0625 C 226.0625 358.28125 217.515625 365.109375 210.046875 371.5 C 209.855469 371.664062 209.566406 371.644531 209.402344 371.453125 C 209.234375 371.261719 209.253906 370.972656 209.441406 370.804688 C 209.582031 370.683594 223.265625 358.523438 224.085938 357.707031 C 224.78125 357.011719 225.316406 356.082031 224.539062 354.007812 C 223.984375 352.53125 222.496094 352.683594 221.015625 352.964844 C 220.84375 352.996094 220.691406 353.027344 220.566406 353.042969 C 219.671875 353.371094 210.03125 361.289062 204.179688 366.199219 C 203.988281 366.355469 203.707031 366.339844 203.539062 366.15625 C 203.375 365.972656 203.382812 365.6875 203.5625 365.515625 C 203.933594 365.15625 212.660156 356.703125 213.503906 356.003906 C 214.382812 355.269531 214.355469 353.859375 214.179688 352.804688 C 214 351.71875 213 351.636719 211.558594 351.652344 Z M 252.882812 298.199219 C 253.320312 298.195312 253.773438 298.191406 254.222656 298.1875 L 253.25 297.429688 C 253.148438 297.738281 253.015625 297.988281 252.882812 298.199219 Z M 241.75 254.046875 C 240.957031 253.046875 240.34375 253.449219 239.957031 254.015625 C 239.570312 254.578125 239.417969 255.261719 239.4375 255.941406 C 239.464844 256.855469 239.691406 258.140625 240.746094 258.144531 C 242.382812 258.148438 242.683594 255.222656 241.75 254.046875 Z M 227.433594 266.875 C 227.195312 266.78125 226.929688 266.898438 226.835938 267.132812 C 226.742188 267.371094 226.859375 267.636719 227.09375 267.730469 C 227.207031 267.777344 228.773438 268.382812 230.625 268.382812 C 231.964844 268.382812 233.457031 268.066406 234.652344 266.992188 C 237.488281 264.449219 231.492188 249.835938 230.796875 248.179688 C 230.699219 247.941406 230.429688 247.832031 230.195312 247.929688 C 229.960938 248.027344 229.851562 248.296875 229.949219 248.53125 C 232.46875 254.5625 235.808594 264.71875 234.035156 266.308594 C 231.609375 268.480469 227.476562 266.890625 227.433594 266.875 Z M 224.644531 274.9375 C 224.6875 274.964844 227.691406 276.714844 231.523438 276.714844 C 233.433594 276.714844 235.550781 276.28125 237.609375 274.980469 C 237.824219 274.84375 237.890625 274.5625 237.753906 274.347656 C 237.621094 274.132812 237.335938 274.066406 237.117188 274.203125 C 231.410156 277.800781 225.179688 274.183594 225.113281 274.148438 C 224.898438 274.019531 224.613281 274.089844 224.484375 274.308594 C 224.355469 274.527344 224.425781 274.808594 224.644531 274.9375 Z M 221.070312 254.144531 C 220.25 255.402344 220.816406 258.285156 222.445312 258.128906 C 223.496094 258.03125 223.605469 256.730469 223.546875 255.816406 C 223.503906 255.136719 223.289062 254.46875 222.855469 253.949219 C 222.414062 253.417969 221.769531 253.074219 221.070312 254.144531 Z M 225.296875 248.171875 C 225.40625 247.941406 225.304688 247.667969 225.074219 247.558594 C 224.910156 247.480469 220.960938 245.671875 216.578125 248.207031 C 216.359375 248.335938 216.28125 248.617188 216.410156 248.835938 C 216.496094 248.984375 216.652344 249.066406 216.808594 249.066406 C 216.890625 249.066406 216.96875 249.046875 217.039062 249.003906 C 220.992188 246.714844 224.648438 248.375 224.683594 248.390625 C 224.914062 248.496094 225.1875 248.398438 225.296875 248.171875 Z M 258.574219 309.035156 C 258.550781 309.042969 256.160156 309.738281 253.523438 310.242188 C 250.71875 310.78125 249.660156 311.886719 249.617188 311.933594 C 249.445312 312.117188 249.453125 312.40625 249.636719 312.578125 C 249.726562 312.664062 249.839844 312.703125 249.953125 312.703125 C 250.074219 312.703125 250.195312 312.65625 250.285156 312.5625 C 250.296875 312.554688 251.222656 311.621094 253.699219 311.144531 C 256.378906 310.632812 258.808594 309.925781 258.832031 309.917969 C 259.074219 309.847656 259.214844 309.59375 259.144531 309.347656 C 259.074219 309.105469 258.816406 308.964844 258.574219 309.035156 Z M 257.390625 266.296875 L 257.390625 260.046875 C 256.84375 261.472656 256.425781 262.914062 256.644531 264.34375 C 256.753906 265.054688 257.019531 265.703125 257.390625 266.296875 Z M 257.390625 138.238281 C 257.390625 135.515625 259.605469 133.300781 262.328125 133.300781 L 316.089844 133.300781 L 316.089844 132.382812 L 262.328125 132.382812 C 259.097656 132.382812 256.46875 135.007812 256.46875 138.238281 L 256.46875 250.496094 C 256.796875 250.675781 257.105469 250.871094 257.390625 251.089844 Z M 257.390625 138.238281 " fill-opacity="1" fill-rule="nonzero"/></g><g fill="#000000" fill-opacity="1"><g transform="translate(233.13526, 623.472775)"><g><path d="M 10.140625 -38.332031 C 9.105469 -34.734375 8.234375 -31.082031 7.632812 -27.375 C 6.433594 -20.285156 6.105469 -13.195312 7.144531 -6.050781 C 7.46875 -3.816406 7.960938 -1.582031 8.996094 0.492188 C 9.707031 1.964844 10.796875 3.109375 12.433594 3.542969 C 15.648438 4.527344 18.757812 3.816406 20.828125 0.980469 C 21.867188 -0.382812 22.738281 -1.964844 23.5 -3.488281 C 25.957031 -8.398438 27.375 -13.6875 28.789062 -18.921875 C 29.117188 -20.121094 28.789062 -20.394531 27.589844 -20.449219 C 27.101562 -20.449219 26.828125 -20.285156 26.664062 -19.847656 C 26.554688 -19.359375 26.390625 -18.867188 26.28125 -18.320312 C 24.972656 -13.6875 23.554688 -9.050781 21.320312 -4.742188 C 20.503906 -3.164062 19.628906 -1.582031 18.484375 -0.164062 C 17.941406 0.492188 17.285156 1.144531 16.523438 1.527344 C 15.648438 2.015625 15.324219 1.910156 14.996094 0.980469 C 14.613281 -0.109375 14.503906 -1.308594 14.339844 -2.507812 C 13.90625 -6.269531 14.175781 -10.085938 14.449219 -13.90625 C 14.996094 -21.867188 16.25 -29.828125 16.6875 -37.84375 C 16.792969 -39.042969 16.847656 -39.097656 17.941406 -38.878906 C 21.539062 -38.0625 25.136719 -38.824219 28.734375 -38.933594 C 29.828125 -38.988281 29.9375 -39.261719 29.882812 -40.460938 C 29.773438 -41.441406 29.71875 -41.496094 28.574219 -41.550781 C 28.355469 -41.550781 28.082031 -41.550781 27.808594 -41.550781 C 23.71875 -41.277344 19.683594 -41.605469 15.757812 -42.859375 C 14.886719 -43.132812 13.960938 -43.296875 13.085938 -43.457031 C 7.144531 -44.496094 1.472656 -43.566406 -3.816406 -40.785156 C -6.269531 -39.476562 -6.269531 -39.261719 -4.636719 -37.078125 C -3.925781 -36.152344 -3.871094 -36.097656 -2.890625 -36.644531 C 0.109375 -38.167969 3.328125 -38.878906 6.597656 -39.371094 C 7.796875 -39.53125 9.105469 -39.804688 10.359375 -39.585938 C 10.523438 -39.097656 10.25 -38.714844 10.140625 -38.332031 Z M 10.140625 -38.332031 "/></g></g></g><g fill="#000000" fill-opacity="1"><g transform="translate(259.144458, 623.472775)"><g><path d="M 13.359375 -15.539062 C 13.742188 -15.484375 14.066406 -15.375 14.394531 -15.324219 C 17.558594 -14.558594 20.667969 -15.160156 23.71875 -15.921875 C 24.375 -16.085938 24.539062 -16.414062 24.375 -17.066406 C 24.265625 -17.667969 23.828125 -17.722656 23.339844 -17.613281 C 22.738281 -17.449219 22.136719 -17.394531 21.539062 -17.230469 C 17.722656 -16.25 14.667969 -17.503906 11.996094 -20.175781 C 11.558594 -20.613281 11.125 -21.046875 10.6875 -21.484375 C 10.140625 -22.082031 9.542969 -22.628906 8.886719 -23.121094 C 7.253906 -24.320312 6 -24.320312 4.417969 -23.066406 C 3.433594 -22.355469 2.726562 -21.429688 2.070312 -20.449219 C -0.0546875 -17.175781 -1.144531 -13.578125 -1.472656 -9.707031 C -1.691406 -7.578125 -1.363281 -5.507812 -0.382812 -3.597656 C 0.546875 -1.800781 1.910156 -0.546875 3.871094 -0.109375 C 7.742188 0.816406 10.6875 -0.707031 12.214844 -4.363281 C 13.578125 -7.742188 14.066406 -11.179688 13.140625 -14.777344 C 13.085938 -14.941406 13.140625 -15.160156 13.085938 -15.429688 C 13.304688 -15.484375 13.304688 -15.539062 13.359375 -15.539062 Z M 7.796875 -19.085938 C 10.6875 -14.285156 11.289062 -9.269531 8.832031 -4.144531 C 8.453125 -3.433594 8.070312 -2.78125 7.46875 -2.234375 C 6.761719 -1.582031 6.105469 -1.636719 5.507812 -2.453125 C 5.125 -2.945312 4.960938 -3.488281 4.742188 -4.089844 C 4.089844 -6.433594 4.089844 -8.777344 4.417969 -11.125 C 4.742188 -13.304688 5.125 -15.484375 5.835938 -17.558594 C 6.105469 -18.375 6.433594 -19.195312 6.980469 -19.847656 C 7.414062 -19.683594 7.632812 -19.359375 7.796875 -19.085938 Z M 7.796875 -19.085938 "/></g></g></g><g fill="#000000" fill-opacity="1"><g transform="translate(280.90058, 623.472775)"><g><path d="M 2.1875 -12.484375 L 2.1875 -16.734375 L 15.375 -16.734375 L 15.375 -12.484375 Z M 2.1875 -12.484375 "/></g></g></g><g fill="#000000" fill-opacity="1"><g transform="translate(298.458154, 623.472775)"><g><path d="M 12.652344 -22.957031 C 12.757812 -27.15625 12.867188 -31.40625 12.976562 -35.605469 C 13.03125 -37.679688 13.085938 -39.695312 13.195312 -41.769531 C 13.25 -42.585938 12.921875 -42.859375 12.105469 -42.804688 C 11.234375 -42.695312 10.359375 -42.695312 9.488281 -42.695312 C 8.832031 -42.695312 8.453125 -42.367188 8.289062 -41.769531 C 8.125 -41.167969 7.90625 -40.570312 7.742188 -40.023438 C 6.652344 -35.824219 6.214844 -31.625 5.945312 -27.375 C 5.617188 -21.59375 6.050781 -15.8125 6.652344 -10.085938 C 6.761719 -9.050781 6.488281 -8.507812 5.671875 -7.960938 C 4.472656 -7.089844 3.542969 -6 3.054688 -4.636719 C 2.398438 -2.835938 2.671875 -1.308594 4.089844 0 C 4.796875 0.707031 5.617188 1.253906 6.597656 1.472656 C 7.578125 1.746094 7.851562 2.289062 7.960938 3.21875 C 8.125 4.636719 8.34375 6.050781 8.5625 7.46875 C 8.777344 8.5625 8.941406 8.617188 10.03125 8.5625 C 10.796875 8.507812 11.558594 8.453125 12.324219 8.398438 C 13.03125 8.398438 13.25 8.125 13.195312 7.46875 C 13.085938 6.269531 13.03125 5.015625 12.921875 3.816406 C 12.8125 2.34375 12.8125 2.289062 14.285156 2.070312 C 18.8125 1.417969 22.902344 -0.21875 26.445312 -3.164062 C 29.992188 -6.160156 32.609375 -9.816406 34.132812 -14.175781 C 34.570312 -15.484375 35.335938 -16.140625 36.589844 -16.578125 C 38.878906 -17.339844 41.113281 -18.265625 43.351562 -19.195312 C 44.875 -19.847656 45.039062 -20.066406 44.660156 -20.9375 C 44.332031 -21.59375 44.113281 -21.59375 42.640625 -20.992188 C 41.277344 -20.449219 39.914062 -19.847656 38.496094 -19.359375 C 37.570312 -19.03125 36.644531 -18.59375 35.660156 -18.429688 C 35.390625 -18.8125 35.550781 -19.140625 35.605469 -19.410156 C 36.042969 -22.03125 36.152344 -24.703125 35.933594 -27.375 C 35.660156 -30.425781 34.84375 -33.261719 32.988281 -35.714844 C 30.425781 -38.933594 26.9375 -39.585938 23.390625 -37.515625 C 21.703125 -36.480469 20.285156 -35.117188 19.03125 -33.589844 C 16.738281 -30.753906 14.996094 -27.535156 13.523438 -24.210938 C 13.359375 -23.664062 13.25 -23.121094 12.8125 -22.683594 C 12.757812 -22.792969 12.652344 -22.902344 12.652344 -22.957031 Z M 14.667969 -16.359375 C 16.414062 -22.03125 18.8125 -27.320312 22.136719 -32.226562 C 23.011719 -33.480469 23.9375 -34.734375 25.191406 -35.605469 C 26.71875 -36.699219 27.808594 -36.480469 28.789062 -34.84375 C 29.773438 -33.207031 30.261719 -31.40625 30.425781 -29.445312 C 30.753906 -25.519531 30.808594 -21.648438 29.992188 -17.777344 C 29.773438 -16.6875 29.28125 -16.140625 28.246094 -15.8125 C 23.609375 -14.339844 18.976562 -13.085938 14.339844 -11.667969 C 14.121094 -11.613281 13.851562 -11.503906 13.46875 -11.722656 C 13.742188 -13.359375 14.230469 -14.886719 14.667969 -16.359375 Z M 14.503906 -0.164062 C 14.175781 -0.109375 13.90625 -0.109375 13.578125 -0.0546875 C 13.085938 0 12.8125 -0.21875 12.8125 -0.707031 C 12.652344 -3.109375 12.433594 -5.453125 12.703125 -7.796875 C 12.8125 -8.671875 13.195312 -9.050781 13.960938 -9.269531 C 15.757812 -9.761719 17.558594 -10.25 19.304688 -10.796875 C 21.8125 -11.558594 24.320312 -12.378906 26.828125 -13.140625 C 27.320312 -13.304688 27.808594 -13.578125 28.734375 -13.46875 C 25.902344 -6.816406 21.703125 -1.910156 14.503906 -0.164062 Z M 7.089844 -4.472656 C 7.199219 -3.378906 7.308594 -2.617188 7.414062 -1.855469 C 6.652344 -2.5625 6.488281 -3.328125 7.089844 -4.472656 Z M 7.089844 -4.472656 "/></g></g></g><g fill="#000000" fill-opacity="1"><g transform="translate(339.843854, 623.472775)"><g><path d="M 13.359375 -15.539062 C 13.742188 -15.484375 14.066406 -15.375 14.394531 -15.324219 C 17.558594 -14.558594 20.667969 -15.160156 23.71875 -15.921875 C 24.375 -16.085938 24.539062 -16.414062 24.375 -17.066406 C 24.265625 -17.667969 23.828125 -17.722656 23.339844 -17.613281 C 22.738281 -17.449219 22.136719 -17.394531 21.539062 -17.230469 C 17.722656 -16.25 14.667969 -17.503906 11.996094 -20.175781 C 11.558594 -20.613281 11.125 -21.046875 10.6875 -21.484375 C 10.140625 -22.082031 9.542969 -22.628906 8.886719 -23.121094 C 7.253906 -24.320312 6 -24.320312 4.417969 -23.066406 C 3.433594 -22.355469 2.726562 -21.429688 2.070312 -20.449219 C -0.0546875 -17.175781 -1.144531 -13.578125 -1.472656 -9.707031 C -1.691406 -7.578125 -1.363281 -5.507812 -0.382812 -3.597656 C 0.546875 -1.800781 1.910156 -0.546875 3.871094 -0.109375 C 7.742188 0.816406 10.6875 -0.707031 12.214844 -4.363281 C 13.578125 -7.742188 14.066406 -11.179688 13.140625 -14.777344 C 13.085938 -14.941406 13.140625 -15.160156 13.085938 -15.429688 C 13.304688 -15.484375 13.304688 -15.539062 13.359375 -15.539062 Z M 7.796875 -19.085938 C 10.6875 -14.285156 11.289062 -9.269531 8.832031 -4.144531 C 8.453125 -3.433594 8.070312 -2.78125 7.46875 -2.234375 C 6.761719 -1.582031 6.105469 -1.636719 5.507812 -2.453125 C 5.125 -2.945312 4.960938 -3.488281 4.742188 -4.089844 C 4.089844 -6.433594 4.089844 -8.777344 4.417969 -11.125 C 4.742188 -13.304688 5.125 -15.484375 5.835938 -17.558594 C 6.105469 -18.375 6.433594 -19.195312 6.980469 -19.847656 C 7.414062 -19.683594 7.632812 -19.359375 7.796875 -19.085938 Z M 7.796875 -19.085938 "/></g></g></g></svg>