<svg xmlns="http://www.w3.org/2000/svg" xmlns:xlink="http://www.w3.org/1999/xlink" width="793" zoomAndPan="magnify" viewBox="0 0 594.95996 842.24997" height="1122" preserveAspectRatio="xMidYMid meet" version="1.0"><defs><g/><clipPath id="c56bc07e07"><path d="M 59.667969 59.425781 L 535.066406 59.425781 L 535.066406 776.988281 L 59.667969 776.988281 Z M 59.667969 59.425781 " clip-rule="nonzero"/></clipPath></defs><g clip-path="url(#c56bc07e07)"><path fill="#f8c6be" d="M 59.667969 59.425781 L 535.238281 59.425781 L 535.238281 777.058594 L 59.667969 777.058594 Z M 59.667969 59.425781 " fill-opacity="1" fill-rule="nonzero"/></g><path fill="#3f3f3c" d="M 233.253906 204.222656 C 233.253906 204.222656 219.464844 224.785156 229.851562 245.40625 C 240.238281 266.03125 245.441406 207.945312 245.441406 207.945312 Z M 233.253906 204.222656 " fill-opacity="1" fill-rule="nonzero"/><path fill="#3f3f3c" d="M 353.664062 236.171875 C 353.664062 236.171875 367.285156 226.546875 365.050781 217.617188 C 362.816406 208.691406 350.660156 216.386719 350.660156 216.386719 Z M 353.664062 236.171875 " fill-opacity="1" fill-rule="nonzero"/><path fill="#3f3f3c" d="M 355.546875 233.390625 C 355.546875 233.390625 361.824219 175.425781 320.089844 151.46875 C 306.628906 143.742188 312.792969 161.609375 312.792969 161.609375 C 312.792969 161.609375 286.390625 143.074219 275.804688 148.039062 C 265.21875 153.003906 273.089844 162.269531 273.089844 162.269531 C 273.089844 162.269531 251.652344 140.757812 235.109375 153.664062 C 218.566406 166.574219 240.71875 175.507812 240.71875 175.507812 C 240.71875 175.507812 229.125 179.480469 228.976562 183.785156 C 228.824219 188.085938 235.441406 188.601562 235.441406 188.601562 C 235.441406 188.601562 223.199219 193.3125 225.847656 199.636719 C 228.492188 205.960938 240.71875 211.585938 240.71875 211.585938 L 341.644531 189.410156 " fill-opacity="1" fill-rule="nonzero"/><path fill="#efa54f" d="M 288.335938 168.113281 C 254.671875 170.695312 229.4375 199.644531 231.980469 232.765625 C 234.523438 265.890625 250.882812 289.769531 297.542969 288.058594 C 334.585938 286.699219 356.441406 256.523438 353.898438 223.402344 C 351.355469 190.277344 322.003906 165.527344 288.335938 168.113281 Z M 288.335938 168.113281 " fill-opacity="1" fill-rule="nonzero"/><path fill="#efa54f" d="M 350.628906 234.679688 C 350.628906 234.679688 362.421875 232.910156 363.59375 240.300781 C 364.761719 247.6875 356.160156 251.234375 347.394531 247.671875 Z M 350.628906 234.679688 " fill-opacity="1" fill-rule="nonzero"/><path fill="#efa54f" d="M 235.535156 242.871094 C 235.535156 242.871094 223.6875 244.25 224.492188 251.691406 C 225.296875 259.128906 234.527344 260.296875 242.054688 254.558594 Z M 235.535156 242.871094 " fill-opacity="1" fill-rule="nonzero"/><path fill="#3f3f3c" d="M 291.867188 250.28125 C 290.394531 249.714844 289.027344 248.964844 287.75 247.964844 C 287.4375 247.695312 287.105469 247.460938 286.820312 247.148438 C 286.519531 246.859375 286.234375 246.535156 285.964844 246.183594 C 285.6875 245.847656 285.445312 245.4375 285.226562 245.019531 C 285.035156 244.566406 284.84375 244.109375 284.78125 243.566406 C 284.730469 243.304688 284.703125 243.039062 284.734375 242.757812 C 284.753906 242.484375 284.753906 242.199219 284.820312 241.933594 C 284.898438 241.675781 284.988281 241.414062 285.085938 241.160156 L 285.160156 240.96875 L 285.171875 240.933594 L 285.242188 240.808594 L 285.261719 240.777344 L 285.296875 240.71875 L 285.445312 240.480469 C 285.503906 240.390625 285.519531 240.339844 285.609375 240.222656 L 285.910156 239.863281 C 286.011719 239.746094 286.117188 239.628906 286.226562 239.523438 L 286.539062 239.273438 C 286.746094 239.097656 286.96875 238.953125 287.199219 238.835938 C 287.429688 238.699219 287.660156 238.59375 287.898438 238.515625 C 288.371094 238.332031 288.84375 238.238281 289.300781 238.179688 C 289.765625 238.117188 290.210938 238.109375 290.652344 238.121094 C 291.09375 238.132812 291.523438 238.175781 291.941406 238.253906 C 292.375 238.332031 292.75 238.414062 293.234375 238.5625 L 291.425781 240.03125 C 291.339844 238.558594 291.292969 237.082031 291.277344 235.605469 C 291.253906 234.128906 291.269531 232.648438 291.351562 231.160156 C 291.375 230.761719 291.71875 230.457031 292.113281 230.480469 C 292.441406 230.5 292.707031 230.734375 292.777344 231.039062 C 293.117188 232.488281 293.382812 233.941406 293.617188 235.402344 C 293.851562 236.863281 294.058594 238.320312 294.226562 239.789062 C 294.316406 240.542969 293.773438 241.222656 293.019531 241.3125 C 292.863281 241.328125 292.714844 241.320312 292.570312 241.289062 L 292.421875 241.253906 C 292.183594 241.203125 291.824219 241.140625 291.523438 241.105469 C 291.203125 241.078125 290.890625 241.050781 290.582031 241.046875 C 290.277344 241.046875 289.976562 241.058594 289.699219 241.105469 C 289.421875 241.144531 289.15625 241.207031 288.9375 241.304688 C 288.820312 241.34375 288.707031 241.386719 288.617188 241.445312 C 288.511719 241.492188 288.417969 241.546875 288.339844 241.617188 L 288.210938 241.707031 C 288.183594 241.734375 288.171875 241.757812 288.148438 241.777344 C 288.125 241.796875 288.097656 241.816406 288.070312 241.832031 C 288.035156 241.855469 287.972656 241.972656 287.925781 242.039062 L 287.777344 242.277344 L 287.738281 242.335938 L 287.71875 242.363281 L 287.714844 242.367188 C 287.703125 242.394531 287.839844 242.152344 287.78125 242.257812 L 287.78125 242.261719 L 287.777344 242.269531 L 287.753906 242.34375 C 287.722656 242.4375 287.691406 242.53125 287.640625 242.621094 C 287.601562 242.714844 287.621094 242.808594 287.59375 242.90625 C 287.558594 242.996094 287.566406 243.101562 287.585938 243.210938 C 287.578125 243.417969 287.667969 243.65625 287.742188 243.902344 C 287.867188 244.144531 287.953125 244.414062 288.128906 244.667969 C 288.289062 244.929688 288.464844 245.191406 288.679688 245.445312 C 288.875 245.707031 289.117188 245.953125 289.335938 246.210938 C 290.285156 247.199219 291.398438 248.144531 292.542969 249.019531 L 292.5625 249.035156 C 292.878906 249.277344 292.9375 249.730469 292.699219 250.046875 C 292.5 250.304688 292.160156 250.390625 291.867188 250.28125 Z M 291.867188 250.28125 " fill-opacity="1" fill-rule="nonzero"/><path fill="#f9705a" d="M 311.117188 250.597656 C 312.277344 257.648438 319.71875 262.289062 327.730469 260.96875 C 335.75 259.648438 341.308594 252.863281 340.148438 245.816406 C 338.988281 238.765625 331.550781 234.125 323.53125 235.445312 C 315.511719 236.765625 309.957031 243.550781 311.117188 250.597656 Z M 311.117188 250.597656 " fill-opacity="1" fill-rule="nonzero"/><path fill="#f9705a" d="M 249.835938 257.628906 C 250.3125 263.882812 256.46875 268.511719 263.582031 267.964844 C 270.699219 267.421875 276.078125 261.910156 275.601562 255.652344 C 275.121094 249.398438 268.964844 244.769531 261.847656 245.316406 C 254.734375 245.859375 249.355469 251.371094 249.835938 257.628906 Z M 249.835938 257.628906 " fill-opacity="1" fill-rule="nonzero"/><path fill="#3f3f3c" d="M 256.054688 239.609375 C 256.054688 239.632812 256.039062 239.28125 256.09375 238.757812 C 256.15625 238.238281 256.265625 237.484375 256.566406 236.636719 C 256.695312 236.199219 256.902344 235.753906 257.113281 235.277344 C 257.363281 234.828125 257.582031 234.3125 257.925781 233.859375 C 258.242188 233.382812 258.582031 232.898438 258.996094 232.460938 C 259.375 231.996094 259.84375 231.605469 260.285156 231.179688 C 260.75 230.789062 261.261719 230.453125 261.738281 230.097656 C 262.25 229.789062 262.773438 229.527344 263.269531 229.257812 C 263.785156 229.035156 264.296875 228.851562 264.773438 228.667969 C 265.253906 228.488281 265.730469 228.410156 266.160156 228.304688 C 267.011719 228.070312 267.753906 228.0625 268.261719 228.019531 C 268.769531 227.988281 269.058594 227.984375 269.058594 227.984375 C 269.457031 227.980469 269.785156 228.304688 269.789062 228.703125 C 269.789062 228.988281 269.628906 229.234375 269.394531 229.355469 L 269.324219 229.390625 C 269.324219 229.390625 269.078125 229.515625 268.644531 229.710938 C 268.429688 229.804688 268.171875 229.921875 267.871094 230.039062 C 267.566406 230.148438 267.25 230.328125 266.898438 230.496094 C 266.550781 230.675781 266.160156 230.832031 265.777344 231.046875 C 265.394531 231.269531 265 231.503906 264.578125 231.71875 C 264.1875 231.984375 263.792969 232.265625 263.375 232.523438 C 262.996094 232.832031 262.585938 233.113281 262.21875 233.445312 C 261.859375 233.785156 261.457031 234.078125 261.140625 234.449219 C 260.980469 234.628906 260.8125 234.800781 260.636719 234.96875 C 260.484375 235.152344 260.332031 235.332031 260.179688 235.511719 C 259.867188 235.859375 259.625 236.238281 259.347656 236.574219 C 259.125 236.941406 258.863281 237.265625 258.679688 237.597656 C 258.269531 238.246094 257.976562 238.820312 257.769531 239.222656 C 257.5625 239.628906 257.464844 239.828125 257.464844 239.847656 C 257.398438 240.238281 257.027344 240.5 256.640625 240.433594 C 256.25 240.367188 255.988281 240 256.054688 239.609375 Z M 256.054688 239.609375 " fill-opacity="1" fill-rule="nonzero"/><path fill="#3f3f3c" d="M 272.804688 239.039062 C 273.542969 243.679688 270.382812 248.039062 265.746094 248.777344 C 261.105469 249.515625 256.746094 246.351562 256.007812 241.714844 C 255.273438 237.074219 258.433594 232.714844 263.070312 231.972656 C 267.707031 231.234375 272.066406 234.398438 272.804688 239.039062 Z M 272.804688 239.039062 " fill-opacity="1" fill-rule="nonzero"/><path fill="#3f3f3c" d="M 309.496094 231.703125 C 309.496094 231.726562 309.480469 231.375 309.53125 230.851562 C 309.59375 230.328125 309.707031 229.578125 310.007812 228.726562 C 310.136719 228.292969 310.339844 227.847656 310.550781 227.371094 C 310.800781 226.921875 311.023438 226.40625 311.367188 225.953125 C 311.679688 225.476562 312.019531 224.992188 312.433594 224.554688 C 312.816406 224.085938 313.285156 223.695312 313.722656 223.273438 C 314.191406 222.882812 314.699219 222.546875 315.179688 222.191406 C 315.6875 221.882812 316.214844 221.621094 316.707031 221.351562 C 317.222656 221.125 317.734375 220.941406 318.210938 220.761719 C 318.691406 220.582031 319.171875 220.503906 319.597656 220.394531 C 320.453125 220.160156 321.191406 220.15625 321.699219 220.109375 C 322.207031 220.078125 322.496094 220.078125 322.496094 220.078125 C 322.894531 220.074219 323.222656 220.394531 323.226562 220.796875 C 323.226562 221.078125 323.066406 221.324219 322.832031 221.445312 L 322.761719 221.480469 C 322.761719 221.480469 322.515625 221.605469 322.085938 221.800781 C 321.867188 221.894531 321.609375 222.015625 321.308594 222.132812 C 321.007812 222.238281 320.691406 222.421875 320.335938 222.585938 C 319.992188 222.769531 319.597656 222.925781 319.214844 223.140625 C 318.835938 223.359375 318.4375 223.597656 318.019531 223.8125 C 317.625 224.074219 317.230469 224.359375 316.8125 224.613281 C 316.433594 224.925781 316.023438 225.207031 315.65625 225.539062 C 315.300781 225.875 314.898438 226.167969 314.582031 226.542969 C 314.417969 226.722656 314.25 226.894531 314.078125 227.0625 C 313.921875 227.242188 313.769531 227.425781 313.621094 227.601562 C 313.308594 227.949219 313.066406 228.332031 312.789062 228.667969 C 312.566406 229.035156 312.304688 229.359375 312.117188 229.691406 C 311.710938 230.339844 311.417969 230.910156 311.207031 231.3125 C 311 231.722656 310.90625 231.917969 310.902344 231.941406 C 310.835938 232.332031 310.46875 232.59375 310.078125 232.527344 C 309.6875 232.460938 309.425781 232.089844 309.496094 231.703125 Z M 309.496094 231.703125 " fill-opacity="1" fill-rule="nonzero"/><path fill="#3f3f3c" d="M 326.347656 232.464844 C 326.347656 233.023438 326.292969 233.578125 326.183594 234.125 C 326.078125 234.675781 325.914062 235.207031 325.703125 235.722656 C 325.488281 236.238281 325.226562 236.726562 324.914062 237.191406 C 324.605469 237.65625 324.253906 238.085938 323.859375 238.480469 C 323.464844 238.875 323.035156 239.230469 322.570312 239.539062 C 322.105469 239.847656 321.617188 240.113281 321.101562 240.324219 C 320.585938 240.539062 320.050781 240.699219 319.503906 240.808594 C 318.957031 240.917969 318.402344 240.972656 317.847656 240.972656 C 317.289062 240.972656 316.734375 240.917969 316.1875 240.808594 C 315.640625 240.699219 315.109375 240.539062 314.59375 240.324219 C 314.078125 240.113281 313.585938 239.847656 313.121094 239.539062 C 312.65625 239.230469 312.226562 238.875 311.832031 238.480469 C 311.4375 238.085938 311.085938 237.65625 310.777344 237.191406 C 310.464844 236.726562 310.203125 236.238281 309.992188 235.722656 C 309.777344 235.207031 309.617188 234.675781 309.507812 234.125 C 309.398438 233.578125 309.34375 233.023438 309.34375 232.464844 C 309.34375 231.910156 309.398438 231.355469 309.507812 230.808594 C 309.617188 230.257812 309.777344 229.726562 309.992188 229.210938 C 310.203125 228.695312 310.464844 228.207031 310.777344 227.742188 C 311.085938 227.277344 311.4375 226.847656 311.832031 226.453125 C 312.226562 226.058594 312.65625 225.703125 313.121094 225.394531 C 313.585938 225.082031 314.078125 224.820312 314.59375 224.609375 C 315.109375 224.394531 315.640625 224.234375 316.1875 224.125 C 316.734375 224.015625 317.289062 223.960938 317.847656 223.960938 C 318.402344 223.960938 318.957031 224.015625 319.503906 224.125 C 320.050781 224.234375 320.585938 224.394531 321.101562 224.609375 C 321.617188 224.820312 322.105469 225.082031 322.570312 225.394531 C 323.035156 225.703125 323.464844 226.058594 323.859375 226.453125 C 324.253906 226.847656 324.605469 227.277344 324.914062 227.742188 C 325.226562 228.207031 325.488281 228.695312 325.703125 229.210938 C 325.914062 229.726562 326.078125 230.257812 326.183594 230.808594 C 326.292969 231.355469 326.347656 231.910156 326.347656 232.464844 Z M 326.347656 232.464844 " fill-opacity="1" fill-rule="nonzero"/><path fill="#f9705a" d="M 312.792969 291.261719 C 312.792969 291.261719 342.894531 297.195312 363.550781 323.351562 C 384.203125 349.511719 378.699219 364.332031 378.699219 364.332031 C 378.699219 364.332031 366.078125 380.648438 357.066406 380.792969 C 357.066406 380.792969 352.050781 357.644531 335.386719 350.609375 C 318.722656 343.574219 312.792969 291.261719 312.792969 291.261719 Z M 312.792969 291.261719 " fill-opacity="1" fill-rule="nonzero"/><path fill="#f9705a" d="M 283.40625 291.128906 C 283.40625 291.128906 252.296875 296.296875 232.648438 323.222656 C 216.417969 345.464844 223.859375 367.015625 223.859375 367.015625 C 223.859375 367.015625 230.121094 380.515625 239.132812 380.660156 C 239.132812 380.660156 244.148438 357.515625 260.8125 350.480469 C 277.472656 343.445312 283.40625 291.128906 283.40625 291.128906 Z M 283.40625 291.128906 " fill-opacity="1" fill-rule="nonzero"/><path fill="#f9705a" d="M 281.917969 292.578125 C 281.917969 292.578125 306.199219 293.019531 312.792969 291.261719 L 339.597656 350.171875 C 339.597656 350.171875 339.378906 368.414062 343.113281 378.746094 C 343.113281 378.746094 270.601562 384.898438 240.71875 374.347656 C 240.71875 374.347656 240.9375 342.238281 248.851562 321.914062 Z M 281.917969 292.578125 " fill-opacity="1" fill-rule="nonzero"/><path fill="#efa54f" d="M 280.566406 290.050781 L 280.464844 277.066406 L 310 278.8125 L 311.074219 291.609375 C 311.074219 291.609375 302.125 303.3125 291.394531 301.050781 C 280.660156 298.792969 280.566406 290.050781 280.566406 290.050781 Z M 280.566406 290.050781 " fill-opacity="1" fill-rule="nonzero"/><path fill="#3f3f3c" d="M 237.125 203.441406 C 237.125 203.441406 229.574219 213.320312 229.859375 229.78125 C 230.140625 246.246094 235.957031 245.636719 237.746094 245.292969 C 239.535156 244.949219 236.558594 231.523438 236.558594 231.523438 C 236.558594 231.523438 247.921875 215.429688 244.945312 204.746094 C 241.96875 194.0625 237.125 203.441406 237.125 203.441406 Z M 237.125 203.441406 " fill-opacity="1" fill-rule="nonzero"/><path fill="#fff5de" d="M 217.46875 331.90625 L 217.46875 322.445312 C 217.46875 322.445312 229.179688 329.894531 252.601562 326.394531 C 276.027344 322.894531 290.546875 308.734375 299.429688 327.175781 C 299.429688 327.175781 310.257812 312.003906 322.421875 317.898438 C 334.582031 323.796875 376.476562 327.355469 380.527344 324.222656 L 380.527344 334.160156 C 380.527344 334.160156 334.132812 363.902344 306.65625 361.195312 C 279.179688 358.492188 217.46875 331.90625 217.46875 331.90625 Z M 217.46875 331.90625 " fill-opacity="1" fill-rule="nonzero"/><path fill="#94b6c7" d="M 208.007812 327.398438 L 287.738281 343.171875 C 287.738281 343.171875 302.601562 349.929688 315.214844 343.171875 C 315.214844 343.171875 394.941406 321.542969 396.292969 327.398438 C 397.644531 333.257812 380.078125 417.523438 372.871094 419.324219 C 365.664062 421.128906 312.140625 425.632812 312.140625 425.632812 C 312.140625 425.632812 300.351562 430.589844 286.835938 425.632812 C 286.835938 425.632812 211.164062 416.621094 208.007812 407.609375 C 204.855469 398.597656 197.347656 325.289062 208.007812 327.398438 Z M 208.007812 327.398438 " fill-opacity="1" fill-rule="nonzero"/><path fill="#3f3f3c" d="M 298.898438 461.257812 C 298.898438 461.257812 356.765625 452.378906 363.339844 441.523438 C 369.917969 430.671875 374.519531 400.410156 349.859375 399.753906 C 325.203125 399.09375 281.804688 432.972656 279.171875 437.90625 C 276.542969 442.839844 298.898438 461.257812 298.898438 461.257812 Z M 298.898438 461.257812 " fill-opacity="1" fill-rule="nonzero"/><path fill="#3f3f3c" d="M 296.925781 434.285156 C 296.925781 434.285156 264.707031 406.660156 247.9375 401.726562 C 231.171875 396.792969 212.101562 406.660156 215.71875 420.804688 C 219.335938 434.945312 250.898438 446.457031 262.734375 450.734375 C 274.570312 455.007812 292.652344 445.472656 293.3125 443.828125 C 293.96875 442.183594 296.925781 434.285156 296.925781 434.285156 Z M 296.925781 434.285156 " fill-opacity="1" fill-rule="nonzero"/><path fill="#f9705a" d="M 350.0625 449.878906 C 350.0625 449.878906 338.800781 435.320312 325.484375 438.40625 C 312.167969 441.492188 310.441406 456.542969 315.375 459.996094 C 320.308594 463.449219 344.308594 459.75 350.0625 449.878906 Z M 350.0625 449.878906 " fill-opacity="1" fill-rule="nonzero"/><path fill="#efa54f" d="M 274.769531 452.226562 L 286.113281 443.34375 L 299.429688 455.1875 C 299.429688 455.1875 293.019531 462.835938 286.113281 466.039062 C 279.207031 469.246094 271.085938 465.300781 271.695312 463.820312 C 272.304688 462.339844 274.769531 452.226562 274.769531 452.226562 Z M 274.769531 452.226562 " fill-opacity="1" fill-rule="nonzero"/><path fill="#f9705a" d="M 274.769531 452.226562 C 274.769531 452.226562 255.535156 450.746094 248.878906 446.800781 C 242.21875 442.851562 239.261719 450.253906 240.988281 455.925781 C 242.714844 461.601562 263.921875 476.894531 273.535156 475.414062 C 283.152344 473.933594 286.113281 466.039062 286.113281 466.039062 C 286.113281 466.039062 273.042969 459.625 274.769531 452.226562 Z M 274.769531 452.226562 " fill-opacity="1" fill-rule="nonzero"/><path fill="#efa54f" d="M 399.132812 371.328125 C 399.132812 371.328125 403.765625 366.199219 397.644531 363.21875 C 391.523438 360.242188 380.769531 361.066406 382.261719 364.210938 C 382.261719 364.210938 378.453125 368.183594 381.265625 371.328125 C 381.265625 371.328125 378.035156 374.140625 380.230469 377.453125 C 380.230469 377.453125 377.957031 378.113281 380.769531 381.917969 C 383.585938 385.726562 391.523438 388.707031 393.34375 387.214844 C 395.164062 385.726562 394.003906 382.746094 394.003906 382.746094 C 394.003906 382.746094 397.976562 381.421875 397.3125 378.941406 C 397.3125 378.941406 401.945312 375.464844 399.132812 371.328125 Z M 399.132812 371.328125 " fill-opacity="1" fill-rule="nonzero"/><path fill="#efa54f" d="M 195.503906 368.351562 C 195.503906 368.351562 190.871094 363.21875 196.992188 360.242188 C 203.113281 357.261719 213.863281 358.089844 212.375 361.234375 C 212.375 361.234375 216.179688 365.207031 213.367188 368.351562 C 213.367188 368.351562 216.597656 371.164062 214.40625 374.472656 C 214.40625 374.472656 216.679688 375.132812 213.863281 378.941406 C 211.050781 382.746094 203.113281 385.726562 201.292969 384.238281 C 199.472656 382.746094 200.628906 379.769531 200.628906 379.769531 C 200.628906 379.769531 196.660156 378.445312 197.320312 375.960938 C 197.320312 375.960938 192.691406 372.488281 195.503906 368.351562 Z M 195.503906 368.351562 " fill-opacity="1" fill-rule="nonzero"/><path fill="#3f3f3c" d="M 355.546875 231.472656 C 355.546875 231.472656 353.859375 239.136719 349.570312 238.929688 C 345.28125 238.726562 347.394531 225.480469 347.394531 225.480469 C 347.394531 225.480469 329.234375 213.214844 327.582031 201.960938 C 327.582031 201.960938 312.792969 216.714844 311.074219 197.023438 C 311.074219 197.023438 294.390625 224.738281 291.917969 202.648438 C 291.917969 202.648438 283.574219 223.972656 270.675781 218.164062 C 262.8125 214.625 254.457031 205.296875 254.457031 205.296875 C 254.457031 205.296875 245.492188 232.257812 234.777344 234.492188 C 234.777344 234.492188 220.554688 175.507812 278.449219 166.242188 C 327.980469 158.316406 355.226562 188.808594 355.546875 231.472656 Z M 355.546875 231.472656 " fill-opacity="1" fill-rule="nonzero"/><path fill="#3f3f3c" d="M 355.082031 216.054688 C 355.082031 216.054688 362.359375 210.097656 360.375 206.125 C 358.390625 202.152344 350.375 206.988281 350.375 206.988281 L 355.546875 216.714844 " fill-opacity="1" fill-rule="nonzero"/><path fill="#3f3f3c" d="M 282.488281 263.578125 C 282.488281 263.578125 282.632812 263.628906 282.910156 263.722656 C 283.1875 263.804688 283.601562 263.929688 284.125 264.085938 C 284.648438 264.234375 285.292969 264.394531 286.03125 264.574219 C 286.769531 264.742188 287.609375 264.898438 288.519531 265.058594 C 289.433594 265.203125 290.425781 265.304688 291.472656 265.398438 C 291.992188 265.421875 292.53125 265.441406 293.078125 265.464844 C 293.621094 265.453125 294.179688 265.445312 294.746094 265.433594 C 295.308594 265.382812 295.878906 265.363281 296.453125 265.289062 C 297.019531 265.1875 297.601562 265.128906 298.171875 265.007812 C 298.738281 264.863281 299.324219 264.777344 299.882812 264.589844 C 300.421875 264.402344 301.046875 264.242188 301.523438 264.03125 L 303.292969 263.308594 C 303.867188 263.0625 304.34375 262.78125 304.871094 262.523438 C 305.390625 262.285156 305.875 261.949219 306.375 261.660156 C 306.621094 261.511719 306.867188 261.363281 307.113281 261.214844 C 307.339844 261.046875 307.566406 260.882812 307.792969 260.714844 C 308.015625 260.550781 308.242188 260.386719 308.464844 260.226562 C 308.675781 260.054688 308.867188 259.863281 309.078125 259.695312 C 309.488281 259.351562 309.886719 259.007812 310.226562 258.628906 C 310.589844 258.269531 310.925781 257.90625 311.21875 257.523438 C 311.371094 257.339844 311.523438 257.15625 311.675781 256.980469 C 311.808594 256.789062 311.9375 256.601562 312.0625 256.417969 C 312.332031 256.058594 312.550781 255.691406 312.75 255.335938 C 312.976562 254.992188 313.140625 254.640625 313.304688 254.3125 C 313.625 253.652344 313.859375 253.054688 314.03125 252.554688 C 314.191406 252.050781 314.304688 251.648438 314.367188 251.375 C 314.421875 251.113281 314.449219 250.972656 314.449219 250.972656 L 314.460938 250.910156 C 314.515625 250.628906 314.792969 250.445312 315.074219 250.503906 C 315.308594 250.546875 315.472656 250.746094 315.492188 250.972656 C 315.492188 250.972656 315.503906 251.167969 315.511719 251.484375 C 315.511719 251.804688 315.507812 252.277344 315.425781 252.863281 C 315.347656 253.449219 315.226562 254.164062 314.976562 254.953125 C 314.734375 255.742188 314.414062 256.632812 313.917969 257.527344 C 313.796875 257.757812 313.675781 257.988281 313.550781 258.222656 C 313.40625 258.449219 313.261719 258.675781 313.109375 258.910156 C 312.820312 259.386719 312.46875 259.832031 312.089844 260.285156 C 311.734375 260.757812 311.320312 261.191406 310.882812 261.628906 C 310.464844 262.085938 309.984375 262.488281 309.484375 262.886719 C 309.238281 263.089844 308.988281 263.292969 308.738281 263.5 C 308.46875 263.683594 308.203125 263.867188 307.933594 264.050781 C 307.390625 264.417969 306.851562 264.800781 306.234375 265.097656 C 305.640625 265.40625 305.019531 265.765625 304.425781 266.027344 L 302.667969 266.773438 C 301.316406 267.28125 300.039062 267.621094 298.699219 267.867188 C 298.042969 268 297.375 268.03125 296.722656 268.109375 C 296.070312 268.15625 295.425781 268.148438 294.792969 268.171875 C 294.164062 268.160156 293.542969 268.121094 292.9375 268.082031 C 292.339844 268.003906 291.753906 267.929688 291.183594 267.859375 C 290.621094 267.75 290.070312 267.660156 289.546875 267.539062 C 289.027344 267.40625 288.527344 267.273438 288.046875 267.148438 C 287.09375 266.871094 286.238281 266.5625 285.496094 266.265625 C 284.75 265.964844 284.117188 265.664062 283.605469 265.410156 C 283.089844 265.152344 282.699219 264.921875 282.429688 264.765625 C 282.164062 264.601562 282.023438 264.511719 282.023438 264.511719 C 281.777344 264.363281 281.703125 264.039062 281.851562 263.792969 C 281.980469 263.582031 282.238281 263.496094 282.464844 263.570312 Z M 282.488281 263.578125 " fill-opacity="1" fill-rule="nonzero"/><path fill="#fff5de" d="M 286.0625 350.125 C 286.0625 350.125 286.050781 351.117188 285.992188 352.84375 C 285.910156 354.566406 285.851562 357.039062 285.632812 359.992188 C 285.445312 362.949219 285.179688 366.398438 284.855469 370.085938 C 284.699219 371.933594 284.515625 373.835938 284.273438 375.765625 C 284.042969 377.699219 283.808594 379.660156 283.570312 381.621094 C 283.058594 385.539062 282.5625 389.457031 282.007812 393.117188 C 281.347656 396.773438 280.691406 400.171875 280.089844 403.078125 C 278.910156 408.898438 277.957031 412.730469 277.957031 412.730469 C 277.886719 413.011719 277.605469 413.179688 277.324219 413.113281 C 277.074219 413.050781 276.910156 412.816406 276.929688 412.566406 L 276.933594 412.53125 C 276.933594 412.53125 277.242188 408.582031 277.960938 402.722656 C 278.308594 399.789062 278.757812 396.378906 279.28125 392.734375 C 279.492188 390.902344 279.671875 389.003906 279.917969 387.082031 C 280.148438 385.15625 280.382812 383.203125 280.621094 381.25 C 280.878906 379.296875 281.132812 377.347656 281.390625 375.425781 C 281.644531 373.503906 281.929688 371.617188 282.136719 369.785156 C 282.601562 366.121094 283.066406 362.707031 283.503906 359.78125 C 283.949219 356.855469 284.320312 354.417969 284.582031 352.710938 C 284.847656 351.003906 285.027344 350.027344 285.027344 350.027344 C 285.078125 349.746094 285.347656 349.554688 285.632812 349.605469 C 285.886719 349.652344 286.066406 349.875 286.0625 350.125 Z M 286.0625 350.125 " fill-opacity="1" fill-rule="nonzero"/><path fill="#fff5de" d="M 311.589844 350.148438 C 311.59375 350.148438 311.53125 351.203125 311.378906 353.046875 C 311.210938 354.882812 311.019531 357.515625 310.695312 360.664062 C 310.386719 363.8125 309.980469 367.476562 309.511719 371.402344 C 309.035156 375.324219 308.527344 379.503906 308.019531 383.6875 C 307.742188 385.773438 307.464844 387.863281 307.191406 389.917969 C 306.925781 391.972656 306.617188 393.988281 306.339844 395.945312 C 305.769531 399.851562 305.199219 403.496094 304.671875 406.613281 C 304.164062 409.734375 303.648438 412.324219 303.332031 414.144531 C 302.996094 415.960938 302.777344 416.996094 302.777344 416.996094 L 302.773438 417.007812 C 302.714844 417.289062 302.4375 417.472656 302.152344 417.410156 C 301.898438 417.355469 301.730469 417.125 301.742188 416.875 C 301.742188 416.875 301.789062 415.820312 301.921875 413.980469 C 302.074219 412.140625 302.230469 409.503906 302.527344 406.355469 C 302.804688 403.203125 303.167969 399.527344 303.605469 395.597656 C 303.832031 393.632812 304.039062 391.601562 304.304688 389.539062 C 304.558594 387.480469 304.816406 385.386719 305.074219 383.292969 C 305.351562 381.203125 305.632812 379.113281 305.90625 377.054688 C 306.171875 374.996094 306.503906 372.980469 306.800781 371.027344 C 307.414062 367.121094 308.019531 363.484375 308.574219 360.367188 C 309.113281 357.253906 309.644531 354.667969 309.980469 352.851562 C 310.332031 351.039062 310.558594 350.007812 310.558594 350.007812 C 310.621094 349.726562 310.898438 349.546875 311.183594 349.609375 C 311.4375 349.664062 311.605469 349.898438 311.589844 350.148438 Z M 311.589844 350.148438 " fill-opacity="1" fill-rule="nonzero"/><g fill="#000000" fill-opacity="1"><g transform="translate(169.097018, 623.472775)"><g><path d="M 13.140625 -35.117188 C 13.140625 -37.023438 13.140625 -38.878906 13.140625 -40.785156 C 13.085938 -42.042969 13.03125 -43.351562 12.867188 -44.605469 C 12.8125 -45.53125 12.542969 -45.640625 11.667969 -45.53125 C 10.742188 -45.367188 9.871094 -45.148438 8.941406 -45.039062 C 8.179688 -44.875 7.796875 -44.441406 7.6875 -43.675781 C 7.578125 -42.421875 7.359375 -41.167969 7.253906 -39.859375 C 6.816406 -35.28125 6.925781 -30.699219 6.871094 -26.171875 C 6.871094 -23.664062 6.925781 -21.210938 6.925781 -18.757812 C 6.925781 -17.175781 6.925781 -17.175781 5.34375 -17.558594 C 4.796875 -17.667969 4.253906 -17.832031 3.707031 -17.996094 C 3.378906 -18.046875 3.109375 -18.046875 2.945312 -17.722656 C 2.453125 -16.957031 2.726562 -16.195312 3.542969 -15.921875 C 4.417969 -15.648438 5.234375 -15.375 6.105469 -15.214844 C 6.871094 -15.050781 7.144531 -14.613281 7.144531 -13.90625 C 7.144531 -13.578125 7.199219 -13.195312 7.199219 -12.8125 C 7.46875 -9.160156 7.6875 -5.453125 7.960938 -1.746094 C 8.015625 -0.816406 8.179688 0.164062 8.289062 1.144531 C 8.398438 1.910156 8.832031 2.34375 9.652344 2.234375 C 10.523438 2.125 11.394531 2.070312 12.269531 1.964844 C 13.414062 1.855469 13.578125 1.691406 13.578125 0.492188 C 13.578125 -0.707031 13.414062 -1.964844 13.414062 -3.164062 C 13.414062 -4.960938 13.414062 -6.707031 13.414062 -8.671875 C 13.742188 -8.179688 13.960938 -7.851562 14.121094 -7.46875 C 15.484375 -5.179688 16.792969 -2.890625 18.648438 -0.871094 C 22.136719 2.835938 27.699219 2.453125 30.589844 -1.746094 C 30.917969 -2.179688 31.191406 -2.671875 31.460938 -3.164062 C 32.71875 -5.617188 33.589844 -8.179688 34.1875 -10.851562 C 34.40625 -11.667969 34.570312 -12.488281 34.734375 -13.25 C 34.789062 -13.6875 34.625 -13.90625 34.1875 -14.015625 C 32.878906 -14.285156 32.554688 -14.066406 32.226562 -12.8125 C 31.679688 -10.523438 31.027344 -8.34375 30.097656 -6.214844 C 29.390625 -4.527344 28.628906 -2.890625 27.425781 -1.527344 C 26.0625 0 25.027344 0.0546875 23.554688 -1.417969 C 23.339844 -1.636719 23.121094 -1.910156 22.957031 -2.125 C 21.976562 -3.328125 21.101562 -4.636719 20.339844 -5.945312 C 18.757812 -8.777344 17.175781 -11.613281 15.214844 -14.175781 C 15.050781 -14.339844 14.832031 -14.558594 14.996094 -14.886719 C 15.375 -15.160156 15.867188 -15.160156 16.304688 -15.269531 C 20.828125 -16.414062 24.484375 -18.8125 27.375 -22.464844 C 30.699219 -26.664062 31.84375 -31.40625 30.808594 -36.644531 C 29.773438 -41.605469 24.753906 -44.058594 20.175781 -41.988281 C 18.703125 -41.332031 17.503906 -40.296875 16.414062 -39.097656 C 15.324219 -37.84375 14.394531 -36.535156 13.578125 -35.0625 C 13.414062 -35.117188 13.25 -35.117188 13.140625 -35.117188 Z M 18.375 -18.210938 C 17.121094 -17.449219 15.648438 -17.011719 14.175781 -16.738281 C 13.578125 -16.632812 13.25 -16.792969 13.25 -17.558594 C 12.976562 -23.554688 13.578125 -29.335938 16.847656 -34.570312 C 18.046875 -36.535156 19.359375 -38.332031 21.265625 -39.695312 C 22.464844 -40.570312 23.121094 -40.515625 24.15625 -39.371094 C 24.59375 -38.988281 24.808594 -38.441406 25.082031 -37.953125 C 25.957031 -36.152344 26.171875 -34.242188 26.335938 -32.007812 C 25.738281 -26.445312 23.664062 -21.429688 18.375 -18.210938 Z M 18.375 -18.210938 "/></g></g></g><g fill="#000000" fill-opacity="1"><g transform="translate(200.558879, 623.472775)"><g><path d="M 22.847656 -15.8125 C 21.976562 -16.414062 21.539062 -16.414062 20.992188 -15.757812 C 20.449219 -15.105469 20.011719 -14.449219 19.519531 -13.796875 C 17.230469 -10.578125 14.832031 -7.414062 12.269531 -4.417969 C 11.832031 -3.871094 11.394531 -3.378906 10.796875 -3 C 9.980469 -2.453125 9.324219 -2.507812 8.617188 -3.273438 C 8.179688 -3.761719 7.796875 -4.363281 7.632812 -4.960938 C 6.707031 -7.90625 6 -10.90625 5.890625 -14.015625 C 5.890625 -14.777344 6.105469 -15.105469 6.871094 -15.324219 C 11.125 -16.578125 13.46875 -19.464844 14.121094 -23.773438 C 14.449219 -26.171875 13.742188 -28.191406 11.722656 -29.609375 C 9.761719 -30.972656 7.632812 -30.699219 5.617188 -29.554688 C 3.816406 -28.464844 2.507812 -26.882812 1.527344 -25.027344 C -0.109375 -21.867188 -0.761719 -18.484375 -0.925781 -14.941406 C -0.980469 -13.796875 -0.816406 -12.703125 -0.601562 -11.558594 C -0.109375 -8.507812 0.980469 -5.671875 3 -3.21875 C 5.507812 -0.164062 11.777344 0.816406 14.886719 -3.378906 C 17.613281 -7.035156 20.285156 -10.742188 22.847656 -14.558594 C 23.121094 -14.941406 23.5 -15.375 22.847656 -15.8125 Z M 6.816406 -22.519531 C 7.144531 -23.882812 7.632812 -25.246094 8.179688 -26.554688 C 8.34375 -26.992188 8.617188 -27.480469 9.160156 -27.425781 C 9.652344 -27.375 9.871094 -26.9375 10.085938 -26.5 C 10.085938 -26.390625 10.140625 -26.28125 10.140625 -26.171875 C 11.070312 -23.339844 9.378906 -18.8125 6.816406 -17.285156 C 6.597656 -17.121094 6.324219 -17.011719 5.945312 -17.121094 C 5.945312 -18.921875 6.378906 -20.71875 6.816406 -22.519531 Z M 6.816406 -22.519531 "/></g></g></g><g fill="#000000" fill-opacity="1"><g transform="translate(221.115414, 623.472775)"><g><path d="M 29.226562 -15.269531 C 28.355469 -15.648438 28.191406 -15.59375 27.644531 -14.503906 C 26.445312 -12.160156 25.355469 -9.761719 24.15625 -7.46875 C 22.738281 -4.6875 21.375 -1.910156 19.574219 0.601562 C 19.304688 1.035156 19.085938 1.582031 18.484375 1.746094 C 18.15625 1.089844 18.15625 0.492188 18.15625 -0.164062 C 18.101562 -2.289062 18.15625 -4.472656 18.320312 -6.597656 C 18.648438 -12.433594 18.976562 -18.210938 19.03125 -24.046875 C 19.03125 -24.703125 19.03125 -25.355469 18.867188 -26.011719 C 18.757812 -26.335938 18.648438 -26.664062 18.265625 -26.664062 C 16.738281 -26.664062 15.214844 -26.828125 13.742188 -26.335938 C 13.25 -26.171875 12.921875 -26.117188 12.433594 -26.226562 C 11.234375 -26.5 10.03125 -26.71875 8.777344 -26.445312 C 4.960938 -25.738281 2.617188 -23.285156 1.144531 -19.902344 C -0.109375 -17.066406 -0.492188 -14.066406 -0.273438 -11.015625 C -0.21875 -9.542969 0.0546875 -8.070312 0.65625 -6.652344 C 1.199219 -5.234375 2.289062 -4.636719 3.761719 -4.636719 C 4.960938 -4.582031 6 -5.015625 6.816406 -5.890625 C 7.578125 -6.761719 8.289062 -7.742188 8.886719 -8.777344 C 9.488281 -9.816406 10.085938 -10.851562 10.742188 -11.941406 C 11.125 -11.613281 10.960938 -11.289062 11.015625 -11.015625 C 11.125 -8.886719 11.179688 -6.707031 11.558594 -4.582031 C 11.886719 -2.234375 12.324219 0.109375 13.46875 2.234375 C 14.996094 5.070312 18.976562 5.5625 21.15625 3.164062 C 21.976562 2.289062 22.628906 1.308594 23.175781 0.21875 C 25.519531 -4.308594 27.753906 -8.941406 29.828125 -13.632812 C 30.316406 -14.722656 30.261719 -14.832031 29.226562 -15.269531 Z M 12.433594 -22.355469 C 12.378906 -21.757812 12.269531 -21.101562 11.996094 -20.558594 C 10.140625 -16.195312 8.125 -11.941406 5.671875 -7.90625 C 5.289062 -7.308594 5.015625 -6.378906 4.144531 -6.597656 C 3.273438 -6.816406 3.707031 -7.796875 3.597656 -8.453125 C 3.597656 -8.722656 3.597656 -9.050781 3.597656 -9.378906 C 3.707031 -13.304688 4.472656 -17.121094 6.597656 -20.558594 C 7.199219 -21.484375 7.851562 -22.410156 8.671875 -23.230469 C 9.105469 -23.664062 9.597656 -23.992188 10.25 -24.15625 C 11.667969 -24.539062 12.597656 -23.828125 12.433594 -22.355469 Z M 12.433594 -22.355469 "/></g></g></g><g fill="#000000" fill-opacity="1"><g transform="translate(249.196627, 623.472775)"><g><path d="M 12.921875 -13.03125 C 12.976562 -10.578125 13.25 -8.125 13.632812 -5.671875 C 14.121094 -2.179688 14.886719 1.199219 16.195312 4.472656 C 16.632812 5.453125 17.066406 6.433594 17.777344 7.253906 C 19.464844 9.214844 22.792969 8.941406 24.101562 6.761719 C 24.808594 5.617188 25.300781 4.363281 25.628906 3.109375 C 27.046875 -2.070312 28.355469 -7.253906 29.664062 -12.433594 C 29.828125 -13.03125 29.9375 -13.523438 29.117188 -13.742188 C 28.082031 -13.960938 27.644531 -13.796875 27.375 -13.03125 C 27.320312 -12.757812 27.265625 -12.542969 27.15625 -12.269531 C 25.792969 -7.199219 24.375 -2.179688 22.957031 2.890625 C 22.738281 3.652344 22.464844 4.472656 22.03125 5.179688 C 21.976562 5.34375 21.8125 5.5625 21.59375 5.507812 C 21.265625 5.507812 21.210938 5.234375 21.15625 5.015625 C 20.773438 3.652344 20.613281 2.289062 20.613281 0.871094 C 20.558594 -1.308594 20.613281 -3.542969 20.558594 -5.726562 C 20.285156 -16.359375 20.9375 -26.9375 21.648438 -37.460938 C 21.703125 -38.550781 21.703125 -39.640625 21.703125 -40.734375 C 21.703125 -41.332031 21.429688 -41.660156 20.773438 -41.660156 C 19.628906 -41.605469 18.484375 -41.605469 17.394531 -41.605469 C 16.6875 -41.605469 16.359375 -41.222656 16.140625 -40.625 C 15.8125 -39.53125 15.429688 -38.496094 15.160156 -37.351562 C 14.339844 -34.027344 13.90625 -30.589844 13.414062 -27.210938 C 13.195312 -25.738281 13.140625 -25.792969 11.667969 -25.683594 C 7.46875 -25.355469 3.980469 -23.609375 1.636719 -19.957031 C 0.546875 -18.265625 -0.21875 -16.414062 -0.601562 -14.394531 C -1.035156 -11.996094 -1.199219 -9.597656 -0.273438 -7.253906 C 0.65625 -4.742188 2.671875 -3.871094 5.125 -3.652344 C 7.414062 -3.488281 8.777344 -4.6875 9.761719 -6.597656 C 10.6875 -8.453125 11.34375 -10.359375 12.105469 -12.269531 C 12.269531 -12.757812 12.378906 -13.25 12.703125 -13.632812 C 12.976562 -13.46875 12.921875 -13.25 12.921875 -13.03125 Z M 4.527344 -7.414062 C 3.925781 -11.667969 4.417969 -15.8125 6.707031 -19.574219 C 7.851562 -21.484375 9.378906 -22.902344 11.613281 -23.5 C 11.722656 -23.5 11.886719 -23.554688 12.050781 -23.554688 C 12.160156 -23.554688 12.269531 -23.5 12.378906 -23.5 C 12.597656 -23.121094 12.324219 -22.847656 12.214844 -22.519531 C 10.359375 -17.941406 8.453125 -13.414062 6.761719 -8.777344 C 6.378906 -7.796875 6 -6.816406 5.179688 -6.050781 C 4.636719 -6.378906 4.582031 -6.925781 4.527344 -7.414062 Z M 4.527344 -7.414062 "/></g></g></g><g fill="#000000" fill-opacity="1"><g transform="translate(277.495941, 623.472775)"><g/></g></g><g fill="#000000" fill-opacity="1"><g transform="translate(294.617301, 623.472775)"><g><path d="M 24.375 -19.792969 C 24.375 -20.449219 24.863281 -20.773438 25.191406 -21.210938 C 27.753906 -24.59375 30.261719 -28.082031 32.0625 -32.007812 C 32.71875 -33.371094 33.316406 -34.84375 33.535156 -36.371094 C 34.1875 -39.804688 31.84375 -41.933594 28.464844 -41.113281 C 27.972656 -41.003906 27.480469 -40.785156 26.992188 -40.570312 C 25.792969 -40.023438 24.703125 -39.207031 23.71875 -38.332031 C 20.449219 -35.496094 17.941406 -32.0625 15.8125 -28.300781 C 15.539062 -27.917969 15.429688 -27.375 14.996094 -27.101562 C 14.777344 -27.265625 14.832031 -27.480469 14.886719 -27.644531 C 15.105469 -30.261719 15.375 -32.878906 15.59375 -35.496094 C 15.757812 -37.351562 15.976562 -39.261719 16.140625 -41.167969 C 16.195312 -42.3125 16.195312 -42.3125 14.941406 -42.367188 C 14.339844 -42.421875 13.742188 -42.476562 13.085938 -42.476562 C 11.832031 -42.476562 11.777344 -42.476562 11.34375 -41.222656 C 10.578125 -39.316406 10.085938 -37.296875 9.761719 -35.28125 C 8.179688 -25.628906 7.742188 -15.976562 8.125 -6.214844 C 8.179688 -5.179688 7.960938 -4.527344 6.980469 -3.980469 C 5.671875 -3.273438 4.472656 -2.34375 3.597656 -1.144531 C 2.070312 0.816406 2.507812 2.453125 4.742188 3.433594 C 5.671875 3.871094 6.707031 4.035156 7.6875 4.199219 C 8.289062 4.253906 8.832031 4.363281 8.886719 5.125 C 8.886719 5.617188 9.269531 5.835938 9.707031 5.835938 C 10.742188 5.835938 11.777344 5.835938 12.8125 5.835938 C 13.304688 5.835938 13.6875 5.617188 13.632812 5.125 C 13.46875 3.925781 14.285156 3.707031 15.214844 3.488281 C 20.066406 2.179688 24.484375 -0.109375 28.300781 -3.488281 C 30.863281 -5.726562 33.042969 -8.34375 34.296875 -11.558594 C 34.734375 -12.703125 35.441406 -13.25 36.535156 -13.6875 C 38.605469 -14.503906 40.679688 -15.429688 42.75 -16.359375 C 43.621094 -16.738281 43.675781 -17.066406 43.1875 -17.886719 C 42.859375 -18.539062 42.421875 -18.429688 41.878906 -18.210938 C 39.96875 -17.394531 38.007812 -16.578125 36.042969 -15.757812 C 35.441406 -15.484375 35.171875 -15.648438 34.953125 -16.25 C 33.972656 -19.03125 31.789062 -20.175781 29.0625 -20.503906 C 27.425781 -20.667969 25.902344 -20.230469 24.375 -19.792969 Z M 15.105469 -17.175781 C 17.011719 -23.445312 19.519531 -29.445312 23.882812 -34.460938 C 24.972656 -35.769531 26.011719 -37.078125 27.425781 -38.113281 C 28.027344 -38.550781 28.683594 -39.316406 29.445312 -38.714844 C 30.097656 -38.222656 29.609375 -37.40625 29.335938 -36.75 C 28.246094 -33.589844 26.828125 -30.589844 25.027344 -27.753906 C 21.921875 -22.847656 18.320312 -18.265625 14.832031 -13.632812 C 14.722656 -13.523438 14.613281 -13.304688 14.285156 -13.304688 C 14.339844 -14.667969 14.722656 -15.921875 15.105469 -17.175781 Z M 20.71875 -14.503906 C 22.136719 -15.648438 23.5 -16.792969 25.136719 -17.613281 C 25.683594 -17.886719 26.226562 -18.101562 26.828125 -18.265625 C 28.734375 -18.867188 30.152344 -17.941406 30.480469 -15.976562 C 30.535156 -15.539062 30.480469 -15.050781 30.480469 -14.613281 C 30.535156 -13.851562 30.152344 -13.359375 29.445312 -13.085938 C 24.703125 -11.234375 19.957031 -9.488281 15.160156 -7.796875 C 15.050781 -7.742188 14.886719 -7.796875 14.558594 -7.796875 C 16.414062 -10.304688 18.320312 -12.652344 20.71875 -14.503906 Z M 28.191406 -9.214844 C 24.863281 -4.417969 20.449219 -1.089844 14.996094 0.871094 C 13.796875 1.308594 13.6875 1.253906 13.632812 -0.0546875 C 13.632812 -1.144531 13.6875 -2.234375 13.632812 -3.273438 C 13.632812 -3.980469 13.851562 -4.472656 14.558594 -4.6875 C 15.160156 -4.90625 15.703125 -5.179688 16.25 -5.453125 C 20.066406 -6.980469 23.828125 -8.507812 27.644531 -10.03125 C 27.972656 -10.140625 28.300781 -10.414062 28.683594 -10.25 C 28.789062 -9.816406 28.410156 -9.542969 28.191406 -9.214844 Z M 8.453125 1.253906 C 8.507812 1.582031 8.617188 2.015625 8.015625 2.015625 C 7.578125 2.015625 7.253906 1.691406 7.199219 1.253906 C 7.199219 0.546875 7.414062 -0.109375 8.070312 -0.546875 C 8.5625 0.0546875 8.453125 0.707031 8.453125 1.253906 Z M 8.453125 1.253906 "/></g></g></g><g fill="#000000" fill-opacity="1"><g transform="translate(336.221114, 623.472775)"><g><path d="M 13.359375 -15.539062 C 13.742188 -15.484375 14.066406 -15.375 14.394531 -15.324219 C 17.558594 -14.558594 20.667969 -15.160156 23.71875 -15.921875 C 24.375 -16.085938 24.539062 -16.414062 24.375 -17.066406 C 24.265625 -17.667969 23.828125 -17.722656 23.339844 -17.613281 C 22.738281 -17.449219 22.136719 -17.394531 21.539062 -17.230469 C 17.722656 -16.25 14.667969 -17.503906 11.996094 -20.175781 C 11.558594 -20.613281 11.125 -21.046875 10.6875 -21.484375 C 10.140625 -22.082031 9.542969 -22.628906 8.886719 -23.121094 C 7.253906 -24.320312 6 -24.320312 4.417969 -23.066406 C 3.433594 -22.355469 2.726562 -21.429688 2.070312 -20.449219 C -0.0546875 -17.175781 -1.144531 -13.578125 -1.472656 -9.707031 C -1.691406 -7.578125 -1.363281 -5.507812 -0.382812 -3.597656 C 0.546875 -1.800781 1.910156 -0.546875 3.871094 -0.109375 C 7.742188 0.816406 10.6875 -0.707031 12.214844 -4.363281 C 13.578125 -7.742188 14.066406 -11.179688 13.140625 -14.777344 C 13.085938 -14.941406 13.140625 -15.160156 13.085938 -15.429688 C 13.304688 -15.484375 13.304688 -15.539062 13.359375 -15.539062 Z M 7.796875 -19.085938 C 10.6875 -14.285156 11.289062 -9.269531 8.832031 -4.144531 C 8.453125 -3.433594 8.070312 -2.78125 7.46875 -2.234375 C 6.761719 -1.582031 6.105469 -1.636719 5.507812 -2.453125 C 5.125 -2.945312 4.960938 -3.488281 4.742188 -4.089844 C 4.089844 -6.433594 4.089844 -8.777344 4.417969 -11.125 C 4.742188 -13.304688 5.125 -15.484375 5.835938 -17.558594 C 6.105469 -18.375 6.433594 -19.195312 6.980469 -19.847656 C 7.414062 -19.683594 7.632812 -19.359375 7.796875 -19.085938 Z M 7.796875 -19.085938 "/></g></g></g><g fill="#000000" fill-opacity="1"><g transform="translate(357.977235, 623.472775)"><g><path d="M 13.359375 -15.539062 C 13.742188 -15.484375 14.066406 -15.375 14.394531 -15.324219 C 17.558594 -14.558594 20.667969 -15.160156 23.71875 -15.921875 C 24.375 -16.085938 24.539062 -16.414062 24.375 -17.066406 C 24.265625 -17.667969 23.828125 -17.722656 23.339844 -17.613281 C 22.738281 -17.449219 22.136719 -17.394531 21.539062 -17.230469 C 17.722656 -16.25 14.667969 -17.503906 11.996094 -20.175781 C 11.558594 -20.613281 11.125 -21.046875 10.6875 -21.484375 C 10.140625 -22.082031 9.542969 -22.628906 8.886719 -23.121094 C 7.253906 -24.320312 6 -24.320312 4.417969 -23.066406 C 3.433594 -22.355469 2.726562 -21.429688 2.070312 -20.449219 C -0.0546875 -17.175781 -1.144531 -13.578125 -1.472656 -9.707031 C -1.691406 -7.578125 -1.363281 -5.507812 -0.382812 -3.597656 C 0.546875 -1.800781 1.910156 -0.546875 3.871094 -0.109375 C 7.742188 0.816406 10.6875 -0.707031 12.214844 -4.363281 C 13.578125 -7.742188 14.066406 -11.179688 13.140625 -14.777344 C 13.085938 -14.941406 13.140625 -15.160156 13.085938 -15.429688 C 13.304688 -15.484375 13.304688 -15.539062 13.359375 -15.539062 Z M 7.796875 -19.085938 C 10.6875 -14.285156 11.289062 -9.269531 8.832031 -4.144531 C 8.453125 -3.433594 8.070312 -2.78125 7.46875 -2.234375 C 6.761719 -1.582031 6.105469 -1.636719 5.507812 -2.453125 C 5.125 -2.945312 4.960938 -3.488281 4.742188 -4.089844 C 4.089844 -6.433594 4.089844 -8.777344 4.417969 -11.125 C 4.742188 -13.304688 5.125 -15.484375 5.835938 -17.558594 C 6.105469 -18.375 6.433594 -19.195312 6.980469 -19.847656 C 7.414062 -19.683594 7.632812 -19.359375 7.796875 -19.085938 Z M 7.796875 -19.085938 "/></g></g></g><g fill="#000000" fill-opacity="1"><g transform="translate(379.733346, 623.472775)"><g><path d="M 7.578125 -5.125 C 12.214844 -0.925781 18.8125 -1.363281 22.683594 -6.214844 C 25.355469 -9.542969 26.882812 -13.46875 28.246094 -17.503906 C 28.355469 -17.941406 28.246094 -18.210938 27.753906 -18.375 C 26.171875 -18.921875 25.574219 -18.648438 24.917969 -17.121094 C 23.664062 -14.285156 22.519531 -11.394531 20.9375 -8.722656 C 20.285156 -7.632812 19.574219 -6.597656 18.59375 -5.726562 C 16.414062 -3.707031 14.503906 -3.707031 12.433594 -5.835938 C 10.6875 -7.632812 9.488281 -9.871094 7.796875 -11.941406 C 9.105469 -12.214844 10.25 -12.378906 11.289062 -12.8125 C 15.269531 -14.449219 18.15625 -17.285156 20.285156 -20.9375 C 21.210938 -22.574219 21.539062 -24.265625 21.429688 -26.117188 C 21.320312 -28.519531 19.738281 -30.207031 17.394531 -30.699219 C 15.375 -31.027344 13.632812 -30.480469 11.941406 -29.5 C 10.03125 -28.300781 8.5625 -26.664062 7.199219 -24.917969 C 6.925781 -24.539062 6.816406 -24.101562 6.214844 -23.882812 C 6.324219 -27.046875 6.433594 -30.097656 6.652344 -33.207031 C 6.761719 -35.496094 6.761719 -37.789062 6.761719 -40.132812 C 6.761719 -40.839844 6.542969 -41.113281 5.78125 -41.113281 C 4.6875 -41.113281 3.597656 -40.949219 2.507812 -40.894531 C 1.910156 -40.894531 1.582031 -40.570312 1.527344 -40.023438 C 1.363281 -39.207031 1.199219 -38.386719 1.089844 -37.570312 C 0.601562 -33.535156 0.273438 -29.5 0.109375 -25.410156 C -0.328125 -17.011719 -0.871094 -8.5625 0.871094 -0.21875 C 1.308594 2.070312 1.089844 1.746094 3.109375 1.746094 C 3.488281 1.746094 3.925781 1.746094 4.363281 1.746094 C 4.960938 1.746094 5.289062 1.527344 5.289062 0.871094 C 5.289062 -0.109375 5.289062 -1.089844 5.34375 -2.070312 C 5.453125 -3.597656 5.5625 -5.125 5.671875 -6.761719 C 6.597656 -6.269531 6.980469 -5.617188 7.578125 -5.125 Z M 14.066406 -27.320312 C 14.449219 -27.699219 14.941406 -28.027344 15.429688 -28.300781 C 16.414062 -28.789062 17.175781 -28.464844 17.394531 -27.375 C 17.613281 -26.554688 17.503906 -25.738281 17.339844 -24.917969 C 16.957031 -23.011719 15.757812 -21.59375 14.613281 -20.175781 C 12.652344 -17.886719 10.25 -16.523438 7.035156 -15.703125 C 8.5625 -20.339844 10.632812 -24.210938 14.066406 -27.320312 Z M 14.066406 -27.320312 "/></g></g></g><g fill="#000000" fill-opacity="1"><g transform="translate(404.161259, 623.472775)"><g><path d="M 5.34375 -23.828125 C 6.761719 -20.449219 8.179688 -17.066406 9.269531 -13.632812 C 9.871094 -11.722656 9.871094 -11.722656 8.015625 -10.851562 C 5.945312 -9.871094 4.035156 -8.722656 2.671875 -6.816406 C 0.382812 -3.488281 1.582031 0.546875 5.398438 1.855469 C 8.289062 2.835938 11.070312 2.5625 13.6875 0.871094 C 15.105469 -0.0546875 16.085938 -1.363281 16.523438 -3.054688 C 16.902344 -4.582031 17.066406 -6.160156 16.792969 -7.796875 C 16.632812 -8.617188 16.523438 -9.378906 16.359375 -10.195312 C 16.085938 -11.613281 16.085938 -11.613281 17.449219 -12.160156 C 18.210938 -12.433594 18.976562 -12.757812 19.738281 -13.085938 C 21.101562 -13.796875 22.410156 -14.667969 23.609375 -15.59375 C 23.9375 -15.867188 24.320312 -16.140625 24.101562 -16.632812 C 23.828125 -17.121094 23.339844 -17.230469 22.792969 -17.121094 C 22.300781 -17.011719 21.921875 -16.738281 21.59375 -16.46875 C 20.066406 -15.429688 18.484375 -14.613281 16.792969 -13.960938 C 15.539062 -13.414062 15.484375 -13.414062 15.105469 -14.722656 C 13.523438 -19.519531 11.125 -23.882812 8.507812 -28.136719 C 7.851562 -29.226562 6.980469 -30.152344 5.945312 -30.917969 C 4.417969 -32.0625 3.328125 -31.625 2.890625 -29.828125 C 2.5625 -28.519531 2.289062 -27.210938 2.015625 -25.902344 C 0.273438 -18.046875 -1.199219 -10.085938 -3.816406 -2.453125 C -4.199219 -1.472656 -4.472656 -0.492188 -4.796875 0.492188 C -5.070312 1.144531 -4.796875 1.363281 -4.144531 1.472656 C -2.945312 1.691406 -2.617188 1.582031 -2.070312 0.273438 C 0.4375 -5.945312 2.453125 -12.324219 3.707031 -18.867188 C 4.035156 -20.71875 4.253906 -22.574219 4.851562 -24.648438 C 5.125 -24.210938 5.289062 -24.046875 5.34375 -23.828125 Z M 10.742188 -1.472656 C 10.03125 0.4375 8.398438 0.871094 6.816406 -0.328125 C 5.289062 -1.472656 4.742188 -3.273438 5.453125 -5.125 C 6.214844 -7.199219 7.851562 -8.398438 9.707031 -9.378906 C 10.25 -9.597656 10.523438 -9.378906 10.632812 -8.886719 C 10.960938 -7.46875 11.234375 -6.050781 11.234375 -4.472656 C 11.289062 -3.542969 11.125 -2.453125 10.742188 -1.472656 Z M 10.742188 -1.472656 "/></g></g></g></svg>